<svg width="375" height="812" viewBox="0 0 375 812" fill="none" xmlns="http://www.w3.org/2000/svg">
<g clip-path="url(#clip0_6_1991)">
<rect width="375" height="812" fill="#F9F9F9"/>
<g filter="url(#filter0_d_6_1991)">
<path d="M20 151C20 145.477 24.4772 141 30 141H345C350.523 141 355 145.477 355 151V181C355 186.523 350.523 191 345 191H30C24.4771 191 20 186.523 20 181V151Z" fill="white"/>
</g>
<circle cx="52.0002" cy="174.094" r="1.30569" transform="rotate(1.70614 52.0002 174.094)" stroke="#3C4758" stroke-width="1.5"/>
<path d="M47.4288 160.695C47.7666 158.429 49.7122 156.753 52.0026 156.754C54.2926 156.755 56.2367 158.433 56.5728 160.698L57.0004 163.58C57.2574 165.56 57.9613 166.999 59.0461 168.5C59.593 169.256 59.0578 170.198 58.2761 170.198L45.6926 170.193C44.9087 170.193 44.3912 169.262 44.9355 168.526C46.0536 167.014 46.7953 165.566 47.0007 163.566L47.4288 160.695Z" stroke="#3B4657" stroke-width="1.5"/>
<path d="M75.888 170V161.6H76.896L81.372 168.332V161.6H82.38V170H81.372L76.896 163.268V170H75.888ZM86.8134 170.144C86.2534 170.144 85.7494 170.016 85.3014 169.76C84.8534 169.504 84.4974 169.144 84.2334 168.68C83.9774 168.208 83.8494 167.656 83.8494 167.024C83.8494 166.392 83.9814 165.844 84.2454 165.38C84.5094 164.908 84.8654 164.544 85.3134 164.288C85.7694 164.032 86.2774 163.904 86.8374 163.904C87.3974 163.904 87.9014 164.032 88.3494 164.288C88.7974 164.544 89.1494 164.908 89.4054 165.38C89.6694 165.844 89.8014 166.392 89.8014 167.024C89.8014 167.656 89.6694 168.208 89.4054 168.68C89.1414 169.144 88.7814 169.504 88.3254 169.76C87.8774 170.016 87.3734 170.144 86.8134 170.144ZM86.8134 169.28C87.1574 169.28 87.4774 169.196 87.7734 169.028C88.0694 168.86 88.3094 168.608 88.4934 168.272C88.6774 167.936 88.7694 167.52 88.7694 167.024C88.7694 166.528 88.6774 166.112 88.4934 165.776C88.3174 165.44 88.0814 165.188 87.7854 165.02C87.4894 164.852 87.1734 164.768 86.8374 164.768C86.4934 164.768 86.1734 164.852 85.8774 165.02C85.5814 165.188 85.3414 165.44 85.1574 165.776C84.9734 166.112 84.8814 166.528 84.8814 167.024C84.8814 167.52 84.9734 167.936 85.1574 168.272C85.3414 168.608 85.5774 168.86 85.8654 169.028C86.1614 169.196 86.4774 169.28 86.8134 169.28ZM93.3206 170C92.7766 170 92.3486 169.868 92.0366 169.604C91.7246 169.34 91.5686 168.864 91.5686 168.176V164.9H90.5366V164.048H91.5686L91.7006 162.62H92.5766V164.048H94.3286V164.9H92.5766V168.176C92.5766 168.552 92.6526 168.808 92.8046 168.944C92.9566 169.072 93.2246 169.136 93.6086 169.136H94.2326V170H93.3206ZM96.2213 162.728C96.0213 162.728 95.8533 162.664 95.7173 162.536C95.5893 162.4 95.5253 162.232 95.5253 162.032C95.5253 161.84 95.5893 161.68 95.7173 161.552C95.8533 161.424 96.0213 161.36 96.2213 161.36C96.4133 161.36 96.5773 161.424 96.7133 161.552C96.8493 161.68 96.9173 161.84 96.9173 162.032C96.9173 162.232 96.8493 162.4 96.7133 162.536C96.5773 162.664 96.4133 162.728 96.2213 162.728ZM95.7173 170V164.048H96.7253V170H95.7173ZM98.8043 170V164.9H97.9043V164.048H98.8043V163.016C98.8043 162.44 98.9483 162.02 99.2363 161.756C99.5243 161.492 99.9443 161.36 100.496 161.36H101.096V162.224H100.652C100.348 162.224 100.132 162.288 100.004 162.416C99.8763 162.536 99.8123 162.744 99.8123 163.04V164.048H103.508V170H102.5V164.9H99.8123V170H98.8043ZM103.016 162.908C102.824 162.908 102.66 162.844 102.524 162.716C102.388 162.58 102.32 162.412 102.32 162.212C102.32 162.02 102.388 161.86 102.524 161.732C102.66 161.604 102.824 161.54 103.016 161.54C103.216 161.54 103.38 161.604 103.508 161.732C103.644 161.86 103.712 162.02 103.712 162.212C103.712 162.412 103.644 162.58 103.508 162.716C103.38 162.844 103.216 162.908 103.016 162.908ZM108.025 170.144C107.457 170.144 106.945 170.016 106.489 169.76C106.041 169.496 105.685 169.132 105.421 168.668C105.165 168.196 105.037 167.648 105.037 167.024C105.037 166.4 105.165 165.856 105.421 165.392C105.685 164.92 106.041 164.556 106.489 164.3C106.945 164.036 107.457 163.904 108.025 163.904C108.729 163.904 109.321 164.088 109.801 164.456C110.289 164.824 110.597 165.316 110.725 165.932H109.693C109.613 165.564 109.417 165.28 109.105 165.08C108.793 164.872 108.429 164.768 108.013 164.768C107.677 164.768 107.361 164.852 107.065 165.02C106.769 165.188 106.529 165.44 106.345 165.776C106.161 166.112 106.069 166.528 106.069 167.024C106.069 167.52 106.161 167.936 106.345 168.272C106.529 168.608 106.769 168.864 107.065 169.04C107.361 169.208 107.677 169.292 108.013 169.292C108.429 169.292 108.793 169.192 109.105 168.992C109.417 168.784 109.613 168.492 109.693 168.116H110.725C110.605 168.716 110.301 169.204 109.813 169.58C109.325 169.956 108.729 170.144 108.025 170.144ZM114.113 170.144C113.617 170.144 113.205 170.06 112.877 169.892C112.549 169.724 112.305 169.5 112.145 169.22C111.985 168.94 111.905 168.636 111.905 168.308C111.905 167.7 112.137 167.232 112.601 166.904C113.065 166.576 113.697 166.412 114.497 166.412H116.105V166.34C116.105 165.82 115.969 165.428 115.697 165.164C115.425 164.892 115.061 164.756 114.605 164.756C114.213 164.756 113.873 164.856 113.585 165.056C113.305 165.248 113.129 165.532 113.057 165.908H112.025C112.065 165.476 112.209 165.112 112.457 164.816C112.713 164.52 113.029 164.296 113.405 164.144C113.781 163.984 114.181 163.904 114.605 163.904C115.437 163.904 116.061 164.128 116.477 164.576C116.901 165.016 117.113 165.604 117.113 166.34V170H116.213L116.153 168.932C115.985 169.268 115.737 169.556 115.409 169.796C115.089 170.028 114.657 170.144 114.113 170.144ZM114.269 169.292C114.653 169.292 114.981 169.192 115.253 168.992C115.533 168.792 115.745 168.532 115.889 168.212C116.033 167.892 116.105 167.556 116.105 167.204V167.192H114.581C113.989 167.192 113.569 167.296 113.321 167.504C113.081 167.704 112.961 167.956 112.961 168.26C112.961 168.572 113.073 168.824 113.297 169.016C113.529 169.2 113.853 169.292 114.269 169.292ZM120.813 170C120.269 170 119.841 169.868 119.529 169.604C119.217 169.34 119.061 168.864 119.061 168.176V164.9H118.029V164.048H119.061L119.193 162.62H120.069V164.048H121.821V164.9H120.069V168.176C120.069 168.552 120.145 168.808 120.297 168.944C120.449 169.072 120.717 169.136 121.101 169.136H121.725V170H120.813ZM123.713 162.728C123.513 162.728 123.345 162.664 123.209 162.536C123.081 162.4 123.017 162.232 123.017 162.032C123.017 161.84 123.081 161.68 123.209 161.552C123.345 161.424 123.513 161.36 123.713 161.36C123.905 161.36 124.069 161.424 124.205 161.552C124.341 161.68 124.409 161.84 124.409 162.032C124.409 162.232 124.341 162.4 124.205 162.536C124.069 162.664 123.905 162.728 123.713 162.728ZM123.209 170V164.048H124.217V170H123.209ZM128.685 170.144C128.125 170.144 127.621 170.016 127.173 169.76C126.725 169.504 126.369 169.144 126.105 168.68C125.849 168.208 125.721 167.656 125.721 167.024C125.721 166.392 125.853 165.844 126.117 165.38C126.381 164.908 126.737 164.544 127.185 164.288C127.641 164.032 128.149 163.904 128.709 163.904C129.269 163.904 129.773 164.032 130.221 164.288C130.669 164.544 131.021 164.908 131.277 165.38C131.541 165.844 131.673 166.392 131.673 167.024C131.673 167.656 131.541 168.208 131.277 168.68C131.013 169.144 130.653 169.504 130.197 169.76C129.749 170.016 129.245 170.144 128.685 170.144ZM128.685 169.28C129.029 169.28 129.349 169.196 129.645 169.028C129.941 168.86 130.181 168.608 130.365 168.272C130.549 167.936 130.641 167.52 130.641 167.024C130.641 166.528 130.549 166.112 130.365 165.776C130.189 165.44 129.953 165.188 129.657 165.02C129.361 164.852 129.045 164.768 128.709 164.768C128.365 164.768 128.045 164.852 127.749 165.02C127.453 165.188 127.213 165.44 127.029 165.776C126.845 166.112 126.753 166.528 126.753 167.024C126.753 167.52 126.845 167.936 127.029 168.272C127.213 168.608 127.449 168.86 127.737 169.028C128.033 169.196 128.349 169.28 128.685 169.28ZM133.074 170V164.048H133.986L134.046 165.116C134.238 164.74 134.514 164.444 134.874 164.228C135.234 164.012 135.642 163.904 136.098 163.904C136.802 163.904 137.362 164.12 137.778 164.552C138.202 164.976 138.414 165.632 138.414 166.52V170H137.406V166.628C137.406 165.388 136.894 164.768 135.87 164.768C135.358 164.768 134.93 164.956 134.586 165.332C134.25 165.7 134.082 166.228 134.082 166.916V170H133.074ZM142.221 170.144C141.509 170.144 140.917 169.964 140.445 169.604C139.973 169.244 139.697 168.756 139.617 168.14H140.649C140.713 168.452 140.877 168.724 141.141 168.956C141.413 169.18 141.777 169.292 142.233 169.292C142.657 169.292 142.969 169.204 143.169 169.028C143.369 168.844 143.469 168.628 143.469 168.38C143.469 168.02 143.337 167.78 143.073 167.66C142.817 167.54 142.453 167.432 141.981 167.336C141.661 167.272 141.341 167.18 141.021 167.06C140.701 166.94 140.433 166.772 140.217 166.556C140.001 166.332 139.893 166.04 139.893 165.68C139.893 165.16 140.085 164.736 140.469 164.408C140.861 164.072 141.389 163.904 142.053 163.904C142.685 163.904 143.201 164.064 143.601 164.384C144.009 164.696 144.245 165.144 144.309 165.728H143.313C143.273 165.424 143.141 165.188 142.917 165.02C142.701 164.844 142.409 164.756 142.041 164.756C141.681 164.756 141.401 164.832 141.201 164.984C141.009 165.136 140.913 165.336 140.913 165.584C140.913 165.824 141.037 166.012 141.285 166.148C141.541 166.284 141.885 166.4 142.317 166.496C142.685 166.576 143.033 166.676 143.361 166.796C143.697 166.908 143.969 167.08 144.177 167.312C144.393 167.536 144.501 167.864 144.501 168.296C144.509 168.832 144.305 169.276 143.889 169.628C143.481 169.972 142.925 170.144 142.221 170.144Z" fill="#0B373D"/>
<g filter="url(#filter1_d_6_1991)">
<path d="M297 166.5C297 161.253 301.253 157 306.5 157H325.5C330.747 157 335 161.253 335 166.5C335 171.747 330.747 176 325.5 176H306.5C301.253 176 297 171.747 297 166.5Z" fill="#56CD54"/>
</g>
<circle cx="325.5" cy="166.5" r="6.5" fill="white"/>
<g filter="url(#filter2_d_6_1991)">
<path d="M20 211C20 205.477 24.4772 201 30 201H345C350.523 201 355 205.477 355 211V241C355 246.523 350.523 251 345 251H30C24.4771 251 20 246.523 20 241V211Z" fill="white"/>
</g>
<mask id="path-8-inside-1_6_1991" fill="white">
<path fill-rule="evenodd" clip-rule="evenodd" d="M41.7244 231.4C43.5031 234.167 46.6086 236 50.1423 236C55.6651 236 60.1423 231.523 60.1423 226C60.1423 220.958 56.4112 216.788 51.5597 216.1C52.561 217.657 53.1418 219.511 53.1418 221.5C53.1418 227.023 48.6646 231.5 43.1418 231.5C42.6606 231.5 42.1874 231.466 41.7244 231.4Z"/>
</mask>
<path d="M41.7244 231.4L41.9351 229.915L38.6905 229.455L40.4626 232.211L41.7244 231.4ZM51.5597 216.1L51.7704 214.614L48.5258 214.154L50.2979 216.911L51.5597 216.1ZM50.1423 234.5C47.1402 234.5 44.5005 232.945 42.9861 230.589L40.4626 232.211C42.5056 235.389 46.077 237.5 50.1423 237.5V234.5ZM58.6423 226C58.6423 230.694 54.8367 234.5 50.1423 234.5V237.5C56.4935 237.5 61.6423 232.351 61.6423 226H58.6423ZM51.3489 217.585C55.4714 218.17 58.6423 221.716 58.6423 226H61.6423C61.6423 220.201 57.3511 215.406 51.7704 214.614L51.3489 217.585ZM50.2979 216.911C51.1483 218.234 51.6418 219.807 51.6418 221.5H54.6418C54.6418 219.215 53.9736 217.081 52.8214 215.288L50.2979 216.911ZM51.6418 221.5C51.6418 226.194 47.8362 230 43.1418 230V233C49.493 233 54.6418 227.851 54.6418 221.5H51.6418ZM43.1418 230C42.7313 230 42.3285 229.971 41.9351 229.915L41.5136 232.885C42.0463 232.961 42.5899 233 43.1418 233V230Z" fill="#3D4859" mask="url(#path-8-inside-1_6_1991)"/>
<path d="M75.888 230V221.6H78.468C79.948 221.6 81.036 221.976 81.732 222.728C82.436 223.48 82.788 224.512 82.788 225.824C82.788 227.112 82.436 228.132 81.732 228.884C81.036 229.628 79.948 230 78.468 230H75.888ZM76.896 229.16H78.444C79.26 229.16 79.908 229.028 80.388 228.764C80.876 228.492 81.224 228.108 81.432 227.612C81.64 227.108 81.744 226.512 81.744 225.824C81.744 225.12 81.64 224.516 81.432 224.012C81.224 223.508 80.876 223.12 80.388 222.848C79.908 222.576 79.26 222.44 78.444 222.44H76.896V229.16ZM86.1635 230.144C85.6675 230.144 85.2555 230.06 84.9275 229.892C84.5995 229.724 84.3555 229.5 84.1955 229.22C84.0355 228.94 83.9555 228.636 83.9555 228.308C83.9555 227.7 84.1875 227.232 84.6515 226.904C85.1155 226.576 85.7475 226.412 86.5475 226.412H88.1555V226.34C88.1555 225.82 88.0195 225.428 87.7475 225.164C87.4755 224.892 87.1115 224.756 86.6555 224.756C86.2635 224.756 85.9235 224.856 85.6355 225.056C85.3555 225.248 85.1795 225.532 85.1075 225.908H84.0755C84.1155 225.476 84.2595 225.112 84.5075 224.816C84.7635 224.52 85.0795 224.296 85.4555 224.144C85.8315 223.984 86.2315 223.904 86.6555 223.904C87.4875 223.904 88.1115 224.128 88.5275 224.576C88.9515 225.016 89.1635 225.604 89.1635 226.34V230H88.2635L88.2035 228.932C88.0355 229.268 87.7875 229.556 87.4595 229.796C87.1395 230.028 86.7075 230.144 86.1635 230.144ZM86.3195 229.292C86.7035 229.292 87.0315 229.192 87.3035 228.992C87.5835 228.792 87.7955 228.532 87.9395 228.212C88.0835 227.892 88.1555 227.556 88.1555 227.204V227.192H86.6315C86.0395 227.192 85.6195 227.296 85.3715 227.504C85.1315 227.704 85.0115 227.956 85.0115 228.26C85.0115 228.572 85.1235 228.824 85.3475 229.016C85.5795 229.2 85.9035 229.292 86.3195 229.292ZM90.6757 230V224.048H91.5877L91.6717 225.188C91.8557 224.796 92.1357 224.484 92.5117 224.252C92.8877 224.02 93.3517 223.904 93.9037 223.904V224.96H93.6277C93.2757 224.96 92.9517 225.024 92.6557 225.152C92.3597 225.272 92.1237 225.48 91.9477 225.776C91.7717 226.072 91.6837 226.48 91.6837 227V230H90.6757ZM95.035 230V221.36H96.043V226.556L98.479 224.048H99.715L97.075 226.736L100.051 230H98.767L96.043 226.916V230H95.035ZM104.258 230V224.048H105.17L105.242 224.912C105.434 224.592 105.69 224.344 106.01 224.168C106.33 223.992 106.69 223.904 107.09 223.904C107.562 223.904 107.966 224 108.302 224.192C108.646 224.384 108.91 224.676 109.094 225.068C109.302 224.708 109.586 224.424 109.946 224.216C110.314 224.008 110.71 223.904 111.134 223.904C111.846 223.904 112.414 224.12 112.838 224.552C113.262 224.976 113.474 225.632 113.474 226.52V230H112.478V226.628C112.478 226.012 112.354 225.548 112.106 225.236C111.858 224.924 111.502 224.768 111.038 224.768C110.558 224.768 110.158 224.956 109.838 225.332C109.526 225.7 109.37 226.228 109.37 226.916V230H108.362V226.628C108.362 226.012 108.238 225.548 107.99 225.236C107.742 224.924 107.386 224.768 106.922 224.768C106.45 224.768 106.054 224.956 105.734 225.332C105.422 225.7 105.266 226.228 105.266 226.916V230H104.258ZM117.704 230.144C117.144 230.144 116.64 230.016 116.192 229.76C115.744 229.504 115.388 229.144 115.124 228.68C114.868 228.208 114.74 227.656 114.74 227.024C114.74 226.392 114.872 225.844 115.136 225.38C115.4 224.908 115.756 224.544 116.204 224.288C116.66 224.032 117.168 223.904 117.728 223.904C118.288 223.904 118.792 224.032 119.24 224.288C119.688 224.544 120.04 224.908 120.296 225.38C120.56 225.844 120.692 226.392 120.692 227.024C120.692 227.656 120.56 228.208 120.296 228.68C120.032 229.144 119.672 229.504 119.216 229.76C118.768 230.016 118.264 230.144 117.704 230.144ZM117.704 229.28C118.048 229.28 118.368 229.196 118.664 229.028C118.96 228.86 119.2 228.608 119.384 228.272C119.568 227.936 119.66 227.52 119.66 227.024C119.66 226.528 119.568 226.112 119.384 225.776C119.208 225.44 118.972 225.188 118.676 225.02C118.38 224.852 118.064 224.768 117.728 224.768C117.384 224.768 117.064 224.852 116.768 225.02C116.472 225.188 116.232 225.44 116.048 225.776C115.864 226.112 115.772 226.528 115.772 227.024C115.772 227.52 115.864 227.936 116.048 228.272C116.232 228.608 116.468 228.86 116.756 229.028C117.052 229.196 117.368 229.28 117.704 229.28ZM124.794 230.144C124.202 230.144 123.682 230.008 123.234 229.736C122.794 229.464 122.45 229.092 122.202 228.62C121.962 228.148 121.842 227.612 121.842 227.012C121.842 226.412 121.966 225.88 122.214 225.416C122.462 224.944 122.806 224.576 123.246 224.312C123.686 224.04 124.206 223.904 124.806 223.904C125.294 223.904 125.726 224.004 126.102 224.204C126.478 224.404 126.77 224.684 126.978 225.044V221.36H127.986V230H127.074L126.978 229.016C126.786 229.304 126.51 229.564 126.15 229.796C125.79 230.028 125.338 230.144 124.794 230.144ZM124.902 229.268C125.302 229.268 125.654 229.176 125.958 228.992C126.27 228.8 126.51 228.536 126.678 228.2C126.854 227.864 126.942 227.472 126.942 227.024C126.942 226.576 126.854 226.184 126.678 225.848C126.51 225.512 126.27 225.252 125.958 225.068C125.654 224.876 125.302 224.78 124.902 224.78C124.51 224.78 124.158 224.876 123.846 225.068C123.542 225.252 123.302 225.512 123.126 225.848C122.958 226.184 122.874 226.576 122.874 227.024C122.874 227.472 122.958 227.864 123.126 228.2C123.302 228.536 123.542 228.8 123.846 228.992C124.158 229.176 124.51 229.268 124.902 229.268ZM132.305 230.144C131.737 230.144 131.233 230.016 130.793 229.76C130.353 229.496 130.005 229.132 129.749 228.668C129.501 228.204 129.377 227.656 129.377 227.024C129.377 226.4 129.501 225.856 129.749 225.392C129.997 224.92 130.341 224.556 130.781 224.3C131.229 224.036 131.745 223.904 132.329 223.904C132.905 223.904 133.401 224.036 133.817 224.3C134.241 224.556 134.565 224.896 134.789 225.32C135.013 225.744 135.125 226.2 135.125 226.688C135.125 226.776 135.121 226.864 135.113 226.952C135.113 227.04 135.113 227.14 135.113 227.252H130.373C130.397 227.708 130.501 228.088 130.685 228.392C130.877 228.688 131.113 228.912 131.393 229.064C131.681 229.216 131.985 229.292 132.305 229.292C132.721 229.292 133.069 229.196 133.349 229.004C133.629 228.812 133.833 228.552 133.961 228.224H134.957C134.797 228.776 134.489 229.236 134.033 229.604C133.585 229.964 133.009 230.144 132.305 230.144ZM132.305 224.756C131.825 224.756 131.397 224.904 131.021 225.2C130.653 225.488 130.441 225.912 130.385 226.472H134.129C134.105 225.936 133.921 225.516 133.577 225.212C133.233 224.908 132.809 224.756 132.305 224.756Z" fill="#0B373D"/>
<g filter="url(#filter3_d_6_1991)">
<path d="M335 226.5C335 221.253 330.747 217 325.5 217H306.5C301.253 217 297 221.253 297 226.5C297 231.747 301.253 236 306.5 236H325.5C330.747 236 335 231.747 335 226.5Z" fill="#E5E5E5"/>
</g>
<circle cx="6.5" cy="6.5" r="6.5" transform="matrix(-1 0 0 1 313 220)" fill="#3D4859"/>
<g filter="url(#filter4_d_6_1991)">
<path d="M20 271C20 265.477 24.4772 261 30 261H345C350.523 261 355 265.477 355 271V301C355 306.523 350.523 311 345 311H30C24.4771 311 20 306.523 20 301V271Z" fill="white"/>
</g>
<path d="M43.75 287C43.75 285.205 45.2051 283.75 47 283.75H57C58.7949 283.75 60.25 285.205 60.25 287V291C60.25 292.795 58.7949 294.25 57 294.25H47C45.2051 294.25 43.75 292.795 43.75 291V287Z" stroke="#3E495A" stroke-width="1.5"/>
<path d="M55 283V281.5C55 279.843 53.6569 278.5 52 278.5V278.5C50.3431 278.5 49 279.843 49 281.5V283" stroke="#3E495A" stroke-width="1.5"/>
<path d="M75.888 290V281.6H78.648C79.304 281.6 79.844 281.708 80.268 281.924C80.692 282.14 81.004 282.432 81.204 282.8C81.412 283.168 81.516 283.584 81.516 284.048C81.516 284.504 81.416 284.916 81.216 285.284C81.016 285.652 80.704 285.948 80.28 286.172C79.856 286.388 79.312 286.496 78.648 286.496H76.896V290H75.888ZM76.896 285.644H78.624C79.296 285.644 79.772 285.504 80.052 285.224C80.34 284.936 80.484 284.544 80.484 284.048C80.484 283.544 80.34 283.152 80.052 282.872C79.772 282.584 79.296 282.44 78.624 282.44H76.896V285.644ZM84.476 290.144C83.98 290.144 83.568 290.06 83.24 289.892C82.912 289.724 82.668 289.5 82.508 289.22C82.348 288.94 82.268 288.636 82.268 288.308C82.268 287.7 82.5 287.232 82.964 286.904C83.428 286.576 84.06 286.412 84.86 286.412H86.468V286.34C86.468 285.82 86.332 285.428 86.06 285.164C85.788 284.892 85.424 284.756 84.968 284.756C84.576 284.756 84.236 284.856 83.948 285.056C83.668 285.248 83.492 285.532 83.42 285.908H82.388C82.428 285.476 82.572 285.112 82.82 284.816C83.076 284.52 83.392 284.296 83.768 284.144C84.144 283.984 84.544 283.904 84.968 283.904C85.8 283.904 86.424 284.128 86.84 284.576C87.264 285.016 87.476 285.604 87.476 286.34V290H86.576L86.516 288.932C86.348 289.268 86.1 289.556 85.772 289.796C85.452 290.028 85.02 290.144 84.476 290.144ZM84.632 289.292C85.016 289.292 85.344 289.192 85.616 288.992C85.896 288.792 86.108 288.532 86.252 288.212C86.396 287.892 86.468 287.556 86.468 287.204V287.192H84.944C84.352 287.192 83.932 287.296 83.684 287.504C83.444 287.704 83.324 287.956 83.324 288.26C83.324 288.572 83.436 288.824 83.66 289.016C83.892 289.2 84.216 289.292 84.632 289.292ZM91.2682 290.144C90.5562 290.144 89.9642 289.964 89.4922 289.604C89.0202 289.244 88.7442 288.756 88.6642 288.14H89.6962C89.7602 288.452 89.9242 288.724 90.1882 288.956C90.4602 289.18 90.8242 289.292 91.2802 289.292C91.7042 289.292 92.0162 289.204 92.2162 289.028C92.4162 288.844 92.5162 288.628 92.5162 288.38C92.5162 288.02 92.3842 287.78 92.1202 287.66C91.8642 287.54 91.5002 287.432 91.0282 287.336C90.7082 287.272 90.3882 287.18 90.0682 287.06C89.7482 286.94 89.4802 286.772 89.2642 286.556C89.0482 286.332 88.9402 286.04 88.9402 285.68C88.9402 285.16 89.1322 284.736 89.5162 284.408C89.9082 284.072 90.4362 283.904 91.1002 283.904C91.7322 283.904 92.2482 284.064 92.6482 284.384C93.0562 284.696 93.2922 285.144 93.3562 285.728H92.3602C92.3202 285.424 92.1882 285.188 91.9642 285.02C91.7482 284.844 91.4562 284.756 91.0882 284.756C90.7282 284.756 90.4482 284.832 90.2482 284.984C90.0562 285.136 89.9602 285.336 89.9602 285.584C89.9602 285.824 90.0842 286.012 90.3322 286.148C90.5882 286.284 90.9322 286.4 91.3642 286.496C91.7322 286.576 92.0802 286.676 92.4082 286.796C92.7442 286.908 93.0162 287.08 93.2242 287.312C93.4402 287.536 93.5482 287.864 93.5482 288.296C93.5562 288.832 93.3522 289.276 92.9362 289.628C92.5282 289.972 91.9722 290.144 91.2682 290.144ZM97.2682 290.144C96.5562 290.144 95.9642 289.964 95.4922 289.604C95.0202 289.244 94.7442 288.756 94.6642 288.14H95.6962C95.7602 288.452 95.9242 288.724 96.1882 288.956C96.4602 289.18 96.8242 289.292 97.2802 289.292C97.7042 289.292 98.0162 289.204 98.2162 289.028C98.4162 288.844 98.5162 288.628 98.5162 288.38C98.5162 288.02 98.3842 287.78 98.1202 287.66C97.8642 287.54 97.5002 287.432 97.0282 287.336C96.7082 287.272 96.3882 287.18 96.0682 287.06C95.7482 286.94 95.4802 286.772 95.2642 286.556C95.0482 286.332 94.9402 286.04 94.9402 285.68C94.9402 285.16 95.1322 284.736 95.5162 284.408C95.9082 284.072 96.4362 283.904 97.1002 283.904C97.7322 283.904 98.2482 284.064 98.6482 284.384C99.0562 284.696 99.2922 285.144 99.3562 285.728H98.3602C98.3202 285.424 98.1882 285.188 97.9642 285.02C97.7482 284.844 97.4562 284.756 97.0882 284.756C96.7282 284.756 96.4482 284.832 96.2482 284.984C96.0562 285.136 95.9602 285.336 95.9602 285.584C95.9602 285.824 96.0842 286.012 96.3322 286.148C96.5882 286.284 96.9322 286.4 97.3642 286.496C97.7322 286.576 98.0802 286.676 98.4082 286.796C98.7442 286.908 99.0162 287.08 99.2242 287.312C99.4402 287.536 99.5482 287.864 99.5482 288.296C99.5562 288.832 99.3522 289.276 98.9362 289.628C98.5282 289.972 97.9722 290.144 97.2682 290.144ZM101.966 290L100.226 284.048H101.234L102.494 288.716L103.886 284.048H105.026L106.43 288.716L107.678 284.048H108.698L106.958 290H105.926L104.462 285.092L102.998 290H101.966ZM112.302 290.144C111.742 290.144 111.238 290.016 110.79 289.76C110.342 289.504 109.986 289.144 109.722 288.68C109.466 288.208 109.338 287.656 109.338 287.024C109.338 286.392 109.47 285.844 109.734 285.38C109.998 284.908 110.354 284.544 110.802 284.288C111.258 284.032 111.766 283.904 112.326 283.904C112.886 283.904 113.39 284.032 113.838 284.288C114.286 284.544 114.638 284.908 114.894 285.38C115.158 285.844 115.29 286.392 115.29 287.024C115.29 287.656 115.158 288.208 114.894 288.68C114.63 289.144 114.27 289.504 113.814 289.76C113.366 290.016 112.862 290.144 112.302 290.144ZM112.302 289.28C112.646 289.28 112.966 289.196 113.262 289.028C113.558 288.86 113.798 288.608 113.982 288.272C114.166 287.936 114.258 287.52 114.258 287.024C114.258 286.528 114.166 286.112 113.982 285.776C113.806 285.44 113.57 285.188 113.274 285.02C112.978 284.852 112.662 284.768 112.326 284.768C111.982 284.768 111.662 284.852 111.366 285.02C111.07 285.188 110.83 285.44 110.646 285.776C110.462 286.112 110.37 286.528 110.37 287.024C110.37 287.52 110.462 287.936 110.646 288.272C110.83 288.608 111.066 288.86 111.354 289.028C111.65 289.196 111.966 289.28 112.302 289.28ZM116.691 290V284.048H117.603L117.687 285.188C117.871 284.796 118.151 284.484 118.527 284.252C118.903 284.02 119.367 283.904 119.919 283.904V284.96H119.643C119.291 284.96 118.967 285.024 118.671 285.152C118.375 285.272 118.139 285.48 117.963 285.776C117.787 286.072 117.699 286.48 117.699 287V290H116.691ZM123.528 290.144C122.936 290.144 122.416 290.008 121.968 289.736C121.528 289.464 121.184 289.092 120.936 288.62C120.696 288.148 120.576 287.612 120.576 287.012C120.576 286.412 120.7 285.88 120.948 285.416C121.196 284.944 121.54 284.576 121.98 284.312C122.42 284.04 122.94 283.904 123.54 283.904C124.028 283.904 124.46 284.004 124.836 284.204C125.212 284.404 125.504 284.684 125.712 285.044V281.36H126.72V290H125.808L125.712 289.016C125.52 289.304 125.244 289.564 124.884 289.796C124.524 290.028 124.072 290.144 123.528 290.144ZM123.636 289.268C124.036 289.268 124.388 289.176 124.692 288.992C125.004 288.8 125.244 288.536 125.412 288.2C125.588 287.864 125.676 287.472 125.676 287.024C125.676 286.576 125.588 286.184 125.412 285.848C125.244 285.512 125.004 285.252 124.692 285.068C124.388 284.876 124.036 284.78 123.636 284.78C123.244 284.78 122.892 284.876 122.58 285.068C122.276 285.252 122.036 285.512 121.86 285.848C121.692 286.184 121.608 286.576 121.608 287.024C121.608 287.472 121.692 287.864 121.86 288.2C122.036 288.536 122.276 288.8 122.58 288.992C122.892 289.176 123.244 289.268 123.636 289.268Z" fill="#0B373D"/>
<circle cx="326" cy="286" r="6" fill="white"/>
<path d="M325 281L330 286L325 291" stroke="#0B373D" stroke-width="1.5" stroke-linecap="round"/>
<g filter="url(#filter5_d_6_1991)">
<path d="M20 331C20 325.477 24.4772 321 30 321H345C350.523 321 355 325.477 355 331V361C355 366.523 350.523 371 345 371H30C24.4771 371 20 366.523 20 361V331Z" fill="white"/>
</g>
<path d="M54 349.833L54 350C54 352.209 52.2091 354 50 354L48 354C45.7909 354 44 352.209 44 350L44 342C44 339.791 45.7909 338 48 338L50 338C52.2091 338 54 339.791 54 342L54 342.153" stroke="#3E495A" stroke-width="1.5" stroke-linecap="round"/>
<path d="M49 346H59.5" stroke="#3E495A" stroke-width="1.5" stroke-linecap="round"/>
<path d="M57.2083 343L59.5002 345.999L57.2083 349" stroke="#3E495A" stroke-width="1.5" stroke-linecap="round"/>
<path d="M75.888 350V341.6H76.896V349.196H80.808V350H75.888ZM84.5869 350.144C84.0269 350.144 83.5229 350.016 83.0749 349.76C82.6269 349.504 82.2709 349.144 82.0069 348.68C81.7509 348.208 81.6229 347.656 81.6229 347.024C81.6229 346.392 81.7549 345.844 82.0189 345.38C82.2829 344.908 82.6389 344.544 83.0869 344.288C83.5429 344.032 84.0509 343.904 84.6109 343.904C85.1709 343.904 85.6749 344.032 86.1229 344.288C86.5709 344.544 86.9229 344.908 87.1789 345.38C87.4429 345.844 87.5749 346.392 87.5749 347.024C87.5749 347.656 87.4429 348.208 87.1789 348.68C86.9149 349.144 86.5549 349.504 86.0989 349.76C85.6509 350.016 85.1469 350.144 84.5869 350.144ZM84.5869 349.28C84.9309 349.28 85.2509 349.196 85.5469 349.028C85.8429 348.86 86.0829 348.608 86.2669 348.272C86.4509 347.936 86.5429 347.52 86.5429 347.024C86.5429 346.528 86.4509 346.112 86.2669 345.776C86.0909 345.44 85.8549 345.188 85.5589 345.02C85.2629 344.852 84.9469 344.768 84.6109 344.768C84.2669 344.768 83.9469 344.852 83.6509 345.02C83.3549 345.188 83.1149 345.44 82.9309 345.776C82.7469 346.112 82.6549 346.528 82.6549 347.024C82.6549 347.52 82.7469 347.936 82.9309 348.272C83.1149 348.608 83.3509 348.86 83.6389 349.028C83.9349 349.196 84.2509 349.28 84.5869 349.28ZM91.0706 348.128C90.7346 348.128 90.4266 348.084 90.1466 347.996L89.5466 348.56C89.6346 348.624 89.7426 348.68 89.8706 348.728C90.0066 348.768 90.1986 348.808 90.4466 348.848C90.6946 348.88 91.0426 348.916 91.4906 348.956C92.2906 349.012 92.8626 349.196 93.2066 349.508C93.5506 349.82 93.7226 350.228 93.7226 350.732C93.7226 351.076 93.6266 351.404 93.4346 351.716C93.2506 352.028 92.9626 352.284 92.5706 352.484C92.1866 352.684 91.6906 352.784 91.0826 352.784C90.5466 352.784 90.0706 352.712 89.6546 352.568C89.2386 352.432 88.9146 352.22 88.6826 351.932C88.4506 351.652 88.3346 351.296 88.3346 350.864C88.3346 350.64 88.3946 350.396 88.5146 350.132C88.6346 349.876 88.8586 349.632 89.1866 349.4C89.0106 349.328 88.8586 349.252 88.7306 349.172C88.6106 349.084 88.4986 348.988 88.3946 348.884V348.608L89.4146 347.6C88.9426 347.2 88.7066 346.672 88.7066 346.016C88.7066 345.624 88.7986 345.268 88.9826 344.948C89.1666 344.628 89.4346 344.376 89.7866 344.192C90.1386 344 90.5666 343.904 91.0706 343.904C91.4146 343.904 91.7266 343.952 92.0066 344.048H94.2026V344.804L93.0866 344.852C93.3186 345.188 93.4346 345.576 93.4346 346.016C93.4346 346.408 93.3386 346.764 93.1466 347.084C92.9626 347.404 92.6946 347.66 92.3426 347.852C91.9986 348.036 91.5746 348.128 91.0706 348.128ZM91.0706 347.3C91.4946 347.3 91.8306 347.192 92.0786 346.976C92.3346 346.752 92.4626 346.432 92.4626 346.016C92.4626 345.608 92.3346 345.296 92.0786 345.08C91.8306 344.856 91.4946 344.744 91.0706 344.744C90.6386 344.744 90.2946 344.856 90.0386 345.08C89.7906 345.296 89.6666 345.608 89.6666 346.016C89.6666 346.432 89.7906 346.752 90.0386 346.976C90.2946 347.192 90.6386 347.3 91.0706 347.3ZM89.3186 350.768C89.3186 351.168 89.4866 351.464 89.8226 351.656C90.1586 351.856 90.5786 351.956 91.0826 351.956C91.5786 351.956 91.9746 351.848 92.2706 351.632C92.5746 351.416 92.7266 351.128 92.7266 350.768C92.7266 350.512 92.6226 350.288 92.4146 350.096C92.2066 349.912 91.8226 349.804 91.2626 349.772C90.8226 349.74 90.4426 349.7 90.1226 349.652C89.7946 349.828 89.5786 350.016 89.4746 350.216C89.3706 350.424 89.3186 350.608 89.3186 350.768ZM97.8173 350.144C97.2573 350.144 96.7533 350.016 96.3053 349.76C95.8573 349.504 95.5013 349.144 95.2373 348.68C94.9813 348.208 94.8533 347.656 94.8533 347.024C94.8533 346.392 94.9853 345.844 95.2493 345.38C95.5133 344.908 95.8693 344.544 96.3173 344.288C96.7733 344.032 97.2813 343.904 97.8413 343.904C98.4013 343.904 98.9053 344.032 99.3533 344.288C99.8013 344.544 100.153 344.908 100.409 345.38C100.673 345.844 100.805 346.392 100.805 347.024C100.805 347.656 100.673 348.208 100.409 348.68C100.145 349.144 99.7853 349.504 99.3293 349.76C98.8813 350.016 98.3773 350.144 97.8173 350.144ZM97.8173 349.28C98.1613 349.28 98.4813 349.196 98.7773 349.028C99.0733 348.86 99.3133 348.608 99.4973 348.272C99.6813 347.936 99.7733 347.52 99.7733 347.024C99.7733 346.528 99.6813 346.112 99.4973 345.776C99.3213 345.44 99.0853 345.188 98.7893 345.02C98.4933 344.852 98.1773 344.768 97.8413 344.768C97.4973 344.768 97.1773 344.852 96.8813 345.02C96.5853 345.188 96.3453 345.44 96.1613 345.776C95.9773 346.112 95.8853 346.528 95.8853 347.024C95.8853 347.52 95.9773 347.936 96.1613 348.272C96.3453 348.608 96.5813 348.86 96.8693 349.028C97.1653 349.196 97.4813 349.28 97.8173 349.28ZM104.379 350.144C103.675 350.144 103.115 349.932 102.699 349.508C102.283 349.076 102.075 348.416 102.075 347.528V344.048H103.083V347.42C103.083 348.66 103.591 349.28 104.607 349.28C105.127 349.28 105.555 349.096 105.891 348.728C106.235 348.352 106.407 347.82 106.407 347.132V344.048H107.415V350H106.503L106.431 348.932C106.247 349.308 105.971 349.604 105.603 349.82C105.243 350.036 104.835 350.144 104.379 350.144ZM111.426 350C110.882 350 110.454 349.868 110.142 349.604C109.83 349.34 109.674 348.864 109.674 348.176V344.9H108.642V344.048H109.674L109.806 342.62H110.682V344.048H112.434V344.9H110.682V348.176C110.682 348.552 110.758 348.808 110.91 348.944C111.062 349.072 111.33 349.136 111.714 349.136H112.338V350H111.426Z" fill="#0B373D"/>
<circle cx="326" cy="346" r="6" fill="white"/>
<path d="M325 341L330 346L325 351" stroke="#0B373D" stroke-width="1.5" stroke-linecap="round"/>
<rect x="81" y="742" width="213" height="50" rx="15" fill="#087108"/>
<path d="M179.082 770.279C179.082 770.872 178.936 771.382 178.645 771.811C178.357 772.239 177.943 772.567 177.4 772.795C176.863 773.023 176.22 773.137 175.473 773.137C175.108 773.137 174.759 773.116 174.427 773.075C174.094 773.034 173.78 772.975 173.483 772.897C173.192 772.815 172.925 772.717 172.684 772.604V771.059C173.089 771.236 173.543 771.398 174.044 771.544C174.545 771.685 175.056 771.756 175.575 771.756C175.999 771.756 176.35 771.701 176.628 771.592C176.91 771.478 177.12 771.318 177.257 771.113C177.394 770.904 177.462 770.66 177.462 770.382C177.462 770.086 177.382 769.835 177.223 769.63C177.063 769.425 176.822 769.238 176.498 769.069C176.179 768.896 175.778 768.712 175.295 768.516C174.967 768.383 174.652 768.233 174.352 768.064C174.055 767.896 173.791 767.698 173.559 767.47C173.326 767.242 173.142 766.973 173.005 766.663C172.873 766.349 172.807 765.979 172.807 765.556C172.807 764.991 172.941 764.507 173.21 764.106C173.483 763.705 173.866 763.398 174.358 763.184C174.855 762.969 175.434 762.862 176.095 762.862C176.619 762.862 177.111 762.917 177.571 763.026C178.036 763.136 178.492 763.291 178.938 763.491L178.419 764.811C178.009 764.642 177.61 764.507 177.223 764.407C176.84 764.307 176.448 764.257 176.047 764.257C175.701 764.257 175.407 764.309 175.165 764.414C174.924 764.519 174.739 764.667 174.611 764.858C174.488 765.045 174.427 765.269 174.427 765.528C174.427 765.82 174.497 766.066 174.639 766.267C174.785 766.463 175.008 766.643 175.309 766.807C175.614 766.971 176.006 767.153 176.484 767.354C177.036 767.581 177.503 767.821 177.886 768.071C178.273 768.322 178.569 768.623 178.774 768.974C178.979 769.32 179.082 769.755 179.082 770.279ZM183.812 765.289C184.77 765.289 185.492 765.501 185.979 765.925C186.472 766.349 186.718 767.009 186.718 767.907V773H185.576L185.269 771.927H185.214C185 772.2 184.779 772.426 184.551 772.604C184.323 772.781 184.059 772.913 183.758 773C183.462 773.091 183.099 773.137 182.671 773.137C182.22 773.137 181.816 773.055 181.461 772.891C181.105 772.722 180.825 772.467 180.62 772.125C180.415 771.783 180.312 771.35 180.312 770.826C180.312 770.047 180.602 769.461 181.181 769.069C181.764 768.677 182.644 768.461 183.819 768.42L185.132 768.372V767.976C185.132 767.451 185.009 767.078 184.763 766.854C184.521 766.631 184.179 766.52 183.737 766.52C183.359 766.52 182.992 766.574 182.637 766.684C182.281 766.793 181.935 766.927 181.598 767.087L181.078 765.952C181.447 765.756 181.867 765.597 182.336 765.474C182.81 765.351 183.302 765.289 183.812 765.289ZM185.125 769.384L184.147 769.418C183.345 769.445 182.783 769.582 182.459 769.828C182.135 770.074 181.974 770.411 181.974 770.84C181.974 771.214 182.085 771.487 182.309 771.66C182.532 771.829 182.826 771.913 183.19 771.913C183.746 771.913 184.207 771.756 184.571 771.441C184.94 771.122 185.125 770.655 185.125 770.04V769.384ZM190.696 773L187.818 765.433H189.521L191.079 769.876C191.179 770.159 191.271 770.464 191.353 770.792C191.435 771.12 191.492 771.396 191.523 771.619H191.578C191.61 771.387 191.672 771.109 191.763 770.785C191.854 770.457 191.947 770.154 192.043 769.876L193.602 765.433H195.297L192.419 773H190.696ZM199.46 765.289C200.134 765.289 200.713 765.428 201.196 765.706C201.679 765.984 202.051 766.378 202.311 766.889C202.57 767.399 202.7 768.01 202.7 768.721V769.582H197.648C197.667 770.316 197.863 770.881 198.236 771.277C198.615 771.674 199.143 771.872 199.822 771.872C200.305 771.872 200.738 771.826 201.121 771.735C201.508 771.64 201.907 771.501 202.317 771.318V772.624C201.939 772.802 201.554 772.932 201.162 773.014C200.77 773.096 200.301 773.137 199.754 773.137C199.011 773.137 198.357 772.993 197.792 772.706C197.231 772.414 196.792 771.981 196.473 771.407C196.158 770.833 196.001 770.12 196.001 769.268C196.001 768.42 196.145 767.7 196.432 767.107C196.719 766.515 197.122 766.064 197.642 765.754C198.161 765.444 198.767 765.289 199.46 765.289ZM199.46 766.499C198.954 766.499 198.544 766.663 198.229 766.991C197.92 767.319 197.737 767.8 197.683 768.434H201.128C201.123 768.055 201.06 767.72 200.937 767.429C200.818 767.137 200.636 766.909 200.39 766.745C200.148 766.581 199.838 766.499 199.46 766.499Z" fill="white"/>
<path d="M41 42.75C41.4142 42.75 41.75 42.4142 41.75 42C41.75 41.5858 41.4142 41.25 41 41.25V42.75ZM22.2605 41.4697C21.9676 41.7626 21.9676 42.2374 22.2605 42.5303L27.0335 47.3033C27.3264 47.5962 27.8013 47.5962 28.0942 47.3033C28.3871 47.0104 28.3871 46.5355 28.0942 46.2426L23.8515 42L28.0942 37.7574C28.3871 37.4645 28.3871 36.9896 28.0942 36.6967C27.8013 36.4038 27.3264 36.4038 27.0335 36.6967L22.2605 41.4697ZM41 41.25H22.7909V42.75H41V41.25Z" fill="#087108"/>
<path d="M24.832 110.192C24.0107 110.192 23.2907 110.048 22.672 109.76C22.0533 109.472 21.568 109.061 21.216 108.528C20.8747 107.995 20.6987 107.36 20.688 106.624H22.48C22.4907 107.221 22.6987 107.728 23.104 108.144C23.5093 108.56 24.08 108.768 24.816 108.768C25.4667 108.768 25.9733 108.613 26.336 108.304C26.7093 107.984 26.896 107.579 26.896 107.088C26.896 106.693 26.8053 106.373 26.624 106.128C26.4533 105.883 26.2133 105.68 25.904 105.52C25.6053 105.36 25.2587 105.216 24.864 105.088C24.4693 104.96 24.0533 104.821 23.616 104.672C22.752 104.384 22.1013 104.011 21.664 103.552C21.2373 103.093 21.024 102.491 21.024 101.744C21.0133 101.115 21.1573 100.565 21.456 100.096C21.7653 99.6267 22.192 99.264 22.736 99.008C23.2907 98.7413 23.936 98.608 24.672 98.608C25.3973 98.608 26.032 98.7413 26.576 99.008C27.1307 99.2747 27.5627 99.648 27.872 100.128C28.1813 100.597 28.3413 101.147 28.352 101.776H26.56C26.56 101.488 26.4853 101.216 26.336 100.96C26.1867 100.693 25.968 100.475 25.68 100.304C25.392 100.133 25.04 100.048 24.624 100.048C24.0907 100.037 23.648 100.171 23.296 100.448C22.9547 100.725 22.784 101.109 22.784 101.6C22.784 102.037 22.912 102.373 23.168 102.608C23.424 102.843 23.776 103.04 24.224 103.2C24.672 103.349 25.184 103.525 25.76 103.728C26.3147 103.909 26.8107 104.128 27.248 104.384C27.6853 104.64 28.032 104.976 28.288 105.392C28.5547 105.808 28.688 106.336 28.688 106.976C28.688 107.541 28.544 108.069 28.256 108.56C27.968 109.04 27.536 109.435 26.96 109.744C26.384 110.043 25.6747 110.192 24.832 110.192ZM34.1903 110.192C33.4116 110.192 32.7183 110.021 32.1103 109.68C31.5129 109.328 31.0436 108.843 30.7023 108.224C30.3609 107.605 30.1903 106.885 30.1903 106.064C30.1903 105.232 30.3556 104.501 30.6863 103.872C31.0276 103.243 31.4969 102.752 32.0943 102.4C32.7023 102.048 33.4063 101.872 34.2063 101.872C34.9849 101.872 35.6623 102.048 36.2383 102.4C36.8143 102.741 37.2623 103.2 37.5823 103.776C37.9023 104.352 38.0623 104.987 38.0623 105.68C38.0623 105.787 38.0569 105.904 38.0463 106.032C38.0463 106.149 38.0409 106.283 38.0303 106.432H31.8543C31.9076 107.2 32.1583 107.787 32.6063 108.192C33.0649 108.587 33.5929 108.784 34.1903 108.784C34.6703 108.784 35.0703 108.677 35.3903 108.464C35.7209 108.24 35.9663 107.941 36.1263 107.568H37.8223C37.6089 108.315 37.1823 108.939 36.5423 109.44C35.9129 109.941 35.1289 110.192 34.1903 110.192ZM34.1903 103.264C33.6249 103.264 33.1236 103.435 32.6863 103.776C32.2489 104.107 31.9823 104.608 31.8863 105.28H36.3663C36.3343 104.661 36.1156 104.171 35.7103 103.808C35.3049 103.445 34.7983 103.264 34.1903 103.264ZM42.9469 110C42.1682 110 41.5495 109.813 41.0909 109.44C40.6322 109.056 40.4029 108.379 40.4029 107.408V103.488H39.0429V102.064H40.4029L40.6109 100.048H42.0989V102.064H44.3389V103.488H42.0989V107.408C42.0989 107.845 42.1895 108.149 42.3709 108.32C42.5629 108.48 42.8882 108.56 43.3469 108.56H44.2589V110H42.9469ZM49.4156 110C48.637 110 48.0183 109.813 47.5596 109.44C47.101 109.056 46.8716 108.379 46.8716 107.408V103.488H45.5116V102.064H46.8716L47.0796 100.048H48.5676V102.064H50.8076V103.488H48.5676V107.408C48.5676 107.845 48.6583 108.149 48.8396 108.32C49.0316 108.48 49.357 108.56 49.8156 108.56H50.7276V110H49.4156ZM53.5164 100.56C53.1964 100.56 52.9297 100.464 52.7164 100.272C52.5137 100.069 52.4124 99.8187 52.4124 99.52C52.4124 99.2213 52.5137 98.976 52.7164 98.784C52.9297 98.5813 53.1964 98.48 53.5164 98.48C53.8364 98.48 54.0977 98.5813 54.3004 98.784C54.5137 98.976 54.6204 99.2213 54.6204 99.52C54.6204 99.8187 54.5137 100.069 54.3004 100.272C54.0977 100.464 53.8364 100.56 53.5164 100.56ZM52.6684 110V102.064H54.3644V110H52.6684ZM56.6033 110V102.064H58.1073L58.2353 103.456C58.4806 102.965 58.8379 102.581 59.3073 102.304C59.7873 102.016 60.3366 101.872 60.9553 101.872C61.9153 101.872 62.6673 102.171 63.2113 102.768C63.7659 103.365 64.0433 104.256 64.0433 105.44V110H62.3633V105.616C62.3633 104.08 61.7339 103.312 60.4753 103.312C59.8459 103.312 59.3233 103.536 58.9073 103.984C58.5019 104.432 58.2993 105.072 58.2993 105.904V110H56.6033ZM69.2888 107.568C68.8728 107.568 68.4888 107.52 68.1368 107.424L67.4488 108.096C67.5661 108.171 67.7101 108.235 67.8808 108.288C68.0514 108.341 68.2914 108.389 68.6008 108.432C68.9101 108.475 69.3314 108.517 69.8648 108.56C70.9208 108.656 71.6834 108.912 72.1528 109.328C72.6221 109.733 72.8568 110.277 72.8568 110.96C72.8568 111.429 72.7288 111.872 72.4728 112.288C72.2274 112.715 71.8381 113.056 71.3048 113.312C70.7821 113.579 70.1101 113.712 69.2888 113.712C68.1794 113.712 67.2781 113.499 66.5848 113.072C65.9021 112.656 65.5608 112.021 65.5608 111.168C65.5608 110.837 65.6461 110.507 65.8168 110.176C65.9981 109.856 66.2808 109.552 66.6648 109.264C66.4408 109.168 66.2434 109.067 66.0728 108.96C65.9128 108.843 65.7688 108.725 65.6408 108.608V108.224L67.0168 106.816C66.3981 106.283 66.0888 105.584 66.0888 104.72C66.0888 104.197 66.2114 103.723 66.4568 103.296C66.7128 102.859 67.0808 102.512 67.5608 102.256C68.0408 102 68.6168 101.872 69.2888 101.872C69.7368 101.872 70.1528 101.936 70.5368 102.064H73.4968V103.184L72.0888 103.264C72.3448 103.701 72.4728 104.187 72.4728 104.72C72.4728 105.253 72.3448 105.733 72.0888 106.16C71.8434 106.587 71.4808 106.928 71.0008 107.184C70.5314 107.44 69.9608 107.568 69.2888 107.568ZM69.2888 106.24C69.7794 106.24 70.1741 106.112 70.4728 105.856C70.7821 105.589 70.9368 105.216 70.9368 104.736C70.9368 104.245 70.7821 103.872 70.4728 103.616C70.1741 103.36 69.7794 103.232 69.2888 103.232C68.7874 103.232 68.3821 103.36 68.0728 103.616C67.7741 103.872 67.6248 104.245 67.6248 104.736C67.6248 105.216 67.7741 105.589 68.0728 105.856C68.3821 106.112 68.7874 106.24 69.2888 106.24ZM67.1608 111.008C67.1608 111.467 67.3634 111.808 67.7688 112.032C68.1741 112.267 68.6808 112.384 69.2888 112.384C69.8754 112.384 70.3501 112.256 70.7128 112C71.0754 111.755 71.2568 111.424 71.2568 111.008C71.2568 110.699 71.1341 110.432 70.8888 110.208C70.6434 109.995 70.1794 109.861 69.4968 109.808C68.9848 109.776 68.5314 109.728 68.1368 109.664C67.7634 109.867 67.5074 110.085 67.3688 110.32C67.2301 110.555 67.1608 110.784 67.1608 111.008ZM78.1775 110.192C77.1748 110.192 76.3482 109.947 75.6975 109.456C75.0468 108.965 74.6735 108.315 74.5775 107.504H76.2895C76.3748 107.867 76.5775 108.181 76.8975 108.448C77.2175 108.704 77.6388 108.832 78.1615 108.832C78.6735 108.832 79.0468 108.725 79.2815 108.512C79.5162 108.299 79.6335 108.053 79.6335 107.776C79.6335 107.371 79.4682 107.099 79.1375 106.96C78.8175 106.811 78.3695 106.677 77.7935 106.56C77.3455 106.464 76.8975 106.336 76.4495 106.176C76.0122 106.016 75.6442 105.792 75.3455 105.504C75.0575 105.205 74.9135 104.805 74.9135 104.304C74.9135 103.611 75.1802 103.035 75.7135 102.576C76.2468 102.107 76.9935 101.872 77.9535 101.872C78.8388 101.872 79.5535 102.085 80.0975 102.512C80.6522 102.939 80.9775 103.541 81.0735 104.32H79.4415C79.3882 103.979 79.2282 103.712 78.9615 103.52C78.7055 103.328 78.3588 103.232 77.9215 103.232C77.4948 103.232 77.1642 103.323 76.9295 103.504C76.6948 103.675 76.5775 103.899 76.5775 104.176C76.5775 104.453 76.7375 104.672 77.0575 104.832C77.3882 104.992 77.8202 105.136 78.3535 105.264C78.8868 105.381 79.3775 105.52 79.8255 105.68C80.2842 105.829 80.6522 106.053 80.9295 106.352C81.2068 106.651 81.3455 107.088 81.3455 107.664C81.3562 108.389 81.0735 108.992 80.4975 109.472C79.9322 109.952 79.1588 110.192 78.1775 110.192Z" fill="#087108"/>
<path d="M0 510C0 506.686 2.68629 504 6 504H369C372.314 504 375 506.686 375 510V806C375 809.314 372.314 812 369 812H5.99999C2.68628 812 0 809.314 0 806V510Z" fill="white"/>
<g filter="url(#filter6_d_6_1991)">
<rect x="29" y="672" width="317" height="50" rx="6" fill="#087108"/>
</g>
<path d="M179.486 702V698.514L176.196 692.2H178.226L180.396 696.722L182.552 692.2H184.554L181.278 698.514V702H179.486ZM186.542 702V692.2H192.94V693.642H188.334V696.33H192.52V697.73H188.334V700.558H192.94V702H186.542ZM198.822 702.168C198.103 702.168 197.468 702.047 196.918 701.804C196.367 701.552 195.933 701.197 195.616 700.74C195.298 700.273 195.135 699.709 195.126 699.046H197.016C197.034 699.503 197.198 699.891 197.506 700.208C197.823 700.516 198.257 700.67 198.808 700.67C199.284 700.67 199.662 700.558 199.942 700.334C200.222 700.101 200.362 699.793 200.362 699.41C200.362 699.009 200.236 698.696 199.984 698.472C199.741 698.248 199.414 698.066 199.004 697.926C198.593 697.786 198.154 697.637 197.688 697.478C196.932 697.217 196.353 696.881 195.952 696.47C195.56 696.059 195.364 695.513 195.364 694.832C195.354 694.253 195.49 693.759 195.77 693.348C196.059 692.928 196.451 692.606 196.946 692.382C197.44 692.149 198.01 692.032 198.654 692.032C199.307 692.032 199.881 692.149 200.376 692.382C200.88 692.615 201.272 692.942 201.552 693.362C201.841 693.782 201.995 694.281 202.014 694.86H200.096C200.086 694.515 199.951 694.211 199.69 693.95C199.438 693.679 199.083 693.544 198.626 693.544C198.234 693.535 197.902 693.633 197.632 693.838C197.37 694.034 197.24 694.323 197.24 694.706C197.24 695.033 197.342 695.294 197.548 695.49C197.753 695.677 198.033 695.835 198.388 695.966C198.742 696.097 199.148 696.237 199.606 696.386C200.091 696.554 200.534 696.75 200.936 696.974C201.337 697.198 201.659 697.497 201.902 697.87C202.144 698.234 202.266 698.705 202.266 699.284C202.266 699.797 202.135 700.273 201.874 700.712C201.612 701.151 201.225 701.505 200.712 701.776C200.198 702.037 199.568 702.168 198.822 702.168Z" fill="white"/>
<rect x="29" y="732" width="317" height="50" rx="6" fill="#EEEEEE"/>
<path d="M172.39 762.168C171.401 762.168 170.551 761.958 169.842 761.538C169.133 761.109 168.587 760.516 168.204 759.76C167.821 758.995 167.63 758.113 167.63 757.114C167.63 756.115 167.821 755.233 168.204 754.468C168.587 753.703 169.133 753.105 169.842 752.676C170.551 752.247 171.401 752.032 172.39 752.032C173.566 752.032 174.527 752.326 175.274 752.914C176.03 753.493 176.501 754.309 176.688 755.364H174.714C174.593 754.832 174.331 754.417 173.93 754.118C173.538 753.81 173.015 753.656 172.362 753.656C171.457 753.656 170.747 753.964 170.234 754.58C169.721 755.196 169.464 756.041 169.464 757.114C169.464 758.187 169.721 759.032 170.234 759.648C170.747 760.255 171.457 760.558 172.362 760.558C173.015 760.558 173.538 760.418 173.93 760.138C174.331 759.849 174.593 759.452 174.714 758.948H176.688C176.501 759.956 176.03 760.745 175.274 761.314C174.527 761.883 173.566 762.168 172.39 762.168ZM178.361 762L181.945 752.2H183.961L187.545 762H185.641L184.857 759.732H181.035L180.237 762H178.361ZM181.525 758.332H184.367L182.939 754.258L181.525 758.332ZM189.648 762V752.2H191.44L196.046 759.102V752.2H197.838V762H196.046L191.44 755.112V762H189.648ZM205.015 762.168C204.026 762.168 203.177 761.958 202.467 761.538C201.758 761.109 201.212 760.516 200.829 759.76C200.447 758.995 200.255 758.113 200.255 757.114C200.255 756.115 200.447 755.233 200.829 754.468C201.212 753.703 201.758 753.105 202.467 752.676C203.177 752.247 204.026 752.032 205.015 752.032C206.191 752.032 207.153 752.326 207.899 752.914C208.655 753.493 209.127 754.309 209.313 755.364H207.339C207.218 754.832 206.957 754.417 206.555 754.118C206.163 753.81 205.641 753.656 204.987 753.656C204.082 753.656 203.373 753.964 202.859 754.58C202.346 755.196 202.089 756.041 202.089 757.114C202.089 758.187 202.346 759.032 202.859 759.648C203.373 760.255 204.082 760.558 204.987 760.558C205.641 760.558 206.163 760.418 206.555 760.138C206.957 759.849 207.218 759.452 207.339 758.948H209.313C209.127 759.956 208.655 760.745 207.899 761.314C207.153 761.883 206.191 762.168 205.015 762.168ZM211.74 762V752.2H218.138V753.642H213.532V756.33H217.718V757.73H213.532V760.558H218.138V762H211.74ZM220.673 762V752.2H222.465V760.6H226.805V762H220.673Z" fill="white"/>
<path d="M100.415 623L103.511 614.6H104.579L107.663 623H106.595L105.827 620.84H102.251L101.471 623H100.415ZM102.551 620.024H105.527L104.039 615.872L102.551 620.024ZM108.851 623V617.048H109.763L109.847 618.188C110.031 617.796 110.311 617.484 110.687 617.252C111.063 617.02 111.527 616.904 112.079 616.904V617.96H111.803C111.451 617.96 111.127 618.024 110.831 618.152C110.535 618.272 110.299 618.48 110.123 618.776C109.947 619.072 109.859 619.48 109.859 620V623H108.851ZM115.664 623.144C115.096 623.144 114.592 623.016 114.152 622.76C113.712 622.496 113.364 622.132 113.108 621.668C112.86 621.204 112.736 620.656 112.736 620.024C112.736 619.4 112.86 618.856 113.108 618.392C113.356 617.92 113.7 617.556 114.14 617.3C114.588 617.036 115.104 616.904 115.688 616.904C116.264 616.904 116.76 617.036 117.176 617.3C117.6 617.556 117.924 617.896 118.148 618.32C118.372 618.744 118.484 619.2 118.484 619.688C118.484 619.776 118.48 619.864 118.472 619.952C118.472 620.04 118.472 620.14 118.472 620.252H113.732C113.756 620.708 113.86 621.088 114.044 621.392C114.236 621.688 114.472 621.912 114.752 622.064C115.04 622.216 115.344 622.292 115.664 622.292C116.08 622.292 116.428 622.196 116.708 622.004C116.988 621.812 117.192 621.552 117.32 621.224H118.316C118.156 621.776 117.848 622.236 117.392 622.604C116.944 622.964 116.368 623.144 115.664 623.144ZM115.664 617.756C115.184 617.756 114.756 617.904 114.38 618.2C114.012 618.488 113.8 618.912 113.744 619.472H117.488C117.464 618.936 117.28 618.516 116.936 618.212C116.592 617.908 116.168 617.756 115.664 617.756ZM123.644 625.64L125.12 622.424H124.772L122.408 617.048H123.5L125.468 621.68L127.556 617.048H128.6L124.7 625.64H123.644ZM131.813 623.144C131.253 623.144 130.749 623.016 130.301 622.76C129.853 622.504 129.497 622.144 129.233 621.68C128.977 621.208 128.849 620.656 128.849 620.024C128.849 619.392 128.981 618.844 129.245 618.38C129.509 617.908 129.865 617.544 130.313 617.288C130.769 617.032 131.277 616.904 131.837 616.904C132.397 616.904 132.901 617.032 133.349 617.288C133.797 617.544 134.149 617.908 134.405 618.38C134.669 618.844 134.801 619.392 134.801 620.024C134.801 620.656 134.669 621.208 134.405 621.68C134.141 622.144 133.781 622.504 133.325 622.76C132.877 623.016 132.373 623.144 131.813 623.144ZM131.813 622.28C132.157 622.28 132.477 622.196 132.773 622.028C133.069 621.86 133.309 621.608 133.493 621.272C133.677 620.936 133.769 620.52 133.769 620.024C133.769 619.528 133.677 619.112 133.493 618.776C133.317 618.44 133.081 618.188 132.785 618.02C132.489 617.852 132.173 617.768 131.837 617.768C131.493 617.768 131.173 617.852 130.877 618.02C130.581 618.188 130.341 618.44 130.157 618.776C129.973 619.112 129.881 619.528 129.881 620.024C129.881 620.52 129.973 620.936 130.157 621.272C130.341 621.608 130.577 621.86 130.865 622.028C131.161 622.196 131.477 622.28 131.813 622.28ZM138.375 623.144C137.671 623.144 137.111 622.932 136.695 622.508C136.279 622.076 136.071 621.416 136.071 620.528V617.048H137.079V620.42C137.079 621.66 137.587 622.28 138.603 622.28C139.123 622.28 139.551 622.096 139.887 621.728C140.231 621.352 140.403 620.82 140.403 620.132V617.048H141.411V623H140.499L140.427 621.932C140.243 622.308 139.967 622.604 139.599 622.82C139.239 623.036 138.831 623.144 138.375 623.144ZM148.526 623.144C147.814 623.144 147.222 622.964 146.75 622.604C146.278 622.244 146.002 621.756 145.922 621.14H146.954C147.018 621.452 147.182 621.724 147.446 621.956C147.718 622.18 148.082 622.292 148.538 622.292C148.962 622.292 149.274 622.204 149.474 622.028C149.674 621.844 149.774 621.628 149.774 621.38C149.774 621.02 149.642 620.78 149.378 620.66C149.122 620.54 148.758 620.432 148.286 620.336C147.966 620.272 147.646 620.18 147.326 620.06C147.006 619.94 146.738 619.772 146.522 619.556C146.306 619.332 146.198 619.04 146.198 618.68C146.198 618.16 146.39 617.736 146.774 617.408C147.166 617.072 147.694 616.904 148.358 616.904C148.99 616.904 149.506 617.064 149.906 617.384C150.314 617.696 150.55 618.144 150.614 618.728H149.618C149.578 618.424 149.446 618.188 149.222 618.02C149.006 617.844 148.714 617.756 148.346 617.756C147.986 617.756 147.706 617.832 147.506 617.984C147.314 618.136 147.218 618.336 147.218 618.584C147.218 618.824 147.342 619.012 147.59 619.148C147.846 619.284 148.19 619.4 148.622 619.496C148.99 619.576 149.338 619.676 149.666 619.796C150.002 619.908 150.274 620.08 150.482 620.312C150.698 620.536 150.806 620.864 150.806 621.296C150.814 621.832 150.61 622.276 150.194 622.628C149.786 622.972 149.23 623.144 148.526 623.144ZM154.418 623.144C153.714 623.144 153.154 622.932 152.738 622.508C152.322 622.076 152.114 621.416 152.114 620.528V617.048H153.122V620.42C153.122 621.66 153.63 622.28 154.646 622.28C155.166 622.28 155.594 622.096 155.93 621.728C156.274 621.352 156.446 620.82 156.446 620.132V617.048H157.454V623H156.542L156.47 621.932C156.286 622.308 156.01 622.604 155.642 622.82C155.282 623.036 154.874 623.144 154.418 623.144ZM159.113 623V617.048H160.025L160.109 618.188C160.293 617.796 160.573 617.484 160.949 617.252C161.325 617.02 161.789 616.904 162.341 616.904V617.96H162.065C161.713 617.96 161.389 618.024 161.093 618.152C160.797 618.272 160.561 618.48 160.385 618.776C160.209 619.072 160.121 619.48 160.121 620V623H159.113ZM165.926 623.144C165.358 623.144 164.854 623.016 164.414 622.76C163.974 622.496 163.626 622.132 163.37 621.668C163.122 621.204 162.998 620.656 162.998 620.024C162.998 619.4 163.122 618.856 163.37 618.392C163.618 617.92 163.962 617.556 164.402 617.3C164.85 617.036 165.366 616.904 165.95 616.904C166.526 616.904 167.022 617.036 167.438 617.3C167.862 617.556 168.186 617.896 168.41 618.32C168.634 618.744 168.746 619.2 168.746 619.688C168.746 619.776 168.742 619.864 168.734 619.952C168.734 620.04 168.734 620.14 168.734 620.252H163.994C164.018 620.708 164.122 621.088 164.306 621.392C164.498 621.688 164.734 621.912 165.014 622.064C165.302 622.216 165.606 622.292 165.926 622.292C166.342 622.292 166.69 622.196 166.97 622.004C167.25 621.812 167.454 621.552 167.582 621.224H168.578C168.418 621.776 168.11 622.236 167.654 622.604C167.206 622.964 166.63 623.144 165.926 623.144ZM165.926 617.756C165.446 617.756 165.018 617.904 164.642 618.2C164.274 618.488 164.062 618.912 164.006 619.472H167.75C167.726 618.936 167.542 618.516 167.198 618.212C166.854 617.908 166.43 617.756 165.926 617.756ZM173.906 625.64L175.382 622.424H175.034L172.67 617.048H173.762L175.73 621.68L177.818 617.048H178.862L174.962 625.64H173.906ZM182.075 623.144C181.515 623.144 181.011 623.016 180.563 622.76C180.115 622.504 179.759 622.144 179.495 621.68C179.239 621.208 179.111 620.656 179.111 620.024C179.111 619.392 179.243 618.844 179.507 618.38C179.771 617.908 180.127 617.544 180.575 617.288C181.031 617.032 181.539 616.904 182.099 616.904C182.659 616.904 183.163 617.032 183.611 617.288C184.059 617.544 184.411 617.908 184.667 618.38C184.931 618.844 185.063 619.392 185.063 620.024C185.063 620.656 184.931 621.208 184.667 621.68C184.403 622.144 184.043 622.504 183.587 622.76C183.139 623.016 182.635 623.144 182.075 623.144ZM182.075 622.28C182.419 622.28 182.739 622.196 183.035 622.028C183.331 621.86 183.571 621.608 183.755 621.272C183.939 620.936 184.031 620.52 184.031 620.024C184.031 619.528 183.939 619.112 183.755 618.776C183.579 618.44 183.343 618.188 183.047 618.02C182.751 617.852 182.435 617.768 182.099 617.768C181.755 617.768 181.435 617.852 181.139 618.02C180.843 618.188 180.603 618.44 180.419 618.776C180.235 619.112 180.143 619.528 180.143 620.024C180.143 620.52 180.235 620.936 180.419 621.272C180.603 621.608 180.839 621.86 181.127 622.028C181.423 622.196 181.739 622.28 182.075 622.28ZM188.637 623.144C187.933 623.144 187.373 622.932 186.957 622.508C186.541 622.076 186.333 621.416 186.333 620.528V617.048H187.341V620.42C187.341 621.66 187.849 622.28 188.865 622.28C189.385 622.28 189.813 622.096 190.149 621.728C190.493 621.352 190.665 620.82 190.665 620.132V617.048H191.673V623H190.761L190.689 621.932C190.505 622.308 190.229 622.604 189.861 622.82C189.501 623.036 189.093 623.144 188.637 623.144ZM197.708 623L195.968 617.048H196.976L198.236 621.716L199.628 617.048H200.768L202.172 621.716L203.42 617.048H204.44L202.7 623H201.668L200.204 618.092L198.74 623H197.708ZM207.324 623.144C206.828 623.144 206.416 623.06 206.088 622.892C205.76 622.724 205.516 622.5 205.356 622.22C205.196 621.94 205.116 621.636 205.116 621.308C205.116 620.7 205.348 620.232 205.812 619.904C206.276 619.576 206.908 619.412 207.708 619.412H209.316V619.34C209.316 618.82 209.18 618.428 208.908 618.164C208.636 617.892 208.272 617.756 207.816 617.756C207.424 617.756 207.084 617.856 206.796 618.056C206.516 618.248 206.34 618.532 206.268 618.908H205.236C205.276 618.476 205.42 618.112 205.668 617.816C205.924 617.52 206.24 617.296 206.616 617.144C206.992 616.984 207.392 616.904 207.816 616.904C208.648 616.904 209.272 617.128 209.688 617.576C210.112 618.016 210.324 618.604 210.324 619.34V623H209.424L209.364 621.932C209.196 622.268 208.948 622.556 208.62 622.796C208.3 623.028 207.868 623.144 207.324 623.144ZM207.48 622.292C207.864 622.292 208.192 622.192 208.464 621.992C208.744 621.792 208.956 621.532 209.1 621.212C209.244 620.892 209.316 620.556 209.316 620.204V620.192H207.792C207.2 620.192 206.78 620.296 206.532 620.504C206.292 620.704 206.172 620.956 206.172 621.26C206.172 621.572 206.284 621.824 206.508 622.016C206.74 622.2 207.064 622.292 207.48 622.292ZM211.836 623V617.048H212.748L212.808 618.116C213 617.74 213.276 617.444 213.636 617.228C213.996 617.012 214.404 616.904 214.86 616.904C215.564 616.904 216.124 617.12 216.54 617.552C216.964 617.976 217.176 618.632 217.176 619.52V623H216.168V619.628C216.168 618.388 215.656 617.768 214.632 617.768C214.12 617.768 213.692 617.956 213.348 618.332C213.012 618.7 212.844 619.228 212.844 619.916V623H211.836ZM221.055 623C220.511 623 220.083 622.868 219.771 622.604C219.459 622.34 219.303 621.864 219.303 621.176V617.9H218.271V617.048H219.303L219.435 615.62H220.311V617.048H222.063V617.9H220.311V621.176C220.311 621.552 220.387 621.808 220.539 621.944C220.691 622.072 220.959 622.136 221.343 622.136H221.967V623H221.055ZM228.871 623C228.327 623 227.899 622.868 227.587 622.604C227.275 622.34 227.119 621.864 227.119 621.176V617.9H226.087V617.048H227.119L227.251 615.62H228.127V617.048H229.879V617.9H228.127V621.176C228.127 621.552 228.203 621.808 228.355 621.944C228.507 622.072 228.775 622.136 229.159 622.136H229.783V623H228.871ZM233.708 623.144C233.148 623.144 232.644 623.016 232.196 622.76C231.748 622.504 231.392 622.144 231.128 621.68C230.872 621.208 230.744 620.656 230.744 620.024C230.744 619.392 230.876 618.844 231.14 618.38C231.404 617.908 231.76 617.544 232.208 617.288C232.664 617.032 233.172 616.904 233.732 616.904C234.292 616.904 234.796 617.032 235.244 617.288C235.692 617.544 236.044 617.908 236.3 618.38C236.564 618.844 236.696 619.392 236.696 620.024C236.696 620.656 236.564 621.208 236.3 621.68C236.036 622.144 235.676 622.504 235.22 622.76C234.772 623.016 234.268 623.144 233.708 623.144ZM233.708 622.28C234.052 622.28 234.372 622.196 234.668 622.028C234.964 621.86 235.204 621.608 235.388 621.272C235.572 620.936 235.664 620.52 235.664 620.024C235.664 619.528 235.572 619.112 235.388 618.776C235.212 618.44 234.976 618.188 234.68 618.02C234.384 617.852 234.068 617.768 233.732 617.768C233.388 617.768 233.068 617.852 232.772 618.02C232.476 618.188 232.236 618.44 232.052 618.776C231.868 619.112 231.776 619.528 231.776 620.024C231.776 620.52 231.868 620.936 232.052 621.272C232.236 621.608 232.472 621.86 232.76 622.028C233.056 622.196 233.372 622.28 233.708 622.28ZM241.273 623V614.36H242.281V623H241.273ZM246.609 623.144C246.041 623.144 245.537 623.016 245.097 622.76C244.657 622.496 244.309 622.132 244.053 621.668C243.805 621.204 243.681 620.656 243.681 620.024C243.681 619.4 243.805 618.856 244.053 618.392C244.301 617.92 244.645 617.556 245.085 617.3C245.533 617.036 246.049 616.904 246.633 616.904C247.209 616.904 247.705 617.036 248.121 617.3C248.545 617.556 248.869 617.896 249.093 618.32C249.317 618.744 249.429 619.2 249.429 619.688C249.429 619.776 249.425 619.864 249.417 619.952C249.417 620.04 249.417 620.14 249.417 620.252H244.677C244.701 620.708 244.805 621.088 244.989 621.392C245.181 621.688 245.417 621.912 245.697 622.064C245.985 622.216 246.289 622.292 246.609 622.292C247.025 622.292 247.373 622.196 247.653 622.004C247.933 621.812 248.137 621.552 248.265 621.224H249.261C249.101 621.776 248.793 622.236 248.337 622.604C247.889 622.964 247.313 623.144 246.609 623.144ZM246.609 617.756C246.129 617.756 245.701 617.904 245.325 618.2C244.957 618.488 244.745 618.912 244.689 619.472H248.433C248.409 618.936 248.225 618.516 247.881 618.212C247.537 617.908 247.113 617.756 246.609 617.756ZM252.746 623.144C252.25 623.144 251.838 623.06 251.51 622.892C251.182 622.724 250.938 622.5 250.778 622.22C250.618 621.94 250.538 621.636 250.538 621.308C250.538 620.7 250.77 620.232 251.234 619.904C251.698 619.576 252.33 619.412 253.13 619.412H254.738V619.34C254.738 618.82 254.602 618.428 254.33 618.164C254.058 617.892 253.694 617.756 253.238 617.756C252.846 617.756 252.506 617.856 252.218 618.056C251.938 618.248 251.762 618.532 251.69 618.908H250.658C250.698 618.476 250.842 618.112 251.09 617.816C251.346 617.52 251.662 617.296 252.038 617.144C252.414 616.984 252.814 616.904 253.238 616.904C254.07 616.904 254.694 617.128 255.11 617.576C255.534 618.016 255.746 618.604 255.746 619.34V623H254.846L254.786 621.932C254.618 622.268 254.37 622.556 254.042 622.796C253.722 623.028 253.29 623.144 252.746 623.144ZM252.902 622.292C253.286 622.292 253.614 622.192 253.886 621.992C254.166 621.792 254.378 621.532 254.522 621.212C254.666 620.892 254.738 620.556 254.738 620.204V620.192H253.214C252.622 620.192 252.202 620.296 251.954 620.504C251.714 620.704 251.594 620.956 251.594 621.26C251.594 621.572 251.706 621.824 251.93 622.016C252.162 622.2 252.486 622.292 252.902 622.292ZM258.751 623L256.495 617.048H257.551L259.339 622.028L261.139 617.048H262.171L259.915 623H258.751ZM265.664 623.144C265.096 623.144 264.592 623.016 264.152 622.76C263.712 622.496 263.364 622.132 263.108 621.668C262.86 621.204 262.736 620.656 262.736 620.024C262.736 619.4 262.86 618.856 263.108 618.392C263.356 617.92 263.7 617.556 264.14 617.3C264.588 617.036 265.104 616.904 265.688 616.904C266.264 616.904 266.76 617.036 267.176 617.3C267.6 617.556 267.924 617.896 268.148 618.32C268.372 618.744 268.484 619.2 268.484 619.688C268.484 619.776 268.48 619.864 268.472 619.952C268.472 620.04 268.472 620.14 268.472 620.252H263.732C263.756 620.708 263.86 621.088 264.044 621.392C264.236 621.688 264.472 621.912 264.752 622.064C265.04 622.216 265.344 622.292 265.664 622.292C266.08 622.292 266.428 622.196 266.708 622.004C266.988 621.812 267.192 621.552 267.32 621.224H268.316C268.156 621.776 267.848 622.236 267.392 622.604C266.944 622.964 266.368 623.144 265.664 623.144ZM265.664 617.756C265.184 617.756 264.756 617.904 264.38 618.2C264.012 618.488 263.8 618.912 263.744 619.472H267.488C267.464 618.936 267.28 618.516 266.936 618.212C266.592 617.908 266.168 617.756 265.664 617.756ZM270.57 620.648L270.522 618.716H270.894C271.342 618.716 271.758 618.672 272.142 618.584C272.534 618.496 272.85 618.324 273.09 618.068C273.33 617.812 273.45 617.428 273.45 616.916C273.45 616.42 273.294 616.028 272.982 615.74C272.678 615.452 272.274 615.308 271.77 615.308C271.258 615.308 270.854 615.448 270.558 615.728C270.262 616.008 270.114 616.384 270.114 616.856H269.154C269.154 616.376 269.262 615.956 269.478 615.596C269.702 615.236 270.01 614.956 270.402 614.756C270.794 614.556 271.25 614.456 271.77 614.456C272.29 614.456 272.75 614.556 273.15 614.756C273.55 614.956 273.862 615.24 274.086 615.608C274.31 615.976 274.422 616.412 274.422 616.916C274.422 617.508 274.294 617.988 274.038 618.356C273.79 618.724 273.442 618.992 272.994 619.16C272.554 619.328 272.05 619.412 271.482 619.412L271.446 620.648H270.57ZM271.002 623.06C270.802 623.06 270.634 622.996 270.498 622.868C270.37 622.732 270.306 622.568 270.306 622.376C270.306 622.184 270.37 622.024 270.498 621.896C270.634 621.76 270.802 621.692 271.002 621.692C271.202 621.692 271.366 621.76 271.494 621.896C271.622 622.024 271.686 622.184 271.686 622.376C271.686 622.568 271.622 622.732 271.494 622.868C271.366 622.996 271.202 623.06 271.002 623.06Z" fill="#087108"/>
<path d="M159.088 595V583.8H161.136V593.4H166.096V595H159.088ZM171.301 595.192C170.533 595.192 169.84 595.016 169.221 594.664C168.613 594.312 168.128 593.827 167.765 593.208C167.413 592.579 167.237 591.853 167.237 591.032C167.237 590.211 167.418 589.491 167.781 588.872C168.144 588.243 168.629 587.752 169.237 587.4C169.856 587.048 170.549 586.872 171.317 586.872C172.074 586.872 172.757 587.048 173.365 587.4C173.984 587.752 174.469 588.243 174.821 588.872C175.184 589.491 175.365 590.211 175.365 591.032C175.365 591.853 175.184 592.579 174.821 593.208C174.469 593.827 173.984 594.312 173.365 594.664C172.746 595.016 172.058 595.192 171.301 595.192ZM171.301 593.416C171.834 593.416 172.298 593.219 172.693 592.824C173.088 592.419 173.285 591.821 173.285 591.032C173.285 590.243 173.088 589.651 172.693 589.256C172.298 588.851 171.84 588.648 171.317 588.648C170.773 588.648 170.304 588.851 169.909 589.256C169.525 589.651 169.333 590.243 169.333 591.032C169.333 591.821 169.525 592.419 169.909 592.824C170.304 593.219 170.768 593.416 171.301 593.416ZM180.056 592.632C179.672 592.632 179.315 592.589 178.984 592.504L178.392 593.096C178.574 593.192 178.819 593.272 179.128 593.336C179.438 593.4 179.939 593.464 180.632 593.528C181.688 593.624 182.456 593.875 182.936 594.28C183.416 594.685 183.656 595.245 183.656 595.96C183.656 596.429 183.528 596.872 183.272 597.288C183.016 597.715 182.622 598.056 182.088 598.312C181.555 598.579 180.872 598.712 180.04 598.712C178.91 598.712 177.998 598.499 177.304 598.072C176.611 597.656 176.264 597.027 176.264 596.184C176.264 595.469 176.611 594.851 177.304 594.328C177.091 594.232 176.904 594.131 176.744 594.024C176.595 593.917 176.462 593.805 176.344 593.688V593.32L177.736 591.848C177.118 591.304 176.808 590.605 176.808 589.752C176.808 589.219 176.936 588.733 177.192 588.296C177.459 587.859 177.832 587.512 178.312 587.256C178.792 587 179.374 586.872 180.056 586.872C180.504 586.872 180.92 586.936 181.304 587.064H184.312V588.312L182.952 588.408C183.166 588.813 183.272 589.261 183.272 589.752C183.272 590.285 183.144 590.771 182.888 591.208C182.632 591.645 182.259 591.992 181.768 592.248C181.288 592.504 180.718 592.632 180.056 592.632ZM180.056 591.064C180.472 591.064 180.814 590.952 181.08 590.728C181.358 590.504 181.496 590.184 181.496 589.768C181.496 589.352 181.358 589.032 181.08 588.808C180.814 588.584 180.472 588.472 180.056 588.472C179.619 588.472 179.267 588.584 179 588.808C178.734 589.032 178.6 589.352 178.6 589.768C178.6 590.184 178.734 590.504 179 590.728C179.267 590.952 179.619 591.064 180.056 591.064ZM178.136 595.976C178.136 596.371 178.318 596.664 178.68 596.856C179.054 597.059 179.507 597.16 180.04 597.16C180.552 597.16 180.968 597.053 181.288 596.84C181.608 596.637 181.768 596.36 181.768 596.008C181.768 595.72 181.662 595.48 181.448 595.288C181.246 595.096 180.835 594.979 180.216 594.936C179.779 594.904 179.374 594.856 179 594.792C178.691 594.963 178.467 595.149 178.328 595.352C178.2 595.555 178.136 595.763 178.136 595.976ZM193.426 595.192C192.658 595.192 191.965 595.016 191.346 594.664C190.738 594.312 190.253 593.827 189.89 593.208C189.538 592.579 189.362 591.853 189.362 591.032C189.362 590.211 189.543 589.491 189.906 588.872C190.269 588.243 190.754 587.752 191.362 587.4C191.981 587.048 192.674 586.872 193.442 586.872C194.199 586.872 194.882 587.048 195.49 587.4C196.109 587.752 196.594 588.243 196.946 588.872C197.309 589.491 197.49 590.211 197.49 591.032C197.49 591.853 197.309 592.579 196.946 593.208C196.594 593.827 196.109 594.312 195.49 594.664C194.871 595.016 194.183 595.192 193.426 595.192ZM193.426 593.416C193.959 593.416 194.423 593.219 194.818 592.824C195.213 592.419 195.41 591.821 195.41 591.032C195.41 590.243 195.213 589.651 194.818 589.256C194.423 588.851 193.965 588.648 193.442 588.648C192.898 588.648 192.429 588.851 192.034 589.256C191.65 589.651 191.458 590.243 191.458 591.032C191.458 591.821 191.65 592.419 192.034 592.824C192.429 593.219 192.893 593.416 193.426 593.416ZM202.297 595.192C201.305 595.192 200.537 594.883 199.993 594.264C199.46 593.645 199.193 592.739 199.193 591.544V587.064H201.225V591.352C201.225 592.035 201.364 592.557 201.641 592.92C201.919 593.283 202.356 593.464 202.953 593.464C203.519 593.464 203.983 593.261 204.345 592.856C204.719 592.451 204.905 591.885 204.905 591.16V587.064H206.953V595H205.145L204.985 593.656C204.74 594.125 204.383 594.499 203.913 594.776C203.455 595.053 202.916 595.192 202.297 595.192ZM212.592 595C211.76 595 211.093 594.797 210.592 594.392C210.09 593.987 209.84 593.267 209.84 592.232V588.776H208.48V587.064H209.84L210.08 584.936H211.888V587.064H214.032V588.776H211.888V592.248C211.888 592.632 211.968 592.899 212.128 593.048C212.298 593.187 212.586 593.256 212.992 593.256H213.984V595H212.592Z" fill="#0B373D"/>
<path d="M173 529H203" stroke="#087108" stroke-width="4" stroke-linecap="round"/>
</g>
<defs>
<filter id="filter0_d_6_1991" x="-42" y="83" width="459" height="174" filterUnits="userSpaceOnUse" color-interpolation-filters="sRGB">
<feFlood flood-opacity="0" result="BackgroundImageFix"/>
<feColorMatrix in="SourceAlpha" type="matrix" values="0 0 0 0 0 0 0 0 0 0 0 0 0 0 0 0 0 0 127 0" result="hardAlpha"/>
<feOffset dy="4"/>
<feGaussianBlur stdDeviation="31"/>
<feComposite in2="hardAlpha" operator="out"/>
<feColorMatrix type="matrix" values="0 0 0 0 0.600625 0 0 0 0 0.670375 0 0 0 0 0.775 0 0 0 0.18 0"/>
<feBlend mode="normal" in2="BackgroundImageFix" result="effect1_dropShadow_6_1991"/>
<feBlend mode="normal" in="SourceGraphic" in2="effect1_dropShadow_6_1991" result="shape"/>
</filter>
<filter id="filter1_d_6_1991" x="235" y="99" width="162" height="143" filterUnits="userSpaceOnUse" color-interpolation-filters="sRGB">
<feFlood flood-opacity="0" result="BackgroundImageFix"/>
<feColorMatrix in="SourceAlpha" type="matrix" values="0 0 0 0 0 0 0 0 0 0 0 0 0 0 0 0 0 0 127 0" result="hardAlpha"/>
<feOffset dy="4"/>
<feGaussianBlur stdDeviation="31"/>
<feComposite in2="hardAlpha" operator="out"/>
<feColorMatrix type="matrix" values="0 0 0 0 0.600625 0 0 0 0 0.670375 0 0 0 0 0.775 0 0 0 0.18 0"/>
<feBlend mode="normal" in2="BackgroundImageFix" result="effect1_dropShadow_6_1991"/>
<feBlend mode="normal" in="SourceGraphic" in2="effect1_dropShadow_6_1991" result="shape"/>
</filter>
<filter id="filter2_d_6_1991" x="-42" y="143" width="459" height="174" filterUnits="userSpaceOnUse" color-interpolation-filters="sRGB">
<feFlood flood-opacity="0" result="BackgroundImageFix"/>
<feColorMatrix in="SourceAlpha" type="matrix" values="0 0 0 0 0 0 0 0 0 0 0 0 0 0 0 0 0 0 127 0" result="hardAlpha"/>
<feOffset dy="4"/>
<feGaussianBlur stdDeviation="31"/>
<feComposite in2="hardAlpha" operator="out"/>
<feColorMatrix type="matrix" values="0 0 0 0 0.600625 0 0 0 0 0.670375 0 0 0 0 0.775 0 0 0 0.18 0"/>
<feBlend mode="normal" in2="BackgroundImageFix" result="effect1_dropShadow_6_1991"/>
<feBlend mode="normal" in="SourceGraphic" in2="effect1_dropShadow_6_1991" result="shape"/>
</filter>
<filter id="filter3_d_6_1991" x="235" y="159" width="162" height="143" filterUnits="userSpaceOnUse" color-interpolation-filters="sRGB">
<feFlood flood-opacity="0" result="BackgroundImageFix"/>
<feColorMatrix in="SourceAlpha" type="matrix" values="0 0 0 0 0 0 0 0 0 0 0 0 0 0 0 0 0 0 127 0" result="hardAlpha"/>
<feOffset dy="4"/>
<feGaussianBlur stdDeviation="31"/>
<feComposite in2="hardAlpha" operator="out"/>
<feColorMatrix type="matrix" values="0 0 0 0 0.600625 0 0 0 0 0.670375 0 0 0 0 0.775 0 0 0 0.18 0"/>
<feBlend mode="normal" in2="BackgroundImageFix" result="effect1_dropShadow_6_1991"/>
<feBlend mode="normal" in="SourceGraphic" in2="effect1_dropShadow_6_1991" result="shape"/>
</filter>
<filter id="filter4_d_6_1991" x="-42" y="203" width="459" height="174" filterUnits="userSpaceOnUse" color-interpolation-filters="sRGB">
<feFlood flood-opacity="0" result="BackgroundImageFix"/>
<feColorMatrix in="SourceAlpha" type="matrix" values="0 0 0 0 0 0 0 0 0 0 0 0 0 0 0 0 0 0 127 0" result="hardAlpha"/>
<feOffset dy="4"/>
<feGaussianBlur stdDeviation="31"/>
<feComposite in2="hardAlpha" operator="out"/>
<feColorMatrix type="matrix" values="0 0 0 0 0.600625 0 0 0 0 0.670375 0 0 0 0 0.775 0 0 0 0.18 0"/>
<feBlend mode="normal" in2="BackgroundImageFix" result="effect1_dropShadow_6_1991"/>
<feBlend mode="normal" in="SourceGraphic" in2="effect1_dropShadow_6_1991" result="shape"/>
</filter>
<filter id="filter5_d_6_1991" x="-42" y="263" width="459" height="174" filterUnits="userSpaceOnUse" color-interpolation-filters="sRGB">
<feFlood flood-opacity="0" result="BackgroundImageFix"/>
<feColorMatrix in="SourceAlpha" type="matrix" values="0 0 0 0 0 0 0 0 0 0 0 0 0 0 0 0 0 0 127 0" result="hardAlpha"/>
<feOffset dy="4"/>
<feGaussianBlur stdDeviation="31"/>
<feComposite in2="hardAlpha" operator="out"/>
<feColorMatrix type="matrix" values="0 0 0 0 0.600625 0 0 0 0 0.670375 0 0 0 0 0.775 0 0 0 0.18 0"/>
<feBlend mode="normal" in2="BackgroundImageFix" result="effect1_dropShadow_6_1991"/>
<feBlend mode="normal" in="SourceGraphic" in2="effect1_dropShadow_6_1991" result="shape"/>
</filter>
<filter id="filter6_d_6_1991" x="-33" y="614" width="441" height="174" filterUnits="userSpaceOnUse" color-interpolation-filters="sRGB">
<feFlood flood-opacity="0" result="BackgroundImageFix"/>
<feColorMatrix in="SourceAlpha" type="matrix" values="0 0 0 0 0 0 0 0 0 0 0 0 0 0 0 0 0 0 127 0" result="hardAlpha"/>
<feOffset dy="4"/>
<feGaussianBlur stdDeviation="31"/>
<feComposite in2="hardAlpha" operator="out"/>
<feColorMatrix type="matrix" values="0 0 0 0 0.600625 0 0 0 0 0.670375 0 0 0 0 0.775 0 0 0 0.18 0"/>
<feBlend mode="normal" in2="BackgroundImageFix" result="effect1_dropShadow_6_1991"/>
<feBlend mode="normal" in="SourceGraphic" in2="effect1_dropShadow_6_1991" result="shape"/>
</filter>
<clipPath id="clip0_6_1991">
<rect width="375" height="812" fill="white"/>
</clipPath>
</defs>
</svg>
