<svg width="375" height="812" viewBox="0 0 375 812" fill="none" xmlns="http://www.w3.org/2000/svg">
<rect width="375" height="812" fill="#087108"/>
<path d="M48.96 421V392.6H54.48V416.16H68.96V421H48.96ZM79.9231 421.4C78.2165 421.4 76.6831 421.12 75.3231 420.56C73.9631 419.973 72.8031 419.173 71.8431 418.16C70.9098 417.147 70.1898 415.987 69.6831 414.68C69.1765 413.373 68.9231 412 68.9231 410.56C68.9231 409.093 69.1765 407.707 69.6831 406.4C70.1898 405.093 70.9098 403.933 71.8431 402.92C72.8031 401.907 73.9631 401.12 75.3231 400.56C76.6831 399.973 78.2165 399.68 79.9231 399.68C81.6298 399.68 83.1498 399.973 84.4831 400.56C85.8431 401.12 87.0031 401.907 87.9631 402.92C88.9231 403.933 89.6431 405.093 90.1231 406.4C90.6298 407.707 90.8831 409.093 90.8831 410.56C90.8831 412 90.6298 413.373 90.1231 414.68C89.6431 415.987 88.9231 417.147 87.9631 418.16C87.0298 419.173 85.8831 419.973 84.5231 420.56C83.1631 421.12 81.6298 421.4 79.9231 421.4ZM74.4431 410.56C74.4431 411.787 74.6831 412.88 75.1631 413.84C75.6431 414.773 76.2965 415.507 77.1231 416.04C77.9498 416.573 78.8831 416.84 79.9231 416.84C80.9365 416.84 81.8565 416.573 82.6831 416.04C83.5098 415.48 84.1631 414.733 84.6431 413.8C85.1498 412.84 85.4031 411.747 85.4031 410.52C85.4031 409.32 85.1498 408.24 84.6431 407.28C84.1631 406.32 83.5098 405.573 82.6831 405.04C81.8565 404.507 80.9365 404.24 79.9231 404.24C78.8831 404.24 77.9498 404.52 77.1231 405.08C76.2965 405.613 75.6431 406.36 75.1631 407.32C74.6831 408.253 74.4431 409.333 74.4431 410.56ZM102.861 421.4C101.154 421.4 99.6209 421.12 98.2609 420.56C96.9009 419.973 95.7409 419.173 94.7809 418.16C93.8209 417.12 93.0743 415.947 92.5409 414.64C92.0343 413.333 91.7809 411.96 91.7809 410.52C91.7809 408.547 92.2209 406.747 93.1009 405.12C94.0076 403.467 95.2876 402.147 96.9409 401.16C98.5943 400.173 100.554 399.68 102.821 399.68C105.088 399.68 107.034 400.173 108.661 401.16C110.288 402.147 111.501 403.44 112.301 405.04L107.061 406.64C106.608 405.867 106.008 405.28 105.261 404.88C104.514 404.453 103.688 404.24 102.781 404.24C101.768 404.24 100.834 404.507 99.9809 405.04C99.1543 405.547 98.5009 406.28 98.0209 407.24C97.5409 408.173 97.3009 409.267 97.3009 410.52C97.3009 411.747 97.5409 412.84 98.0209 413.8C98.5276 414.733 99.1943 415.48 100.021 416.04C100.848 416.573 101.768 416.84 102.781 416.84C103.421 416.84 104.021 416.733 104.581 416.52C105.168 416.307 105.688 416.013 106.141 415.64C106.594 415.267 106.928 414.84 107.141 414.36L112.381 415.96C111.901 417 111.194 417.933 110.261 418.76C109.354 419.587 108.274 420.24 107.021 420.72C105.794 421.173 104.408 421.4 102.861 421.4ZM114.079 413.16V400.04H119.439V412C119.439 413.6 119.732 414.813 120.319 415.64C120.906 416.44 121.772 416.84 122.919 416.84C123.612 416.84 124.292 416.707 124.959 416.44C125.652 416.147 126.279 415.72 126.839 415.16C127.426 414.6 127.919 413.893 128.319 413.04V400.04H133.679V415C133.679 415.56 133.772 415.96 133.959 416.2C134.172 416.44 134.506 416.587 134.959 416.64V421C134.426 421.08 133.972 421.133 133.599 421.16C133.252 421.213 132.932 421.24 132.639 421.24C131.679 421.24 130.892 421.027 130.279 420.6C129.692 420.147 129.346 419.533 129.239 418.76L129.119 417.08C128.186 418.493 126.986 419.573 125.519 420.32C124.052 421.04 122.439 421.4 120.679 421.4C118.519 421.4 116.879 420.707 115.759 419.32C114.639 417.907 114.079 415.853 114.079 413.16ZM170.166 421H164.806V409.24C164.806 407.587 164.512 406.373 163.926 405.6C163.366 404.8 162.579 404.4 161.566 404.4C160.526 404.4 159.526 404.813 158.566 405.64C157.632 406.44 156.966 407.493 156.566 408.8V421H151.206V409.24C151.206 407.56 150.912 406.333 150.326 405.56C149.766 404.787 148.979 404.4 147.966 404.4C146.926 404.4 145.926 404.8 144.966 405.6C144.032 406.4 143.366 407.453 142.966 408.76V421H137.606V400.04H142.446V403.92C143.246 402.56 144.312 401.52 145.646 400.8C146.979 400.053 148.512 399.68 150.246 399.68C151.979 399.68 153.326 400.107 154.286 400.96C155.272 401.813 155.899 402.867 156.166 404.12C157.019 402.68 158.099 401.587 159.406 400.84C160.739 400.067 162.232 399.68 163.886 399.68C165.192 399.68 166.246 399.92 167.046 400.4C167.872 400.853 168.512 401.48 168.966 402.28C169.419 403.053 169.726 403.933 169.886 404.92C170.072 405.907 170.166 406.907 170.166 407.92V421ZM173.874 421V392.6H192.954V397.44H179.394V404.76H190.674V409.24H179.394V421H173.874ZM194.923 421V400.04H200.283V421H194.923ZM194.923 397.12V391.8H200.283V397.12H194.923ZM223.198 421H217.838V409.24C217.838 407.56 217.545 406.333 216.958 405.56C216.371 404.787 215.558 404.4 214.518 404.4C213.798 404.4 213.065 404.587 212.318 404.96C211.598 405.333 210.945 405.853 210.358 406.52C209.771 407.16 209.345 407.907 209.078 408.76V421H203.718V400.04H208.558V403.92C209.091 403.013 209.771 402.253 210.598 401.64C211.425 401 212.371 400.52 213.438 400.2C214.531 399.853 215.678 399.68 216.878 399.68C218.185 399.68 219.251 399.92 220.078 400.4C220.931 400.853 221.571 401.48 221.998 402.28C222.451 403.053 222.758 403.933 222.918 404.92C223.105 405.907 223.198 406.907 223.198 407.92V421ZM225.179 410.52C225.179 408.493 225.579 406.667 226.379 405.04C227.179 403.387 228.285 402.08 229.699 401.12C231.112 400.16 232.725 399.68 234.539 399.68C236.085 399.68 237.472 400.067 238.699 400.84C239.952 401.587 240.925 402.547 241.619 403.72V391.8H246.979V415C246.979 415.56 247.072 415.96 247.259 416.2C247.445 416.44 247.765 416.587 248.219 416.64V421C247.285 421.187 246.525 421.28 245.939 421.28C244.979 421.28 244.179 421.04 243.539 420.56C242.925 420.08 242.579 419.453 242.499 418.68L242.419 417.36C241.645 418.667 240.592 419.667 239.259 420.36C237.952 421.053 236.579 421.4 235.139 421.4C233.699 421.4 232.365 421.12 231.139 420.56C229.939 420 228.885 419.227 227.979 418.24C227.099 417.253 226.405 416.107 225.899 414.8C225.419 413.467 225.179 412.04 225.179 410.52ZM241.619 413.32V408.32C241.352 407.547 240.925 406.853 240.339 406.24C239.752 405.627 239.099 405.147 238.379 404.8C237.659 404.427 236.939 404.24 236.219 404.24C235.392 404.24 234.645 404.413 233.979 404.76C233.312 405.107 232.725 405.573 232.219 406.16C231.739 406.747 231.365 407.427 231.099 408.2C230.859 408.973 230.739 409.787 230.739 410.64C230.739 411.493 230.872 412.307 231.139 413.08C231.432 413.827 231.845 414.48 232.379 415.04C232.912 415.6 233.525 416.04 234.219 416.36C234.939 416.68 235.712 416.84 236.539 416.84C237.045 416.84 237.552 416.76 238.059 416.6C238.592 416.413 239.085 416.173 239.539 415.88C240.019 415.56 240.432 415.187 240.779 414.76C241.152 414.307 241.432 413.827 241.619 413.32ZM260.56 421.4C258.88 421.4 257.36 421.12 256 420.56C254.64 419.973 253.48 419.187 252.52 418.2C251.56 417.187 250.813 416.04 250.28 414.76C249.773 413.453 249.52 412.08 249.52 410.64C249.52 408.64 249.96 406.813 250.84 405.16C251.747 403.507 253.027 402.187 254.68 401.2C256.36 400.187 258.333 399.68 260.6 399.68C262.893 399.68 264.853 400.187 266.48 401.2C268.107 402.187 269.347 403.507 270.2 405.16C271.08 406.787 271.52 408.547 271.52 410.44C271.52 410.76 271.507 411.093 271.48 411.44C271.453 411.76 271.427 412.027 271.4 412.24H255.2C255.307 413.307 255.613 414.24 256.12 415.04C256.653 415.84 257.32 416.453 258.12 416.88C258.947 417.28 259.827 417.48 260.76 417.48C261.827 417.48 262.827 417.227 263.76 416.72C264.72 416.187 265.373 415.493 265.72 414.64L270.32 415.92C269.813 416.987 269.08 417.933 268.12 418.76C267.187 419.587 266.08 420.24 264.8 420.72C263.52 421.173 262.107 421.4 260.56 421.4ZM255.08 408.84H266.04C265.933 407.773 265.627 406.853 265.12 406.08C264.64 405.28 264 404.667 263.2 404.24C262.4 403.787 261.507 403.56 260.52 403.56C259.56 403.56 258.68 403.787 257.88 404.24C257.107 404.667 256.467 405.28 255.96 406.08C255.48 406.853 255.187 407.773 255.08 408.84ZM285.865 404.68C284.239 404.68 282.785 405 281.505 405.64C280.225 406.253 279.305 407.147 278.745 408.32V421H273.385V400.04H278.305V404.52C279.052 403.08 279.999 401.947 281.145 401.12C282.292 400.293 283.505 399.84 284.785 399.76C285.079 399.76 285.305 399.76 285.465 399.76C285.625 399.76 285.759 399.773 285.865 399.8V404.68ZM287.974 421V392.64H293.494V406.12L305.414 392.6H311.494L300.614 405.2L312.174 421H305.934L297.094 408.76L293.494 412.52V421H287.974ZM321.126 421.4C319.446 421.4 317.926 421.12 316.566 420.56C315.206 419.973 314.046 419.187 313.086 418.2C312.126 417.187 311.379 416.04 310.846 414.76C310.339 413.453 310.086 412.08 310.086 410.64C310.086 408.64 310.526 406.813 311.406 405.16C312.312 403.507 313.592 402.187 315.246 401.2C316.926 400.187 318.899 399.68 321.166 399.68C323.459 399.68 325.419 400.187 327.046 401.2C328.672 402.187 329.912 403.507 330.766 405.16C331.646 406.787 332.086 408.547 332.086 410.44C332.086 410.76 332.072 411.093 332.046 411.44C332.019 411.76 331.992 412.027 331.966 412.24H315.766C315.872 413.307 316.179 414.24 316.686 415.04C317.219 415.84 317.886 416.453 318.686 416.88C319.512 417.28 320.392 417.48 321.326 417.48C322.392 417.48 323.392 417.227 324.326 416.72C325.286 416.187 325.939 415.493 326.286 414.64L330.886 415.92C330.379 416.987 329.646 417.933 328.686 418.76C327.752 419.587 326.646 420.24 325.366 420.72C324.086 421.173 322.672 421.4 321.126 421.4ZM315.646 408.84H326.606C326.499 407.773 326.192 406.853 325.686 406.08C325.206 405.28 324.566 404.667 323.766 404.24C322.966 403.787 322.072 403.56 321.086 403.56C320.126 403.56 319.246 403.787 318.446 404.24C317.672 404.667 317.032 405.28 316.526 406.08C316.046 406.853 315.752 407.773 315.646 408.84Z" fill="white"/>
</svg>
