<svg width="375" height="812" viewBox="0 0 375 812" fill="none" xmlns="http://www.w3.org/2000/svg">
<g clip-path="url(#clip0_6_1931)">
<rect width="375" height="812" fill="#F9F9F9"/>
<g filter="url(#filter0_d_6_1931)">
<path d="M20 151C20 145.477 24.4772 141 30 141H345C350.523 141 355 145.477 355 151V181C355 186.523 350.523 191 345 191H30C24.4771 191 20 186.523 20 181V151Z" fill="white"/>
</g>
<circle cx="52.0002" cy="174.094" r="1.30569" transform="rotate(1.70614 52.0002 174.094)" stroke="#3C4758" stroke-width="1.5"/>
<path d="M47.4288 160.695C47.7666 158.429 49.7122 156.753 52.0026 156.754C54.2926 156.755 56.2367 158.433 56.5728 160.698L57.0004 163.58C57.2574 165.56 57.9613 166.999 59.0461 168.5C59.593 169.256 59.0578 170.198 58.2761 170.198L45.6926 170.193C44.9087 170.193 44.3912 169.262 44.9355 168.526C46.0536 167.014 46.7953 165.566 47.0007 163.566L47.4288 160.695Z" stroke="#3B4657" stroke-width="1.5"/>
<path d="M75.888 170V161.6H76.896L81.372 168.332V161.6H82.38V170H81.372L76.896 163.268V170H75.888ZM86.8134 170.144C86.2534 170.144 85.7494 170.016 85.3014 169.76C84.8534 169.504 84.4974 169.144 84.2334 168.68C83.9774 168.208 83.8494 167.656 83.8494 167.024C83.8494 166.392 83.9814 165.844 84.2454 165.38C84.5094 164.908 84.8654 164.544 85.3134 164.288C85.7694 164.032 86.2774 163.904 86.8374 163.904C87.3974 163.904 87.9014 164.032 88.3494 164.288C88.7974 164.544 89.1494 164.908 89.4054 165.38C89.6694 165.844 89.8014 166.392 89.8014 167.024C89.8014 167.656 89.6694 168.208 89.4054 168.68C89.1414 169.144 88.7814 169.504 88.3254 169.76C87.8774 170.016 87.3734 170.144 86.8134 170.144ZM86.8134 169.28C87.1574 169.28 87.4774 169.196 87.7734 169.028C88.0694 168.86 88.3094 168.608 88.4934 168.272C88.6774 167.936 88.7694 167.52 88.7694 167.024C88.7694 166.528 88.6774 166.112 88.4934 165.776C88.3174 165.44 88.0814 165.188 87.7854 165.02C87.4894 164.852 87.1734 164.768 86.8374 164.768C86.4934 164.768 86.1734 164.852 85.8774 165.02C85.5814 165.188 85.3414 165.44 85.1574 165.776C84.9734 166.112 84.8814 166.528 84.8814 167.024C84.8814 167.52 84.9734 167.936 85.1574 168.272C85.3414 168.608 85.5774 168.86 85.8654 169.028C86.1614 169.196 86.4774 169.28 86.8134 169.28ZM93.3206 170C92.7766 170 92.3486 169.868 92.0366 169.604C91.7246 169.34 91.5686 168.864 91.5686 168.176V164.9H90.5366V164.048H91.5686L91.7006 162.62H92.5766V164.048H94.3286V164.9H92.5766V168.176C92.5766 168.552 92.6526 168.808 92.8046 168.944C92.9566 169.072 93.2246 169.136 93.6086 169.136H94.2326V170H93.3206ZM96.2213 162.728C96.0213 162.728 95.8533 162.664 95.7173 162.536C95.5893 162.4 95.5253 162.232 95.5253 162.032C95.5253 161.84 95.5893 161.68 95.7173 161.552C95.8533 161.424 96.0213 161.36 96.2213 161.36C96.4133 161.36 96.5773 161.424 96.7133 161.552C96.8493 161.68 96.9173 161.84 96.9173 162.032C96.9173 162.232 96.8493 162.4 96.7133 162.536C96.5773 162.664 96.4133 162.728 96.2213 162.728ZM95.7173 170V164.048H96.7253V170H95.7173ZM98.8043 170V164.9H97.9043V164.048H98.8043V163.016C98.8043 162.44 98.9483 162.02 99.2363 161.756C99.5243 161.492 99.9443 161.36 100.496 161.36H101.096V162.224H100.652C100.348 162.224 100.132 162.288 100.004 162.416C99.8763 162.536 99.8123 162.744 99.8123 163.04V164.048H103.508V170H102.5V164.9H99.8123V170H98.8043ZM103.016 162.908C102.824 162.908 102.66 162.844 102.524 162.716C102.388 162.58 102.32 162.412 102.32 162.212C102.32 162.02 102.388 161.86 102.524 161.732C102.66 161.604 102.824 161.54 103.016 161.54C103.216 161.54 103.38 161.604 103.508 161.732C103.644 161.86 103.712 162.02 103.712 162.212C103.712 162.412 103.644 162.58 103.508 162.716C103.38 162.844 103.216 162.908 103.016 162.908ZM108.025 170.144C107.457 170.144 106.945 170.016 106.489 169.76C106.041 169.496 105.685 169.132 105.421 168.668C105.165 168.196 105.037 167.648 105.037 167.024C105.037 166.4 105.165 165.856 105.421 165.392C105.685 164.92 106.041 164.556 106.489 164.3C106.945 164.036 107.457 163.904 108.025 163.904C108.729 163.904 109.321 164.088 109.801 164.456C110.289 164.824 110.597 165.316 110.725 165.932H109.693C109.613 165.564 109.417 165.28 109.105 165.08C108.793 164.872 108.429 164.768 108.013 164.768C107.677 164.768 107.361 164.852 107.065 165.02C106.769 165.188 106.529 165.44 106.345 165.776C106.161 166.112 106.069 166.528 106.069 167.024C106.069 167.52 106.161 167.936 106.345 168.272C106.529 168.608 106.769 168.864 107.065 169.04C107.361 169.208 107.677 169.292 108.013 169.292C108.429 169.292 108.793 169.192 109.105 168.992C109.417 168.784 109.613 168.492 109.693 168.116H110.725C110.605 168.716 110.301 169.204 109.813 169.58C109.325 169.956 108.729 170.144 108.025 170.144ZM114.113 170.144C113.617 170.144 113.205 170.06 112.877 169.892C112.549 169.724 112.305 169.5 112.145 169.22C111.985 168.94 111.905 168.636 111.905 168.308C111.905 167.7 112.137 167.232 112.601 166.904C113.065 166.576 113.697 166.412 114.497 166.412H116.105V166.34C116.105 165.82 115.969 165.428 115.697 165.164C115.425 164.892 115.061 164.756 114.605 164.756C114.213 164.756 113.873 164.856 113.585 165.056C113.305 165.248 113.129 165.532 113.057 165.908H112.025C112.065 165.476 112.209 165.112 112.457 164.816C112.713 164.52 113.029 164.296 113.405 164.144C113.781 163.984 114.181 163.904 114.605 163.904C115.437 163.904 116.061 164.128 116.477 164.576C116.901 165.016 117.113 165.604 117.113 166.34V170H116.213L116.153 168.932C115.985 169.268 115.737 169.556 115.409 169.796C115.089 170.028 114.657 170.144 114.113 170.144ZM114.269 169.292C114.653 169.292 114.981 169.192 115.253 168.992C115.533 168.792 115.745 168.532 115.889 168.212C116.033 167.892 116.105 167.556 116.105 167.204V167.192H114.581C113.989 167.192 113.569 167.296 113.321 167.504C113.081 167.704 112.961 167.956 112.961 168.26C112.961 168.572 113.073 168.824 113.297 169.016C113.529 169.2 113.853 169.292 114.269 169.292ZM120.813 170C120.269 170 119.841 169.868 119.529 169.604C119.217 169.34 119.061 168.864 119.061 168.176V164.9H118.029V164.048H119.061L119.193 162.62H120.069V164.048H121.821V164.9H120.069V168.176C120.069 168.552 120.145 168.808 120.297 168.944C120.449 169.072 120.717 169.136 121.101 169.136H121.725V170H120.813ZM123.713 162.728C123.513 162.728 123.345 162.664 123.209 162.536C123.081 162.4 123.017 162.232 123.017 162.032C123.017 161.84 123.081 161.68 123.209 161.552C123.345 161.424 123.513 161.36 123.713 161.36C123.905 161.36 124.069 161.424 124.205 161.552C124.341 161.68 124.409 161.84 124.409 162.032C124.409 162.232 124.341 162.4 124.205 162.536C124.069 162.664 123.905 162.728 123.713 162.728ZM123.209 170V164.048H124.217V170H123.209ZM128.685 170.144C128.125 170.144 127.621 170.016 127.173 169.76C126.725 169.504 126.369 169.144 126.105 168.68C125.849 168.208 125.721 167.656 125.721 167.024C125.721 166.392 125.853 165.844 126.117 165.38C126.381 164.908 126.737 164.544 127.185 164.288C127.641 164.032 128.149 163.904 128.709 163.904C129.269 163.904 129.773 164.032 130.221 164.288C130.669 164.544 131.021 164.908 131.277 165.38C131.541 165.844 131.673 166.392 131.673 167.024C131.673 167.656 131.541 168.208 131.277 168.68C131.013 169.144 130.653 169.504 130.197 169.76C129.749 170.016 129.245 170.144 128.685 170.144ZM128.685 169.28C129.029 169.28 129.349 169.196 129.645 169.028C129.941 168.86 130.181 168.608 130.365 168.272C130.549 167.936 130.641 167.52 130.641 167.024C130.641 166.528 130.549 166.112 130.365 165.776C130.189 165.44 129.953 165.188 129.657 165.02C129.361 164.852 129.045 164.768 128.709 164.768C128.365 164.768 128.045 164.852 127.749 165.02C127.453 165.188 127.213 165.44 127.029 165.776C126.845 166.112 126.753 166.528 126.753 167.024C126.753 167.52 126.845 167.936 127.029 168.272C127.213 168.608 127.449 168.86 127.737 169.028C128.033 169.196 128.349 169.28 128.685 169.28ZM133.074 170V164.048H133.986L134.046 165.116C134.238 164.74 134.514 164.444 134.874 164.228C135.234 164.012 135.642 163.904 136.098 163.904C136.802 163.904 137.362 164.12 137.778 164.552C138.202 164.976 138.414 165.632 138.414 166.52V170H137.406V166.628C137.406 165.388 136.894 164.768 135.87 164.768C135.358 164.768 134.93 164.956 134.586 165.332C134.25 165.7 134.082 166.228 134.082 166.916V170H133.074ZM142.221 170.144C141.509 170.144 140.917 169.964 140.445 169.604C139.973 169.244 139.697 168.756 139.617 168.14H140.649C140.713 168.452 140.877 168.724 141.141 168.956C141.413 169.18 141.777 169.292 142.233 169.292C142.657 169.292 142.969 169.204 143.169 169.028C143.369 168.844 143.469 168.628 143.469 168.38C143.469 168.02 143.337 167.78 143.073 167.66C142.817 167.54 142.453 167.432 141.981 167.336C141.661 167.272 141.341 167.18 141.021 167.06C140.701 166.94 140.433 166.772 140.217 166.556C140.001 166.332 139.893 166.04 139.893 165.68C139.893 165.16 140.085 164.736 140.469 164.408C140.861 164.072 141.389 163.904 142.053 163.904C142.685 163.904 143.201 164.064 143.601 164.384C144.009 164.696 144.245 165.144 144.309 165.728H143.313C143.273 165.424 143.141 165.188 142.917 165.02C142.701 164.844 142.409 164.756 142.041 164.756C141.681 164.756 141.401 164.832 141.201 164.984C141.009 165.136 140.913 165.336 140.913 165.584C140.913 165.824 141.037 166.012 141.285 166.148C141.541 166.284 141.885 166.4 142.317 166.496C142.685 166.576 143.033 166.676 143.361 166.796C143.697 166.908 143.969 167.08 144.177 167.312C144.393 167.536 144.501 167.864 144.501 168.296C144.509 168.832 144.305 169.276 143.889 169.628C143.481 169.972 142.925 170.144 142.221 170.144Z" fill="#0B373D"/>
<g filter="url(#filter1_d_6_1931)">
<path d="M297 166.5C297 161.253 301.253 157 306.5 157H325.5C330.747 157 335 161.253 335 166.5C335 171.747 330.747 176 325.5 176H306.5C301.253 176 297 171.747 297 166.5Z" fill="#56CD54"/>
</g>
<circle cx="325.5" cy="166.5" r="6.5" fill="white"/>
<g filter="url(#filter2_d_6_1931)">
<path d="M20 211C20 205.477 24.4772 201 30 201H345C350.523 201 355 205.477 355 211V241C355 246.523 350.523 251 345 251H30C24.4771 251 20 246.523 20 241V211Z" fill="white"/>
</g>
<mask id="path-8-inside-1_6_1931" fill="white">
<path fill-rule="evenodd" clip-rule="evenodd" d="M41.7245 231.4C43.5032 234.167 46.6087 236 50.1424 236C55.6652 236 60.1424 231.523 60.1424 226C60.1424 220.958 56.4114 216.788 51.5598 216.1C52.5611 217.657 53.1419 219.511 53.1419 221.5C53.1419 227.023 48.6647 231.5 43.1419 231.5C42.6607 231.5 42.1875 231.466 41.7245 231.4Z"/>
</mask>
<path d="M41.7245 231.4L41.9352 229.915L38.6906 229.455L40.4627 232.211L41.7245 231.4ZM51.5598 216.1L51.7705 214.614L48.5259 214.154L50.298 216.911L51.5598 216.1ZM50.1424 234.5C47.1404 234.5 44.5006 232.945 42.9863 230.589L40.4627 232.211C42.5057 235.389 46.0771 237.5 50.1424 237.5V234.5ZM58.6424 226C58.6424 230.694 54.8368 234.5 50.1424 234.5V237.5C56.4937 237.5 61.6424 232.351 61.6424 226H58.6424ZM51.3491 217.585C55.4715 218.17 58.6424 221.716 58.6424 226H61.6424C61.6424 220.201 57.3512 215.406 51.7705 214.614L51.3491 217.585ZM50.298 216.911C51.1484 218.234 51.6419 219.807 51.6419 221.5H54.6419C54.6419 219.215 53.9737 217.081 52.8216 215.288L50.298 216.911ZM51.6419 221.5C51.6419 226.194 47.8363 230 43.1419 230V233C49.4932 233 54.6419 227.851 54.6419 221.5H51.6419ZM43.1419 230C42.7314 230 42.3286 229.971 41.9352 229.915L41.5138 232.885C42.0464 232.961 42.59 233 43.1419 233V230Z" fill="#3D4859" mask="url(#path-8-inside-1_6_1931)"/>
<path d="M75.888 230V221.6H78.468C79.948 221.6 81.036 221.976 81.732 222.728C82.436 223.48 82.788 224.512 82.788 225.824C82.788 227.112 82.436 228.132 81.732 228.884C81.036 229.628 79.948 230 78.468 230H75.888ZM76.896 229.16H78.444C79.26 229.16 79.908 229.028 80.388 228.764C80.876 228.492 81.224 228.108 81.432 227.612C81.64 227.108 81.744 226.512 81.744 225.824C81.744 225.12 81.64 224.516 81.432 224.012C81.224 223.508 80.876 223.12 80.388 222.848C79.908 222.576 79.26 222.44 78.444 222.44H76.896V229.16ZM86.1635 230.144C85.6675 230.144 85.2555 230.06 84.9275 229.892C84.5995 229.724 84.3555 229.5 84.1955 229.22C84.0355 228.94 83.9555 228.636 83.9555 228.308C83.9555 227.7 84.1875 227.232 84.6515 226.904C85.1155 226.576 85.7475 226.412 86.5475 226.412H88.1555V226.34C88.1555 225.82 88.0195 225.428 87.7475 225.164C87.4755 224.892 87.1115 224.756 86.6555 224.756C86.2635 224.756 85.9235 224.856 85.6355 225.056C85.3555 225.248 85.1795 225.532 85.1075 225.908H84.0755C84.1155 225.476 84.2595 225.112 84.5075 224.816C84.7635 224.52 85.0795 224.296 85.4555 224.144C85.8315 223.984 86.2315 223.904 86.6555 223.904C87.4875 223.904 88.1115 224.128 88.5275 224.576C88.9515 225.016 89.1635 225.604 89.1635 226.34V230H88.2635L88.2035 228.932C88.0355 229.268 87.7875 229.556 87.4595 229.796C87.1395 230.028 86.7075 230.144 86.1635 230.144ZM86.3195 229.292C86.7035 229.292 87.0315 229.192 87.3035 228.992C87.5835 228.792 87.7955 228.532 87.9395 228.212C88.0835 227.892 88.1555 227.556 88.1555 227.204V227.192H86.6315C86.0395 227.192 85.6195 227.296 85.3715 227.504C85.1315 227.704 85.0115 227.956 85.0115 228.26C85.0115 228.572 85.1235 228.824 85.3475 229.016C85.5795 229.2 85.9035 229.292 86.3195 229.292ZM90.6757 230V224.048H91.5877L91.6717 225.188C91.8557 224.796 92.1357 224.484 92.5117 224.252C92.8877 224.02 93.3517 223.904 93.9037 223.904V224.96H93.6277C93.2757 224.96 92.9517 225.024 92.6557 225.152C92.3597 225.272 92.1237 225.48 91.9477 225.776C91.7717 226.072 91.6837 226.48 91.6837 227V230H90.6757ZM95.035 230V221.36H96.043V226.556L98.479 224.048H99.715L97.075 226.736L100.051 230H98.767L96.043 226.916V230H95.035ZM104.258 230V224.048H105.17L105.242 224.912C105.434 224.592 105.69 224.344 106.01 224.168C106.33 223.992 106.69 223.904 107.09 223.904C107.562 223.904 107.966 224 108.302 224.192C108.646 224.384 108.91 224.676 109.094 225.068C109.302 224.708 109.586 224.424 109.946 224.216C110.314 224.008 110.71 223.904 111.134 223.904C111.846 223.904 112.414 224.12 112.838 224.552C113.262 224.976 113.474 225.632 113.474 226.52V230H112.478V226.628C112.478 226.012 112.354 225.548 112.106 225.236C111.858 224.924 111.502 224.768 111.038 224.768C110.558 224.768 110.158 224.956 109.838 225.332C109.526 225.7 109.37 226.228 109.37 226.916V230H108.362V226.628C108.362 226.012 108.238 225.548 107.99 225.236C107.742 224.924 107.386 224.768 106.922 224.768C106.45 224.768 106.054 224.956 105.734 225.332C105.422 225.7 105.266 226.228 105.266 226.916V230H104.258ZM117.704 230.144C117.144 230.144 116.64 230.016 116.192 229.76C115.744 229.504 115.388 229.144 115.124 228.68C114.868 228.208 114.74 227.656 114.74 227.024C114.74 226.392 114.872 225.844 115.136 225.38C115.4 224.908 115.756 224.544 116.204 224.288C116.66 224.032 117.168 223.904 117.728 223.904C118.288 223.904 118.792 224.032 119.24 224.288C119.688 224.544 120.04 224.908 120.296 225.38C120.56 225.844 120.692 226.392 120.692 227.024C120.692 227.656 120.56 228.208 120.296 228.68C120.032 229.144 119.672 229.504 119.216 229.76C118.768 230.016 118.264 230.144 117.704 230.144ZM117.704 229.28C118.048 229.28 118.368 229.196 118.664 229.028C118.96 228.86 119.2 228.608 119.384 228.272C119.568 227.936 119.66 227.52 119.66 227.024C119.66 226.528 119.568 226.112 119.384 225.776C119.208 225.44 118.972 225.188 118.676 225.02C118.38 224.852 118.064 224.768 117.728 224.768C117.384 224.768 117.064 224.852 116.768 225.02C116.472 225.188 116.232 225.44 116.048 225.776C115.864 226.112 115.772 226.528 115.772 227.024C115.772 227.52 115.864 227.936 116.048 228.272C116.232 228.608 116.468 228.86 116.756 229.028C117.052 229.196 117.368 229.28 117.704 229.28ZM124.794 230.144C124.202 230.144 123.682 230.008 123.234 229.736C122.794 229.464 122.45 229.092 122.202 228.62C121.962 228.148 121.842 227.612 121.842 227.012C121.842 226.412 121.966 225.88 122.214 225.416C122.462 224.944 122.806 224.576 123.246 224.312C123.686 224.04 124.206 223.904 124.806 223.904C125.294 223.904 125.726 224.004 126.102 224.204C126.478 224.404 126.77 224.684 126.978 225.044V221.36H127.986V230H127.074L126.978 229.016C126.786 229.304 126.51 229.564 126.15 229.796C125.79 230.028 125.338 230.144 124.794 230.144ZM124.902 229.268C125.302 229.268 125.654 229.176 125.958 228.992C126.27 228.8 126.51 228.536 126.678 228.2C126.854 227.864 126.942 227.472 126.942 227.024C126.942 226.576 126.854 226.184 126.678 225.848C126.51 225.512 126.27 225.252 125.958 225.068C125.654 224.876 125.302 224.78 124.902 224.78C124.51 224.78 124.158 224.876 123.846 225.068C123.542 225.252 123.302 225.512 123.126 225.848C122.958 226.184 122.874 226.576 122.874 227.024C122.874 227.472 122.958 227.864 123.126 228.2C123.302 228.536 123.542 228.8 123.846 228.992C124.158 229.176 124.51 229.268 124.902 229.268ZM132.305 230.144C131.737 230.144 131.233 230.016 130.793 229.76C130.353 229.496 130.005 229.132 129.749 228.668C129.501 228.204 129.377 227.656 129.377 227.024C129.377 226.4 129.501 225.856 129.749 225.392C129.997 224.92 130.341 224.556 130.781 224.3C131.229 224.036 131.745 223.904 132.329 223.904C132.905 223.904 133.401 224.036 133.817 224.3C134.241 224.556 134.565 224.896 134.789 225.32C135.013 225.744 135.125 226.2 135.125 226.688C135.125 226.776 135.121 226.864 135.113 226.952C135.113 227.04 135.113 227.14 135.113 227.252H130.373C130.397 227.708 130.501 228.088 130.685 228.392C130.877 228.688 131.113 228.912 131.393 229.064C131.681 229.216 131.985 229.292 132.305 229.292C132.721 229.292 133.069 229.196 133.349 229.004C133.629 228.812 133.833 228.552 133.961 228.224H134.957C134.797 228.776 134.489 229.236 134.033 229.604C133.585 229.964 133.009 230.144 132.305 230.144ZM132.305 224.756C131.825 224.756 131.397 224.904 131.021 225.2C130.653 225.488 130.441 225.912 130.385 226.472H134.129C134.105 225.936 133.921 225.516 133.577 225.212C133.233 224.908 132.809 224.756 132.305 224.756Z" fill="#0B373D"/>
<g filter="url(#filter3_d_6_1931)">
<path d="M335 226.5C335 221.253 330.747 217 325.5 217H306.5C301.253 217 297 221.253 297 226.5C297 231.747 301.253 236 306.5 236H325.5C330.747 236 335 231.747 335 226.5Z" fill="#E5E5E5"/>
</g>
<circle cx="6.5" cy="6.5" r="6.5" transform="matrix(-1 0 0 1 313 220)" fill="#3D4859"/>
<g filter="url(#filter4_d_6_1931)">
<path d="M20 271C20 265.477 24.4772 261 30 261H345C350.523 261 355 265.477 355 271V301C355 306.523 350.523 311 345 311H30C24.4771 311 20 306.523 20 301V271Z" fill="white"/>
</g>
<path d="M43.75 287C43.75 285.205 45.2051 283.75 47 283.75H57C58.7949 283.75 60.25 285.205 60.25 287V291C60.25 292.795 58.7949 294.25 57 294.25H47C45.2051 294.25 43.75 292.795 43.75 291V287Z" stroke="#3E495A" stroke-width="1.5"/>
<path d="M55 283V281.5C55 279.843 53.6569 278.5 52 278.5V278.5C50.3431 278.5 49 279.843 49 281.5V283" stroke="#3E495A" stroke-width="1.5"/>
<path d="M75.888 290V281.6H78.648C79.304 281.6 79.844 281.708 80.268 281.924C80.692 282.14 81.004 282.432 81.204 282.8C81.412 283.168 81.516 283.584 81.516 284.048C81.516 284.504 81.416 284.916 81.216 285.284C81.016 285.652 80.704 285.948 80.28 286.172C79.856 286.388 79.312 286.496 78.648 286.496H76.896V290H75.888ZM76.896 285.644H78.624C79.296 285.644 79.772 285.504 80.052 285.224C80.34 284.936 80.484 284.544 80.484 284.048C80.484 283.544 80.34 283.152 80.052 282.872C79.772 282.584 79.296 282.44 78.624 282.44H76.896V285.644ZM84.476 290.144C83.98 290.144 83.568 290.06 83.24 289.892C82.912 289.724 82.668 289.5 82.508 289.22C82.348 288.94 82.268 288.636 82.268 288.308C82.268 287.7 82.5 287.232 82.964 286.904C83.428 286.576 84.06 286.412 84.86 286.412H86.468V286.34C86.468 285.82 86.332 285.428 86.06 285.164C85.788 284.892 85.424 284.756 84.968 284.756C84.576 284.756 84.236 284.856 83.948 285.056C83.668 285.248 83.492 285.532 83.42 285.908H82.388C82.428 285.476 82.572 285.112 82.82 284.816C83.076 284.52 83.392 284.296 83.768 284.144C84.144 283.984 84.544 283.904 84.968 283.904C85.8 283.904 86.424 284.128 86.84 284.576C87.264 285.016 87.476 285.604 87.476 286.34V290H86.576L86.516 288.932C86.348 289.268 86.1 289.556 85.772 289.796C85.452 290.028 85.02 290.144 84.476 290.144ZM84.632 289.292C85.016 289.292 85.344 289.192 85.616 288.992C85.896 288.792 86.108 288.532 86.252 288.212C86.396 287.892 86.468 287.556 86.468 287.204V287.192H84.944C84.352 287.192 83.932 287.296 83.684 287.504C83.444 287.704 83.324 287.956 83.324 288.26C83.324 288.572 83.436 288.824 83.66 289.016C83.892 289.2 84.216 289.292 84.632 289.292ZM91.2682 290.144C90.5562 290.144 89.9642 289.964 89.4922 289.604C89.0202 289.244 88.7442 288.756 88.6642 288.14H89.6962C89.7602 288.452 89.9242 288.724 90.1882 288.956C90.4602 289.18 90.8242 289.292 91.2802 289.292C91.7042 289.292 92.0162 289.204 92.2162 289.028C92.4162 288.844 92.5162 288.628 92.5162 288.38C92.5162 288.02 92.3842 287.78 92.1202 287.66C91.8642 287.54 91.5002 287.432 91.0282 287.336C90.7082 287.272 90.3882 287.18 90.0682 287.06C89.7482 286.94 89.4802 286.772 89.2642 286.556C89.0482 286.332 88.9402 286.04 88.9402 285.68C88.9402 285.16 89.1322 284.736 89.5162 284.408C89.9082 284.072 90.4362 283.904 91.1002 283.904C91.7322 283.904 92.2482 284.064 92.6482 284.384C93.0562 284.696 93.2922 285.144 93.3562 285.728H92.3602C92.3202 285.424 92.1882 285.188 91.9642 285.02C91.7482 284.844 91.4562 284.756 91.0882 284.756C90.7282 284.756 90.4482 284.832 90.2482 284.984C90.0562 285.136 89.9602 285.336 89.9602 285.584C89.9602 285.824 90.0842 286.012 90.3322 286.148C90.5882 286.284 90.9322 286.4 91.3642 286.496C91.7322 286.576 92.0802 286.676 92.4082 286.796C92.7442 286.908 93.0162 287.08 93.2242 287.312C93.4402 287.536 93.5482 287.864 93.5482 288.296C93.5562 288.832 93.3522 289.276 92.9362 289.628C92.5282 289.972 91.9722 290.144 91.2682 290.144ZM97.2682 290.144C96.5562 290.144 95.9642 289.964 95.4922 289.604C95.0202 289.244 94.7442 288.756 94.6642 288.14H95.6962C95.7602 288.452 95.9242 288.724 96.1882 288.956C96.4602 289.18 96.8242 289.292 97.2802 289.292C97.7042 289.292 98.0162 289.204 98.2162 289.028C98.4162 288.844 98.5162 288.628 98.5162 288.38C98.5162 288.02 98.3842 287.78 98.1202 287.66C97.8642 287.54 97.5002 287.432 97.0282 287.336C96.7082 287.272 96.3882 287.18 96.0682 287.06C95.7482 286.94 95.4802 286.772 95.2642 286.556C95.0482 286.332 94.9402 286.04 94.9402 285.68C94.9402 285.16 95.1322 284.736 95.5162 284.408C95.9082 284.072 96.4362 283.904 97.1002 283.904C97.7322 283.904 98.2482 284.064 98.6482 284.384C99.0562 284.696 99.2922 285.144 99.3562 285.728H98.3602C98.3202 285.424 98.1882 285.188 97.9642 285.02C97.7482 284.844 97.4562 284.756 97.0882 284.756C96.7282 284.756 96.4482 284.832 96.2482 284.984C96.0562 285.136 95.9602 285.336 95.9602 285.584C95.9602 285.824 96.0842 286.012 96.3322 286.148C96.5882 286.284 96.9322 286.4 97.3642 286.496C97.7322 286.576 98.0802 286.676 98.4082 286.796C98.7442 286.908 99.0162 287.08 99.2242 287.312C99.4402 287.536 99.5482 287.864 99.5482 288.296C99.5562 288.832 99.3522 289.276 98.9362 289.628C98.5282 289.972 97.9722 290.144 97.2682 290.144ZM101.966 290L100.226 284.048H101.234L102.494 288.716L103.886 284.048H105.026L106.43 288.716L107.678 284.048H108.698L106.958 290H105.926L104.462 285.092L102.998 290H101.966ZM112.302 290.144C111.742 290.144 111.238 290.016 110.79 289.76C110.342 289.504 109.986 289.144 109.722 288.68C109.466 288.208 109.338 287.656 109.338 287.024C109.338 286.392 109.47 285.844 109.734 285.38C109.998 284.908 110.354 284.544 110.802 284.288C111.258 284.032 111.766 283.904 112.326 283.904C112.886 283.904 113.39 284.032 113.838 284.288C114.286 284.544 114.638 284.908 114.894 285.38C115.158 285.844 115.29 286.392 115.29 287.024C115.29 287.656 115.158 288.208 114.894 288.68C114.63 289.144 114.27 289.504 113.814 289.76C113.366 290.016 112.862 290.144 112.302 290.144ZM112.302 289.28C112.646 289.28 112.966 289.196 113.262 289.028C113.558 288.86 113.798 288.608 113.982 288.272C114.166 287.936 114.258 287.52 114.258 287.024C114.258 286.528 114.166 286.112 113.982 285.776C113.806 285.44 113.57 285.188 113.274 285.02C112.978 284.852 112.662 284.768 112.326 284.768C111.982 284.768 111.662 284.852 111.366 285.02C111.07 285.188 110.83 285.44 110.646 285.776C110.462 286.112 110.37 286.528 110.37 287.024C110.37 287.52 110.462 287.936 110.646 288.272C110.83 288.608 111.066 288.86 111.354 289.028C111.65 289.196 111.966 289.28 112.302 289.28ZM116.691 290V284.048H117.603L117.687 285.188C117.871 284.796 118.151 284.484 118.527 284.252C118.903 284.02 119.367 283.904 119.919 283.904V284.96H119.643C119.291 284.96 118.967 285.024 118.671 285.152C118.375 285.272 118.139 285.48 117.963 285.776C117.787 286.072 117.699 286.48 117.699 287V290H116.691ZM123.528 290.144C122.936 290.144 122.416 290.008 121.968 289.736C121.528 289.464 121.184 289.092 120.936 288.62C120.696 288.148 120.576 287.612 120.576 287.012C120.576 286.412 120.7 285.88 120.948 285.416C121.196 284.944 121.54 284.576 121.98 284.312C122.42 284.04 122.94 283.904 123.54 283.904C124.028 283.904 124.46 284.004 124.836 284.204C125.212 284.404 125.504 284.684 125.712 285.044V281.36H126.72V290H125.808L125.712 289.016C125.52 289.304 125.244 289.564 124.884 289.796C124.524 290.028 124.072 290.144 123.528 290.144ZM123.636 289.268C124.036 289.268 124.388 289.176 124.692 288.992C125.004 288.8 125.244 288.536 125.412 288.2C125.588 287.864 125.676 287.472 125.676 287.024C125.676 286.576 125.588 286.184 125.412 285.848C125.244 285.512 125.004 285.252 124.692 285.068C124.388 284.876 124.036 284.78 123.636 284.78C123.244 284.78 122.892 284.876 122.58 285.068C122.276 285.252 122.036 285.512 121.86 285.848C121.692 286.184 121.608 286.576 121.608 287.024C121.608 287.472 121.692 287.864 121.86 288.2C122.036 288.536 122.276 288.8 122.58 288.992C122.892 289.176 123.244 289.268 123.636 289.268Z" fill="#0B373D"/>
<circle cx="326" cy="286" r="6" fill="white"/>
<path d="M325 281L330 286L325 291" stroke="#0B373D" stroke-width="1.5" stroke-linecap="round"/>
<g filter="url(#filter5_d_6_1931)">
<path d="M20 331C20 325.477 24.4772 321 30 321H345C350.523 321 355 325.477 355 331V361C355 366.523 350.523 371 345 371H30C24.4771 371 20 366.523 20 361V331Z" fill="white"/>
</g>
<path d="M54 349.833L54 350C54 352.209 52.2091 354 50 354L48 354C45.7909 354 44 352.209 44 350L44 342C44 339.791 45.7909 338 48 338L50 338C52.2091 338 54 339.791 54 342L54 342.153" stroke="#3E495A" stroke-width="1.5" stroke-linecap="round"/>
<path d="M49 346H59.5" stroke="#3E495A" stroke-width="1.5" stroke-linecap="round"/>
<path d="M57.2083 343L59.5002 345.999L57.2083 349" stroke="#3E495A" stroke-width="1.5" stroke-linecap="round"/>
<path d="M75.888 350V341.6H76.896V349.196H80.808V350H75.888ZM84.5869 350.144C84.0269 350.144 83.5229 350.016 83.0749 349.76C82.6269 349.504 82.2709 349.144 82.0069 348.68C81.7509 348.208 81.6229 347.656 81.6229 347.024C81.6229 346.392 81.7549 345.844 82.0189 345.38C82.2829 344.908 82.6389 344.544 83.0869 344.288C83.5429 344.032 84.0509 343.904 84.6109 343.904C85.1709 343.904 85.6749 344.032 86.1229 344.288C86.5709 344.544 86.9229 344.908 87.1789 345.38C87.4429 345.844 87.5749 346.392 87.5749 347.024C87.5749 347.656 87.4429 348.208 87.1789 348.68C86.9149 349.144 86.5549 349.504 86.0989 349.76C85.6509 350.016 85.1469 350.144 84.5869 350.144ZM84.5869 349.28C84.9309 349.28 85.2509 349.196 85.5469 349.028C85.8429 348.86 86.0829 348.608 86.2669 348.272C86.4509 347.936 86.5429 347.52 86.5429 347.024C86.5429 346.528 86.4509 346.112 86.2669 345.776C86.0909 345.44 85.8549 345.188 85.5589 345.02C85.2629 344.852 84.9469 344.768 84.6109 344.768C84.2669 344.768 83.9469 344.852 83.6509 345.02C83.3549 345.188 83.1149 345.44 82.9309 345.776C82.7469 346.112 82.6549 346.528 82.6549 347.024C82.6549 347.52 82.7469 347.936 82.9309 348.272C83.1149 348.608 83.3509 348.86 83.6389 349.028C83.9349 349.196 84.2509 349.28 84.5869 349.28ZM91.0706 348.128C90.7346 348.128 90.4266 348.084 90.1466 347.996L89.5466 348.56C89.6346 348.624 89.7426 348.68 89.8706 348.728C90.0066 348.768 90.1986 348.808 90.4466 348.848C90.6946 348.88 91.0426 348.916 91.4906 348.956C92.2906 349.012 92.8626 349.196 93.2066 349.508C93.5506 349.82 93.7226 350.228 93.7226 350.732C93.7226 351.076 93.6266 351.404 93.4346 351.716C93.2506 352.028 92.9626 352.284 92.5706 352.484C92.1866 352.684 91.6906 352.784 91.0826 352.784C90.5466 352.784 90.0706 352.712 89.6546 352.568C89.2386 352.432 88.9146 352.22 88.6826 351.932C88.4506 351.652 88.3346 351.296 88.3346 350.864C88.3346 350.64 88.3946 350.396 88.5146 350.132C88.6346 349.876 88.8586 349.632 89.1866 349.4C89.0106 349.328 88.8586 349.252 88.7306 349.172C88.6106 349.084 88.4986 348.988 88.3946 348.884V348.608L89.4146 347.6C88.9426 347.2 88.7066 346.672 88.7066 346.016C88.7066 345.624 88.7986 345.268 88.9826 344.948C89.1666 344.628 89.4346 344.376 89.7866 344.192C90.1386 344 90.5666 343.904 91.0706 343.904C91.4146 343.904 91.7266 343.952 92.0066 344.048H94.2026V344.804L93.0866 344.852C93.3186 345.188 93.4346 345.576 93.4346 346.016C93.4346 346.408 93.3386 346.764 93.1466 347.084C92.9626 347.404 92.6946 347.66 92.3426 347.852C91.9986 348.036 91.5746 348.128 91.0706 348.128ZM91.0706 347.3C91.4946 347.3 91.8306 347.192 92.0786 346.976C92.3346 346.752 92.4626 346.432 92.4626 346.016C92.4626 345.608 92.3346 345.296 92.0786 345.08C91.8306 344.856 91.4946 344.744 91.0706 344.744C90.6386 344.744 90.2946 344.856 90.0386 345.08C89.7906 345.296 89.6666 345.608 89.6666 346.016C89.6666 346.432 89.7906 346.752 90.0386 346.976C90.2946 347.192 90.6386 347.3 91.0706 347.3ZM89.3186 350.768C89.3186 351.168 89.4866 351.464 89.8226 351.656C90.1586 351.856 90.5786 351.956 91.0826 351.956C91.5786 351.956 91.9746 351.848 92.2706 351.632C92.5746 351.416 92.7266 351.128 92.7266 350.768C92.7266 350.512 92.6226 350.288 92.4146 350.096C92.2066 349.912 91.8226 349.804 91.2626 349.772C90.8226 349.74 90.4426 349.7 90.1226 349.652C89.7946 349.828 89.5786 350.016 89.4746 350.216C89.3706 350.424 89.3186 350.608 89.3186 350.768ZM97.8173 350.144C97.2573 350.144 96.7533 350.016 96.3053 349.76C95.8573 349.504 95.5013 349.144 95.2373 348.68C94.9813 348.208 94.8533 347.656 94.8533 347.024C94.8533 346.392 94.9853 345.844 95.2493 345.38C95.5133 344.908 95.8693 344.544 96.3173 344.288C96.7733 344.032 97.2813 343.904 97.8413 343.904C98.4013 343.904 98.9053 344.032 99.3533 344.288C99.8013 344.544 100.153 344.908 100.409 345.38C100.673 345.844 100.805 346.392 100.805 347.024C100.805 347.656 100.673 348.208 100.409 348.68C100.145 349.144 99.7853 349.504 99.3293 349.76C98.8813 350.016 98.3773 350.144 97.8173 350.144ZM97.8173 349.28C98.1613 349.28 98.4813 349.196 98.7773 349.028C99.0733 348.86 99.3133 348.608 99.4973 348.272C99.6813 347.936 99.7733 347.52 99.7733 347.024C99.7733 346.528 99.6813 346.112 99.4973 345.776C99.3213 345.44 99.0853 345.188 98.7893 345.02C98.4933 344.852 98.1773 344.768 97.8413 344.768C97.4973 344.768 97.1773 344.852 96.8813 345.02C96.5853 345.188 96.3453 345.44 96.1613 345.776C95.9773 346.112 95.8853 346.528 95.8853 347.024C95.8853 347.52 95.9773 347.936 96.1613 348.272C96.3453 348.608 96.5813 348.86 96.8693 349.028C97.1653 349.196 97.4813 349.28 97.8173 349.28ZM104.379 350.144C103.675 350.144 103.115 349.932 102.699 349.508C102.283 349.076 102.075 348.416 102.075 347.528V344.048H103.083V347.42C103.083 348.66 103.591 349.28 104.607 349.28C105.127 349.28 105.555 349.096 105.891 348.728C106.235 348.352 106.407 347.82 106.407 347.132V344.048H107.415V350H106.503L106.431 348.932C106.247 349.308 105.971 349.604 105.603 349.82C105.243 350.036 104.835 350.144 104.379 350.144ZM111.426 350C110.882 350 110.454 349.868 110.142 349.604C109.83 349.34 109.674 348.864 109.674 348.176V344.9H108.642V344.048H109.674L109.806 342.62H110.682V344.048H112.434V344.9H110.682V348.176C110.682 348.552 110.758 348.808 110.91 348.944C111.062 349.072 111.33 349.136 111.714 349.136H112.338V350H111.426Z" fill="#0B373D"/>
<circle cx="326" cy="346" r="6" fill="white"/>
<path d="M325 341L330 346L325 351" stroke="#0B373D" stroke-width="1.5" stroke-linecap="round"/>
<g filter="url(#filter6_d_6_1931)">
<rect x="81" y="671" width="213" height="50" rx="6" fill="#087108"/>
</g>
<path d="M176.298 701.168C175.579 701.168 174.945 701.047 174.394 700.804C173.843 700.552 173.409 700.197 173.092 699.74C172.775 699.273 172.611 698.709 172.602 698.046H174.492C174.511 698.503 174.674 698.891 174.982 699.208C175.299 699.516 175.733 699.67 176.284 699.67C176.76 699.67 177.138 699.558 177.418 699.334C177.698 699.101 177.838 698.793 177.838 698.41C177.838 698.009 177.712 697.696 177.46 697.472C177.217 697.248 176.891 697.066 176.48 696.926C176.069 696.786 175.631 696.637 175.164 696.478C174.408 696.217 173.829 695.881 173.428 695.47C173.036 695.059 172.84 694.513 172.84 693.832C172.831 693.253 172.966 692.759 173.246 692.348C173.535 691.928 173.927 691.606 174.422 691.382C174.917 691.149 175.486 691.032 176.13 691.032C176.783 691.032 177.357 691.149 177.852 691.382C178.356 691.615 178.748 691.942 179.028 692.362C179.317 692.782 179.471 693.281 179.49 693.86H177.572C177.563 693.515 177.427 693.211 177.166 692.95C176.914 692.679 176.559 692.544 176.102 692.544C175.71 692.535 175.379 692.633 175.108 692.838C174.847 693.034 174.716 693.323 174.716 693.706C174.716 694.033 174.819 694.294 175.024 694.49C175.229 694.677 175.509 694.835 175.864 694.966C176.219 695.097 176.625 695.237 177.082 695.386C177.567 695.554 178.011 695.75 178.412 695.974C178.813 696.198 179.135 696.497 179.378 696.87C179.621 697.234 179.742 697.705 179.742 698.284C179.742 698.797 179.611 699.273 179.35 699.712C179.089 700.151 178.701 700.505 178.188 700.776C177.675 701.037 177.045 701.168 176.298 701.168ZM181.516 701L185.1 691.2H187.116L190.7 701H188.796L188.012 698.732H184.19L183.392 701H181.516ZM184.68 697.332H187.522L186.094 693.258L184.68 697.332ZM194.4 701L190.816 691.2H192.734L195.506 699.166L198.292 691.2H200.182L196.598 701H194.4ZM202.187 701V691.2H208.585V692.642H203.979V695.33H208.165V696.73H203.979V699.558H208.585V701H202.187Z" fill="white"/>
<path d="M41 42.75C41.4142 42.75 41.75 42.4142 41.75 42C41.75 41.5858 41.4142 41.25 41 41.25V42.75ZM22.2605 41.4697C21.9676 41.7626 21.9676 42.2374 22.2605 42.5303L27.0335 47.3033C27.3264 47.5962 27.8013 47.5962 28.0942 47.3033C28.3871 47.0104 28.3871 46.5355 28.0942 46.2426L23.8515 42L28.0942 37.7574C28.3871 37.4645 28.3871 36.9896 28.0942 36.6967C27.8013 36.4038 27.3264 36.4038 27.0335 36.6967L22.2605 41.4697ZM41 41.25H22.7909V42.75H41V41.25Z" fill="#087108"/>
<path d="M24.832 110.192C24.0107 110.192 23.2907 110.048 22.672 109.76C22.0533 109.472 21.568 109.061 21.216 108.528C20.8747 107.995 20.6987 107.36 20.688 106.624H22.48C22.4907 107.221 22.6987 107.728 23.104 108.144C23.5093 108.56 24.08 108.768 24.816 108.768C25.4667 108.768 25.9733 108.613 26.336 108.304C26.7093 107.984 26.896 107.579 26.896 107.088C26.896 106.693 26.8053 106.373 26.624 106.128C26.4533 105.883 26.2133 105.68 25.904 105.52C25.6053 105.36 25.2587 105.216 24.864 105.088C24.4693 104.96 24.0533 104.821 23.616 104.672C22.752 104.384 22.1013 104.011 21.664 103.552C21.2373 103.093 21.024 102.491 21.024 101.744C21.0133 101.115 21.1573 100.565 21.456 100.096C21.7653 99.6267 22.192 99.264 22.736 99.008C23.2907 98.7413 23.936 98.608 24.672 98.608C25.3973 98.608 26.032 98.7413 26.576 99.008C27.1307 99.2747 27.5627 99.648 27.872 100.128C28.1813 100.597 28.3413 101.147 28.352 101.776H26.56C26.56 101.488 26.4853 101.216 26.336 100.96C26.1867 100.693 25.968 100.475 25.68 100.304C25.392 100.133 25.04 100.048 24.624 100.048C24.0907 100.037 23.648 100.171 23.296 100.448C22.9547 100.725 22.784 101.109 22.784 101.6C22.784 102.037 22.912 102.373 23.168 102.608C23.424 102.843 23.776 103.04 24.224 103.2C24.672 103.349 25.184 103.525 25.76 103.728C26.3147 103.909 26.8107 104.128 27.248 104.384C27.6853 104.64 28.032 104.976 28.288 105.392C28.5547 105.808 28.688 106.336 28.688 106.976C28.688 107.541 28.544 108.069 28.256 108.56C27.968 109.04 27.536 109.435 26.96 109.744C26.384 110.043 25.6747 110.192 24.832 110.192ZM34.1903 110.192C33.4116 110.192 32.7183 110.021 32.1103 109.68C31.5129 109.328 31.0436 108.843 30.7023 108.224C30.3609 107.605 30.1903 106.885 30.1903 106.064C30.1903 105.232 30.3556 104.501 30.6863 103.872C31.0276 103.243 31.4969 102.752 32.0943 102.4C32.7023 102.048 33.4063 101.872 34.2063 101.872C34.9849 101.872 35.6623 102.048 36.2383 102.4C36.8143 102.741 37.2623 103.2 37.5823 103.776C37.9023 104.352 38.0623 104.987 38.0623 105.68C38.0623 105.787 38.0569 105.904 38.0463 106.032C38.0463 106.149 38.0409 106.283 38.0303 106.432H31.8543C31.9076 107.2 32.1583 107.787 32.6063 108.192C33.0649 108.587 33.5929 108.784 34.1903 108.784C34.6703 108.784 35.0703 108.677 35.3903 108.464C35.7209 108.24 35.9663 107.941 36.1263 107.568H37.8223C37.6089 108.315 37.1823 108.939 36.5423 109.44C35.9129 109.941 35.1289 110.192 34.1903 110.192ZM34.1903 103.264C33.6249 103.264 33.1236 103.435 32.6863 103.776C32.2489 104.107 31.9823 104.608 31.8863 105.28H36.3663C36.3343 104.661 36.1156 104.171 35.7103 103.808C35.3049 103.445 34.7983 103.264 34.1903 103.264ZM42.9469 110C42.1682 110 41.5495 109.813 41.0909 109.44C40.6322 109.056 40.4029 108.379 40.4029 107.408V103.488H39.0429V102.064H40.4029L40.6109 100.048H42.0989V102.064H44.3389V103.488H42.0989V107.408C42.0989 107.845 42.1895 108.149 42.3709 108.32C42.5629 108.48 42.8882 108.56 43.3469 108.56H44.2589V110H42.9469ZM49.4156 110C48.637 110 48.0183 109.813 47.5596 109.44C47.101 109.056 46.8716 108.379 46.8716 107.408V103.488H45.5116V102.064H46.8716L47.0796 100.048H48.5676V102.064H50.8076V103.488H48.5676V107.408C48.5676 107.845 48.6583 108.149 48.8396 108.32C49.0316 108.48 49.357 108.56 49.8156 108.56H50.7276V110H49.4156ZM53.5164 100.56C53.1964 100.56 52.9297 100.464 52.7164 100.272C52.5137 100.069 52.4124 99.8187 52.4124 99.52C52.4124 99.2213 52.5137 98.976 52.7164 98.784C52.9297 98.5813 53.1964 98.48 53.5164 98.48C53.8364 98.48 54.0977 98.5813 54.3004 98.784C54.5137 98.976 54.6204 99.2213 54.6204 99.52C54.6204 99.8187 54.5137 100.069 54.3004 100.272C54.0977 100.464 53.8364 100.56 53.5164 100.56ZM52.6684 110V102.064H54.3644V110H52.6684ZM56.6033 110V102.064H58.1073L58.2353 103.456C58.4806 102.965 58.8379 102.581 59.3073 102.304C59.7873 102.016 60.3366 101.872 60.9553 101.872C61.9153 101.872 62.6673 102.171 63.2113 102.768C63.7659 103.365 64.0433 104.256 64.0433 105.44V110H62.3633V105.616C62.3633 104.08 61.7339 103.312 60.4753 103.312C59.8459 103.312 59.3233 103.536 58.9073 103.984C58.5019 104.432 58.2993 105.072 58.2993 105.904V110H56.6033ZM69.2888 107.568C68.8728 107.568 68.4888 107.52 68.1368 107.424L67.4488 108.096C67.5661 108.171 67.7101 108.235 67.8808 108.288C68.0514 108.341 68.2914 108.389 68.6008 108.432C68.9101 108.475 69.3314 108.517 69.8648 108.56C70.9208 108.656 71.6834 108.912 72.1528 109.328C72.6221 109.733 72.8568 110.277 72.8568 110.96C72.8568 111.429 72.7288 111.872 72.4728 112.288C72.2274 112.715 71.8381 113.056 71.3048 113.312C70.7821 113.579 70.1101 113.712 69.2888 113.712C68.1794 113.712 67.2781 113.499 66.5848 113.072C65.9021 112.656 65.5608 112.021 65.5608 111.168C65.5608 110.837 65.6461 110.507 65.8168 110.176C65.9981 109.856 66.2808 109.552 66.6648 109.264C66.4408 109.168 66.2434 109.067 66.0728 108.96C65.9128 108.843 65.7688 108.725 65.6408 108.608V108.224L67.0168 106.816C66.3981 106.283 66.0888 105.584 66.0888 104.72C66.0888 104.197 66.2114 103.723 66.4568 103.296C66.7128 102.859 67.0808 102.512 67.5608 102.256C68.0408 102 68.6168 101.872 69.2888 101.872C69.7368 101.872 70.1528 101.936 70.5368 102.064H73.4968V103.184L72.0888 103.264C72.3448 103.701 72.4728 104.187 72.4728 104.72C72.4728 105.253 72.3448 105.733 72.0888 106.16C71.8434 106.587 71.4808 106.928 71.0008 107.184C70.5314 107.44 69.9608 107.568 69.2888 107.568ZM69.2888 106.24C69.7794 106.24 70.1741 106.112 70.4728 105.856C70.7821 105.589 70.9368 105.216 70.9368 104.736C70.9368 104.245 70.7821 103.872 70.4728 103.616C70.1741 103.36 69.7794 103.232 69.2888 103.232C68.7874 103.232 68.3821 103.36 68.0728 103.616C67.7741 103.872 67.6248 104.245 67.6248 104.736C67.6248 105.216 67.7741 105.589 68.0728 105.856C68.3821 106.112 68.7874 106.24 69.2888 106.24ZM67.1608 111.008C67.1608 111.467 67.3634 111.808 67.7688 112.032C68.1741 112.267 68.6808 112.384 69.2888 112.384C69.8754 112.384 70.3501 112.256 70.7128 112C71.0754 111.755 71.2568 111.424 71.2568 111.008C71.2568 110.699 71.1341 110.432 70.8888 110.208C70.6434 109.995 70.1794 109.861 69.4968 109.808C68.9848 109.776 68.5314 109.728 68.1368 109.664C67.7634 109.867 67.5074 110.085 67.3688 110.32C67.2301 110.555 67.1608 110.784 67.1608 111.008ZM78.1775 110.192C77.1748 110.192 76.3482 109.947 75.6975 109.456C75.0468 108.965 74.6735 108.315 74.5775 107.504H76.2895C76.3748 107.867 76.5775 108.181 76.8975 108.448C77.2175 108.704 77.6388 108.832 78.1615 108.832C78.6735 108.832 79.0468 108.725 79.2815 108.512C79.5162 108.299 79.6335 108.053 79.6335 107.776C79.6335 107.371 79.4682 107.099 79.1375 106.96C78.8175 106.811 78.3695 106.677 77.7935 106.56C77.3455 106.464 76.8975 106.336 76.4495 106.176C76.0122 106.016 75.6442 105.792 75.3455 105.504C75.0575 105.205 74.9135 104.805 74.9135 104.304C74.9135 103.611 75.1802 103.035 75.7135 102.576C76.2468 102.107 76.9935 101.872 77.9535 101.872C78.8388 101.872 79.5535 102.085 80.0975 102.512C80.6522 102.939 80.9775 103.541 81.0735 104.32H79.4415C79.3882 103.979 79.2282 103.712 78.9615 103.52C78.7055 103.328 78.3588 103.232 77.9215 103.232C77.4948 103.232 77.1642 103.323 76.9295 103.504C76.6948 103.675 76.5775 103.899 76.5775 104.176C76.5775 104.453 76.7375 104.672 77.0575 104.832C77.3882 104.992 77.8202 105.136 78.3535 105.264C78.8868 105.381 79.3775 105.52 79.8255 105.68C80.2842 105.829 80.6522 106.053 80.9295 106.352C81.2068 106.651 81.3455 107.088 81.3455 107.664C81.3562 108.389 81.0735 108.992 80.4975 109.472C79.9322 109.952 79.1588 110.192 78.1775 110.192Z" fill="#087108"/>
</g>
<defs>
<filter id="filter0_d_6_1931" x="-42" y="83" width="459" height="174" filterUnits="userSpaceOnUse" color-interpolation-filters="sRGB">
<feFlood flood-opacity="0" result="BackgroundImageFix"/>
<feColorMatrix in="SourceAlpha" type="matrix" values="0 0 0 0 0 0 0 0 0 0 0 0 0 0 0 0 0 0 127 0" result="hardAlpha"/>
<feOffset dy="4"/>
<feGaussianBlur stdDeviation="31"/>
<feComposite in2="hardAlpha" operator="out"/>
<feColorMatrix type="matrix" values="0 0 0 0 0.600625 0 0 0 0 0.670375 0 0 0 0 0.775 0 0 0 0.18 0"/>
<feBlend mode="normal" in2="BackgroundImageFix" result="effect1_dropShadow_6_1931"/>
<feBlend mode="normal" in="SourceGraphic" in2="effect1_dropShadow_6_1931" result="shape"/>
</filter>
<filter id="filter1_d_6_1931" x="235" y="99" width="162" height="143" filterUnits="userSpaceOnUse" color-interpolation-filters="sRGB">
<feFlood flood-opacity="0" result="BackgroundImageFix"/>
<feColorMatrix in="SourceAlpha" type="matrix" values="0 0 0 0 0 0 0 0 0 0 0 0 0 0 0 0 0 0 127 0" result="hardAlpha"/>
<feOffset dy="4"/>
<feGaussianBlur stdDeviation="31"/>
<feComposite in2="hardAlpha" operator="out"/>
<feColorMatrix type="matrix" values="0 0 0 0 0.600625 0 0 0 0 0.670375 0 0 0 0 0.775 0 0 0 0.18 0"/>
<feBlend mode="normal" in2="BackgroundImageFix" result="effect1_dropShadow_6_1931"/>
<feBlend mode="normal" in="SourceGraphic" in2="effect1_dropShadow_6_1931" result="shape"/>
</filter>
<filter id="filter2_d_6_1931" x="-42" y="143" width="459" height="174" filterUnits="userSpaceOnUse" color-interpolation-filters="sRGB">
<feFlood flood-opacity="0" result="BackgroundImageFix"/>
<feColorMatrix in="SourceAlpha" type="matrix" values="0 0 0 0 0 0 0 0 0 0 0 0 0 0 0 0 0 0 127 0" result="hardAlpha"/>
<feOffset dy="4"/>
<feGaussianBlur stdDeviation="31"/>
<feComposite in2="hardAlpha" operator="out"/>
<feColorMatrix type="matrix" values="0 0 0 0 0.600625 0 0 0 0 0.670375 0 0 0 0 0.775 0 0 0 0.18 0"/>
<feBlend mode="normal" in2="BackgroundImageFix" result="effect1_dropShadow_6_1931"/>
<feBlend mode="normal" in="SourceGraphic" in2="effect1_dropShadow_6_1931" result="shape"/>
</filter>
<filter id="filter3_d_6_1931" x="235" y="159" width="162" height="143" filterUnits="userSpaceOnUse" color-interpolation-filters="sRGB">
<feFlood flood-opacity="0" result="BackgroundImageFix"/>
<feColorMatrix in="SourceAlpha" type="matrix" values="0 0 0 0 0 0 0 0 0 0 0 0 0 0 0 0 0 0 127 0" result="hardAlpha"/>
<feOffset dy="4"/>
<feGaussianBlur stdDeviation="31"/>
<feComposite in2="hardAlpha" operator="out"/>
<feColorMatrix type="matrix" values="0 0 0 0 0.600625 0 0 0 0 0.670375 0 0 0 0 0.775 0 0 0 0.18 0"/>
<feBlend mode="normal" in2="BackgroundImageFix" result="effect1_dropShadow_6_1931"/>
<feBlend mode="normal" in="SourceGraphic" in2="effect1_dropShadow_6_1931" result="shape"/>
</filter>
<filter id="filter4_d_6_1931" x="-42" y="203" width="459" height="174" filterUnits="userSpaceOnUse" color-interpolation-filters="sRGB">
<feFlood flood-opacity="0" result="BackgroundImageFix"/>
<feColorMatrix in="SourceAlpha" type="matrix" values="0 0 0 0 0 0 0 0 0 0 0 0 0 0 0 0 0 0 127 0" result="hardAlpha"/>
<feOffset dy="4"/>
<feGaussianBlur stdDeviation="31"/>
<feComposite in2="hardAlpha" operator="out"/>
<feColorMatrix type="matrix" values="0 0 0 0 0.600625 0 0 0 0 0.670375 0 0 0 0 0.775 0 0 0 0.18 0"/>
<feBlend mode="normal" in2="BackgroundImageFix" result="effect1_dropShadow_6_1931"/>
<feBlend mode="normal" in="SourceGraphic" in2="effect1_dropShadow_6_1931" result="shape"/>
</filter>
<filter id="filter5_d_6_1931" x="-42" y="263" width="459" height="174" filterUnits="userSpaceOnUse" color-interpolation-filters="sRGB">
<feFlood flood-opacity="0" result="BackgroundImageFix"/>
<feColorMatrix in="SourceAlpha" type="matrix" values="0 0 0 0 0 0 0 0 0 0 0 0 0 0 0 0 0 0 127 0" result="hardAlpha"/>
<feOffset dy="4"/>
<feGaussianBlur stdDeviation="31"/>
<feComposite in2="hardAlpha" operator="out"/>
<feColorMatrix type="matrix" values="0 0 0 0 0.600625 0 0 0 0 0.670375 0 0 0 0 0.775 0 0 0 0.18 0"/>
<feBlend mode="normal" in2="BackgroundImageFix" result="effect1_dropShadow_6_1931"/>
<feBlend mode="normal" in="SourceGraphic" in2="effect1_dropShadow_6_1931" result="shape"/>
</filter>
<filter id="filter6_d_6_1931" x="19" y="613" width="337" height="174" filterUnits="userSpaceOnUse" color-interpolation-filters="sRGB">
<feFlood flood-opacity="0" result="BackgroundImageFix"/>
<feColorMatrix in="SourceAlpha" type="matrix" values="0 0 0 0 0 0 0 0 0 0 0 0 0 0 0 0 0 0 127 0" result="hardAlpha"/>
<feOffset dy="4"/>
<feGaussianBlur stdDeviation="31"/>
<feComposite in2="hardAlpha" operator="out"/>
<feColorMatrix type="matrix" values="0 0 0 0 0.600625 0 0 0 0 0.670375 0 0 0 0 0.775 0 0 0 0.18 0"/>
<feBlend mode="normal" in2="BackgroundImageFix" result="effect1_dropShadow_6_1931"/>
<feBlend mode="normal" in="SourceGraphic" in2="effect1_dropShadow_6_1931" result="shape"/>
</filter>
<clipPath id="clip0_6_1931">
<rect width="375" height="812" fill="white"/>
</clipPath>
</defs>
</svg>
