<svg width="375" height="812" viewBox="0 0 375 812" fill="none" xmlns="http://www.w3.org/2000/svg">
<rect width="375" height="812" fill="#F9F9F9"/>
<path d="M217.224 62V49.4H219.528V60.2H225.108V62H217.224ZM230.964 62.216C230.1 62.216 229.32 62.018 228.624 61.622C227.94 61.226 227.394 60.68 226.986 59.984C226.59 59.276 226.392 58.46 226.392 57.536C226.392 56.612 226.596 55.802 227.004 55.106C227.412 54.398 227.958 53.846 228.642 53.45C229.338 53.054 230.118 52.856 230.982 52.856C231.834 52.856 232.602 53.054 233.286 53.45C233.982 53.846 234.528 54.398 234.924 55.106C235.332 55.802 235.536 56.612 235.536 57.536C235.536 58.46 235.332 59.276 234.924 59.984C234.528 60.68 233.982 61.226 233.286 61.622C232.59 62.018 231.816 62.216 230.964 62.216ZM230.964 60.218C231.564 60.218 232.086 59.996 232.53 59.552C232.974 59.096 233.196 58.424 233.196 57.536C233.196 56.648 232.974 55.982 232.53 55.538C232.086 55.082 231.57 54.854 230.982 54.854C230.37 54.854 229.842 55.082 229.398 55.538C228.966 55.982 228.75 56.648 228.75 57.536C228.75 58.424 228.966 59.096 229.398 59.552C229.842 59.996 230.364 60.218 230.964 60.218ZM241.97 62.216C241.058 62.216 240.254 62.018 239.558 61.622C238.862 61.226 238.31 60.674 237.902 59.966C237.506 59.258 237.308 58.448 237.308 57.536C237.308 56.624 237.506 55.814 237.902 55.106C238.31 54.398 238.862 53.846 239.558 53.45C240.254 53.054 241.058 52.856 241.97 52.856C243.11 52.856 244.07 53.156 244.85 53.756C245.63 54.344 246.128 55.16 246.344 56.204H243.914C243.794 55.772 243.554 55.436 243.194 55.196C242.846 54.944 242.432 54.818 241.952 54.818C241.316 54.818 240.776 55.058 240.332 55.538C239.888 56.018 239.666 56.684 239.666 57.536C239.666 58.388 239.888 59.054 240.332 59.534C240.776 60.014 241.316 60.254 241.952 60.254C242.432 60.254 242.846 60.134 243.194 59.894C243.554 59.654 243.794 59.312 243.914 58.868H246.344C246.128 59.876 245.63 60.686 244.85 61.298C244.07 61.91 243.11 62.216 241.97 62.216ZM251.737 62.216C250.621 62.216 249.757 61.868 249.145 61.172C248.545 60.476 248.245 59.456 248.245 58.112V53.072H250.531V57.896C250.531 58.664 250.687 59.252 250.999 59.66C251.311 60.068 251.803 60.272 252.475 60.272C253.111 60.272 253.633 60.044 254.041 59.588C254.461 59.132 254.671 58.496 254.671 57.68V53.072H256.975V62H254.941L254.761 60.488C254.485 61.016 254.083 61.436 253.555 61.748C253.039 62.06 252.433 62.216 251.737 62.216ZM259.34 62V53.072H261.374L261.572 54.278C261.86 53.846 262.238 53.504 262.706 53.252C263.186 52.988 263.738 52.856 264.362 52.856C265.742 52.856 266.72 53.39 267.296 54.458C267.62 53.966 268.052 53.576 268.592 53.288C269.144 53 269.744 52.856 270.392 52.856C271.556 52.856 272.45 53.204 273.074 53.9C273.698 54.596 274.01 55.616 274.01 56.96V62H271.706V57.176C271.706 56.408 271.556 55.82 271.256 55.412C270.968 55.004 270.518 54.8 269.906 54.8C269.282 54.8 268.778 55.028 268.394 55.484C268.022 55.94 267.836 56.576 267.836 57.392V62H265.532V57.176C265.532 56.408 265.382 55.82 265.082 55.412C264.782 55.004 264.32 54.8 263.696 54.8C263.084 54.8 262.586 55.028 262.202 55.484C261.83 55.94 261.644 56.576 261.644 57.392V62H259.34ZM276.251 62V49.4H284.387V51.254H278.555V54.782H283.271V56.6H278.555V62H276.251ZM286.165 62V49.4H288.469V62H286.165ZM290.858 62V53.072H292.892L293.072 54.584C293.348 54.056 293.744 53.636 294.26 53.324C294.788 53.012 295.406 52.856 296.114 52.856C297.218 52.856 298.076 53.204 298.688 53.9C299.299 54.596 299.605 55.616 299.605 56.96V62H297.302V57.176C297.302 56.408 297.146 55.82 296.834 55.412C296.522 55.004 296.036 54.8 295.376 54.8C294.728 54.8 294.194 55.028 293.774 55.484C293.366 55.94 293.162 56.576 293.162 57.392V62H290.858ZM305.913 62.216C305.073 62.216 304.323 62.012 303.663 61.604C303.003 61.196 302.481 60.638 302.097 59.93C301.713 59.222 301.521 58.418 301.521 57.518C301.521 56.618 301.713 55.82 302.097 55.124C302.481 54.416 303.003 53.864 303.663 53.468C304.323 53.06 305.073 52.856 305.913 52.856C306.585 52.856 307.173 52.982 307.677 53.234C308.181 53.486 308.589 53.84 308.901 54.296V49.04H311.205V62H309.153L308.901 60.722C308.613 61.118 308.229 61.466 307.749 61.766C307.281 62.066 306.669 62.216 305.913 62.216ZM306.399 60.2C307.143 60.2 307.749 59.954 308.217 59.462C308.697 58.958 308.937 58.316 308.937 57.536C308.937 56.756 308.697 56.12 308.217 55.628C307.749 55.124 307.143 54.872 306.399 54.872C305.667 54.872 305.061 55.118 304.581 55.61C304.101 56.102 303.861 56.738 303.861 57.518C303.861 58.298 304.101 58.94 304.581 59.444C305.061 59.948 305.667 60.2 306.399 60.2ZM317.889 62.216C316.989 62.216 316.191 62.024 315.495 61.64C314.799 61.256 314.253 60.716 313.857 60.02C313.461 59.324 313.263 58.52 313.263 57.608C313.263 56.684 313.455 55.862 313.839 55.142C314.235 54.422 314.775 53.864 315.459 53.468C316.155 53.06 316.971 52.856 317.907 52.856C318.783 52.856 319.557 53.048 320.229 53.432C320.901 53.816 321.423 54.344 321.795 55.016C322.179 55.676 322.371 56.414 322.371 57.23C322.371 57.362 322.365 57.5 322.353 57.644C322.353 57.788 322.347 57.938 322.335 58.094H315.549C315.597 58.79 315.837 59.336 316.269 59.732C316.713 60.128 317.247 60.326 317.871 60.326C318.339 60.326 318.729 60.224 319.041 60.02C319.365 59.804 319.605 59.528 319.761 59.192H322.101C321.933 59.756 321.651 60.272 321.255 60.74C320.871 61.196 320.391 61.556 319.815 61.82C319.251 62.084 318.609 62.216 317.889 62.216ZM317.907 54.728C317.343 54.728 316.845 54.89 316.413 55.214C315.981 55.526 315.705 56.006 315.585 56.654H320.031C319.995 56.066 319.779 55.598 319.383 55.25C318.987 54.902 318.495 54.728 317.907 54.728ZM324.309 62V53.072H326.361L326.577 54.746C326.901 54.17 327.339 53.714 327.891 53.378C328.455 53.03 329.115 52.856 329.871 52.856V55.286H329.223C328.719 55.286 328.269 55.364 327.873 55.52C327.477 55.676 327.165 55.946 326.937 56.33C326.721 56.714 326.613 57.248 326.613 57.932V62H324.309ZM331.499 62V49.4H333.803V54.494L338.465 49.4H341.309L336.665 54.404L341.435 62H338.609L335.009 56.168L333.803 57.482V62H331.499ZM346.559 62.216C345.659 62.216 344.861 62.024 344.165 61.64C343.469 61.256 342.923 60.716 342.527 60.02C342.131 59.324 341.933 58.52 341.933 57.608C341.933 56.684 342.125 55.862 342.509 55.142C342.905 54.422 343.445 53.864 344.129 53.468C344.825 53.06 345.641 52.856 346.577 52.856C347.453 52.856 348.227 53.048 348.899 53.432C349.571 53.816 350.093 54.344 350.465 55.016C350.849 55.676 351.041 56.414 351.041 57.23C351.041 57.362 351.035 57.5 351.023 57.644C351.023 57.788 351.017 57.938 351.005 58.094H344.219C344.267 58.79 344.507 59.336 344.939 59.732C345.383 60.128 345.917 60.326 346.541 60.326C347.009 60.326 347.399 60.224 347.711 60.02C348.035 59.804 348.275 59.528 348.431 59.192H350.771C350.603 59.756 350.321 60.272 349.925 60.74C349.541 61.196 349.061 61.556 348.485 61.82C347.921 62.084 347.279 62.216 346.559 62.216ZM346.577 54.728C346.013 54.728 345.515 54.89 345.083 55.214C344.651 55.526 344.375 56.006 344.255 56.654H348.701C348.665 56.066 348.449 55.598 348.053 55.25C347.657 54.902 347.165 54.728 346.577 54.728Z" fill="black"/>
<path d="M30.72 579V551H48.8V555.12H35.84V562.96H46.32V567H35.84V579H30.72ZM55.3913 556.08C54.4579 556.08 53.6846 555.8 53.0713 555.24C52.4846 554.68 52.1913 553.973 52.1913 553.12C52.1913 552.267 52.4846 551.573 53.0713 551.04C53.6846 550.48 54.4579 550.2 55.3913 550.2C56.3246 550.2 57.0846 550.48 57.6713 551.04C58.2846 551.573 58.5913 552.267 58.5913 553.12C58.5913 553.973 58.2846 554.68 57.6713 555.24C57.0846 555.8 56.3246 556.08 55.3913 556.08ZM52.8313 579V559.16H57.9513V579H52.8313ZM63.2953 579V559.16H67.8153L68.2153 562.52C68.8286 561.347 69.7086 560.413 70.8553 559.72C72.0286 559.027 73.402 558.68 74.9753 558.68C77.4286 558.68 79.3353 559.453 80.6953 561C82.0553 562.547 82.7353 564.813 82.7353 567.8V579H77.6153V568.28C77.6153 566.573 77.2686 565.267 76.5753 564.36C75.882 563.453 74.802 563 73.3353 563C71.8953 563 70.7086 563.507 69.7753 564.52C68.8686 565.533 68.4153 566.947 68.4153 568.76V579H63.2953ZM96.7513 579.48C94.8846 579.48 93.2179 579.027 91.7513 578.12C90.2846 577.213 89.1246 575.973 88.2713 574.4C87.4179 572.827 86.9913 571.04 86.9913 569.04C86.9913 567.04 87.4179 565.267 88.2713 563.72C89.1246 562.147 90.2846 560.92 91.7513 560.04C93.2179 559.133 94.8846 558.68 96.7513 558.68C98.2446 558.68 99.5513 558.96 100.671 559.52C101.791 560.08 102.698 560.867 103.391 561.88V550.2H108.511V579H103.951L103.391 576.16C102.751 577.04 101.898 577.813 100.831 578.48C99.7913 579.147 98.4313 579.48 96.7513 579.48ZM97.8313 575C99.4846 575 100.831 574.453 101.871 573.36C102.938 572.24 103.471 570.813 103.471 569.08C103.471 567.347 102.938 565.933 101.871 564.84C100.831 563.72 99.4846 563.16 97.8313 563.16C96.2046 563.16 94.8579 563.707 93.7913 564.8C92.7246 565.893 92.1913 567.307 92.1913 569.04C92.1913 570.773 92.7246 572.2 93.7913 573.32C94.8579 574.44 96.2046 575 97.8313 575ZM130.616 579V569.04L121.216 551H127.016L133.216 563.92L139.376 551H145.096L135.736 569.04V579H130.616ZM154.222 579.48C152.302 579.48 150.568 579.04 149.022 578.16C147.502 577.28 146.288 576.067 145.382 574.52C144.502 572.947 144.062 571.133 144.062 569.08C144.062 567.027 144.515 565.227 145.422 563.68C146.328 562.107 147.542 560.88 149.062 560C150.608 559.12 152.342 558.68 154.262 558.68C156.155 558.68 157.862 559.12 159.382 560C160.928 560.88 162.142 562.107 163.022 563.68C163.928 565.227 164.382 567.027 164.382 569.08C164.382 571.133 163.928 572.947 163.022 574.52C162.142 576.067 160.928 577.28 159.382 578.16C157.835 579.04 156.115 579.48 154.222 579.48ZM154.222 575.04C155.555 575.04 156.715 574.547 157.702 573.56C158.688 572.547 159.182 571.053 159.182 569.08C159.182 567.107 158.688 565.627 157.702 564.64C156.715 563.627 155.568 563.12 154.262 563.12C152.902 563.12 151.728 563.627 150.742 564.64C149.782 565.627 149.302 567.107 149.302 569.08C149.302 571.053 149.782 572.547 150.742 573.56C151.728 574.547 152.888 575.04 154.222 575.04ZM176.399 579.48C173.919 579.48 171.999 578.707 170.639 577.16C169.306 575.613 168.639 573.347 168.639 570.36V559.16H173.719V569.88C173.719 571.587 174.066 572.893 174.759 573.8C175.453 574.707 176.546 575.16 178.039 575.16C179.453 575.16 180.613 574.653 181.519 573.64C182.453 572.627 182.919 571.213 182.919 569.4V559.16H188.039V579H183.519L183.119 575.64C182.506 576.813 181.613 577.747 180.439 578.44C179.293 579.133 177.946 579.48 176.399 579.48ZM193.295 579V559.16H197.855L198.335 562.88C199.055 561.6 200.029 560.587 201.255 559.84C202.509 559.067 203.975 558.68 205.655 558.68V564.08H204.215C203.095 564.08 202.095 564.253 201.215 564.6C200.335 564.947 199.642 565.547 199.135 566.4C198.655 567.253 198.415 568.44 198.415 569.96V579H193.295ZM30.72 655V627H35.84V638.64H48.4V627H53.52V655H48.4V642.8H35.84V655H30.72ZM68.4822 655.48C66.4822 655.48 64.7089 655.053 63.1622 654.2C61.6155 653.347 60.4022 652.147 59.5222 650.6C58.6422 649.053 58.2022 647.267 58.2022 645.24C58.2022 643.187 58.6289 641.36 59.4822 639.76C60.3622 638.16 61.5622 636.92 63.0822 636.04C64.6289 635.133 66.4422 634.68 68.5222 634.68C70.4689 634.68 72.1889 635.107 73.6822 635.96C75.1755 636.813 76.3355 637.987 77.1622 639.48C78.0155 640.947 78.4422 642.587 78.4422 644.4C78.4422 644.693 78.4289 645 78.4022 645.32C78.4022 645.64 78.3889 645.973 78.3622 646.32H63.2822C63.3889 647.867 63.9222 649.08 64.8822 649.96C65.8689 650.84 67.0555 651.28 68.4422 651.28C69.4822 651.28 70.3489 651.053 71.0422 650.6C71.7622 650.12 72.2955 649.507 72.6422 648.76H77.8422C77.4689 650.013 76.8422 651.16 75.9622 652.2C75.1089 653.213 74.0422 654.013 72.7622 654.6C71.5089 655.187 70.0822 655.48 68.4822 655.48ZM68.5222 638.84C67.2689 638.84 66.1622 639.2 65.2022 639.92C64.2422 640.613 63.6289 641.68 63.3622 643.12H73.2422C73.1622 641.813 72.6822 640.773 71.8022 640C70.9222 639.227 69.8289 638.84 68.5222 638.84ZM82.7484 655V635.16H87.3084L87.7884 638.88C88.5084 637.6 89.4818 636.587 90.7084 635.84C91.9618 635.067 93.4284 634.68 95.1084 634.68V640.08H93.6684C92.5484 640.08 91.5484 640.253 90.6684 640.6C89.7884 640.947 89.0951 641.547 88.5884 642.4C88.1084 643.253 87.8684 644.44 87.8684 645.96V655H82.7484ZM107.896 655.48C105.896 655.48 104.123 655.053 102.576 654.2C101.03 653.347 99.8163 652.147 98.9363 650.6C98.0563 649.053 97.6163 647.267 97.6163 645.24C97.6163 643.187 98.0429 641.36 98.8963 639.76C99.7763 638.16 100.976 636.92 102.496 636.04C104.043 635.133 105.856 634.68 107.936 634.68C109.883 634.68 111.603 635.107 113.096 635.96C114.59 636.813 115.75 637.987 116.576 639.48C117.43 640.947 117.856 642.587 117.856 644.4C117.856 644.693 117.843 645 117.816 645.32C117.816 645.64 117.803 645.973 117.776 646.32H102.696C102.803 647.867 103.336 649.08 104.296 649.96C105.283 650.84 106.47 651.28 107.856 651.28C108.896 651.28 109.763 651.053 110.456 650.6C111.176 650.12 111.71 649.507 112.056 648.76H117.256C116.883 650.013 116.256 651.16 115.376 652.2C114.523 653.213 113.456 654.013 112.176 654.6C110.923 655.187 109.496 655.48 107.896 655.48ZM107.936 638.84C106.683 638.84 105.576 639.2 104.616 639.92C103.656 640.613 103.043 641.68 102.776 643.12H112.656C112.576 641.813 112.096 640.773 111.216 640C110.336 639.227 109.243 638.84 107.936 638.84ZM123.243 646.16L122.683 627H128.163L127.563 646.16H123.243ZM125.523 655.28C124.563 655.28 123.776 654.987 123.163 654.4C122.576 653.813 122.283 653.107 122.283 652.28C122.283 651.427 122.576 650.707 123.163 650.12C123.776 649.533 124.563 649.24 125.523 649.24C126.429 649.24 127.176 649.533 127.763 650.12C128.376 650.707 128.683 651.427 128.683 652.28C128.683 653.107 128.376 653.813 127.763 654.4C127.176 654.987 126.429 655.28 125.523 655.28Z" fill="black"/>
<path d="M30.72 617V589H35.84V600.64H48.4V589H53.52V617H48.4V604.8H35.84V617H30.72ZM68.4822 617.48C66.4822 617.48 64.7089 617.053 63.1622 616.2C61.6155 615.347 60.4022 614.147 59.5222 612.6C58.6422 611.053 58.2022 609.267 58.2022 607.24C58.2022 605.187 58.6289 603.36 59.4822 601.76C60.3622 600.16 61.5622 598.92 63.0822 598.04C64.6289 597.133 66.4422 596.68 68.5222 596.68C70.4689 596.68 72.1889 597.107 73.6822 597.96C75.1755 598.813 76.3355 599.987 77.1622 601.48C78.0155 602.947 78.4422 604.587 78.4422 606.4C78.4422 606.693 78.4289 607 78.4022 607.32C78.4022 607.64 78.3889 607.973 78.3622 608.32H63.2822C63.3889 609.867 63.9222 611.08 64.8822 611.96C65.8689 612.84 67.0555 613.28 68.4422 613.28C69.4822 613.28 70.3489 613.053 71.0422 612.6C71.7622 612.12 72.2955 611.507 72.6422 610.76H77.8422C77.4689 612.013 76.8422 613.16 75.9622 614.2C75.1089 615.213 74.0422 616.013 72.7622 616.6C71.5089 617.187 70.0822 617.48 68.4822 617.48ZM68.5222 600.84C67.2689 600.84 66.1622 601.2 65.2022 601.92C64.2422 602.613 63.6289 603.68 63.3622 605.12H73.2422C73.1622 603.813 72.6822 602.773 71.8022 602C70.9222 601.227 69.8289 600.84 68.5222 600.84ZM89.5884 617.48C87.8818 617.48 86.4818 617.213 85.3884 616.68C84.2951 616.12 83.4818 615.387 82.9484 614.48C82.4151 613.573 82.1484 612.573 82.1484 611.48C82.1484 609.64 82.8684 608.147 84.3084 607C85.7484 605.853 87.9084 605.28 90.7884 605.28H95.8284V604.8C95.8284 603.44 95.4418 602.44 94.6684 601.8C93.8951 601.16 92.9351 600.84 91.7884 600.84C90.7484 600.84 89.8418 601.093 89.0684 601.6C88.2951 602.08 87.8151 602.8 87.6284 603.76H82.6284C82.7618 602.32 83.2418 601.067 84.0684 600C84.9218 598.933 86.0151 598.12 87.3484 597.56C88.6818 596.973 90.1751 596.68 91.8284 596.68C94.6551 596.68 96.8818 597.387 98.5084 598.8C100.135 600.213 100.948 602.213 100.948 604.8V617H96.5884L96.1084 613.8C95.5218 614.867 94.6951 615.747 93.6284 616.44C92.5884 617.133 91.2418 617.48 89.5884 617.48ZM90.7484 613.48C92.2151 613.48 93.3484 613 94.1484 612.04C94.9751 611.08 95.4951 609.893 95.7084 608.48H91.3484C89.9884 608.48 89.0151 608.733 88.4284 609.24C87.8418 609.72 87.5484 610.32 87.5484 611.04C87.5484 611.813 87.8418 612.413 88.4284 612.84C89.0151 613.267 89.7884 613.48 90.7484 613.48ZM105.834 617V588.2H110.954V617H105.834ZM125.026 617C122.946 617 121.279 616.493 120.026 615.48C118.773 614.467 118.146 612.667 118.146 610.08V601.44H114.746V597.16H118.146L118.746 591.84H123.266V597.16H128.626V601.44H123.266V610.12C123.266 611.08 123.466 611.747 123.866 612.12C124.293 612.467 125.013 612.64 126.026 612.64H128.506V617H125.026ZM133.022 617V588.2H138.142V600.2C138.809 599.107 139.702 598.253 140.822 597.64C141.969 597 143.275 596.68 144.742 596.68C147.195 596.68 149.089 597.453 150.422 599C151.782 600.547 152.462 602.813 152.462 605.8V617H147.382V606.28C147.382 604.573 147.035 603.267 146.342 602.36C145.675 601.453 144.609 601 143.142 601C141.702 601 140.502 601.507 139.542 602.52C138.609 603.533 138.142 604.947 138.142 606.76V617H133.022ZM167.078 617.48C165.051 617.48 163.264 617.04 161.718 616.16C160.171 615.28 158.944 614.053 158.038 612.48C157.158 610.907 156.718 609.107 156.718 607.08C156.718 605.053 157.158 603.253 158.038 601.68C158.944 600.107 160.171 598.88 161.718 598C163.264 597.12 165.051 596.68 167.078 596.68C169.611 596.68 171.744 597.347 173.478 598.68C175.211 599.987 176.318 601.8 176.798 604.12H171.398C171.131 603.16 170.598 602.413 169.798 601.88C169.024 601.32 168.104 601.04 167.038 601.04C165.624 601.04 164.424 601.573 163.438 602.64C162.451 603.707 161.958 605.187 161.958 607.08C161.958 608.973 162.451 610.453 163.438 611.52C164.424 612.587 165.624 613.12 167.038 613.12C168.104 613.12 169.024 612.853 169.798 612.32C170.598 611.787 171.131 611.027 171.398 610.04H176.798C176.318 612.28 175.211 614.08 173.478 615.44C171.744 616.8 169.611 617.48 167.078 617.48ZM188.182 617.48C186.476 617.48 185.076 617.213 183.982 616.68C182.889 616.12 182.076 615.387 181.542 614.48C181.009 613.573 180.742 612.573 180.742 611.48C180.742 609.64 181.462 608.147 182.902 607C184.342 605.853 186.502 605.28 189.382 605.28H194.422V604.8C194.422 603.44 194.036 602.44 193.262 601.8C192.489 601.16 191.529 600.84 190.382 600.84C189.342 600.84 188.436 601.093 187.662 601.6C186.889 602.08 186.409 602.8 186.222 603.76H181.222C181.356 602.32 181.836 601.067 182.662 600C183.516 598.933 184.609 598.12 185.942 597.56C187.276 596.973 188.769 596.68 190.422 596.68C193.249 596.68 195.476 597.387 197.102 598.8C198.729 600.213 199.542 602.213 199.542 604.8V617H195.182L194.702 613.8C194.116 614.867 193.289 615.747 192.222 616.44C191.182 617.133 189.836 617.48 188.182 617.48ZM189.342 613.48C190.809 613.48 191.942 613 192.742 612.04C193.569 611.08 194.089 609.893 194.302 608.48H189.942C188.582 608.48 187.609 608.733 187.022 609.24C186.436 609.72 186.142 610.32 186.142 611.04C186.142 611.813 186.436 612.413 187.022 612.84C187.609 613.267 188.382 613.48 189.342 613.48ZM204.428 617V597.16H208.988L209.468 600.88C210.188 599.6 211.161 598.587 212.388 597.84C213.641 597.067 215.108 596.68 216.788 596.68V602.08H215.348C214.228 602.08 213.228 602.253 212.348 602.6C211.468 602.947 210.775 603.547 210.268 604.4C209.788 605.253 209.548 606.44 209.548 607.96V617H204.428ZM229.576 617.48C227.576 617.48 225.803 617.053 224.256 616.2C222.709 615.347 221.496 614.147 220.616 612.6C219.736 611.053 219.296 609.267 219.296 607.24C219.296 605.187 219.723 603.36 220.576 601.76C221.456 600.16 222.656 598.92 224.176 598.04C225.723 597.133 227.536 596.68 229.616 596.68C231.563 596.68 233.283 597.107 234.776 597.96C236.269 598.813 237.429 599.987 238.256 601.48C239.109 602.947 239.536 604.587 239.536 606.4C239.536 606.693 239.523 607 239.496 607.32C239.496 607.64 239.483 607.973 239.456 608.32H224.376C224.483 609.867 225.016 611.08 225.976 611.96C226.963 612.84 228.149 613.28 229.536 613.28C230.576 613.28 231.443 613.053 232.136 612.6C232.856 612.12 233.389 611.507 233.736 610.76H238.936C238.563 612.013 237.936 613.16 237.056 614.2C236.203 615.213 235.136 616.013 233.856 616.6C232.603 617.187 231.176 617.48 229.576 617.48ZM229.616 600.84C228.363 600.84 227.256 601.2 226.296 601.92C225.336 602.613 224.723 603.68 224.456 605.12H234.336C234.256 603.813 233.776 602.773 232.896 602C232.016 601.227 230.923 600.84 229.616 600.84ZM260.813 617.48C258.093 617.48 255.907 616.72 254.253 615.2C252.627 613.653 251.813 611.467 251.813 608.64H256.933C256.96 609.947 257.267 610.987 257.853 611.76C258.44 612.533 259.387 612.92 260.693 612.92C261.92 612.92 262.813 612.56 263.373 611.84C263.933 611.093 264.213 610.12 264.213 608.92V589H269.333V608.92C269.333 611.667 268.56 613.787 267.013 615.28C265.493 616.747 263.427 617.48 260.813 617.48ZM284.183 617.48C282.263 617.48 280.529 617.04 278.983 616.16C277.463 615.28 276.249 614.067 275.343 612.52C274.463 610.947 274.023 609.133 274.023 607.08C274.023 605.027 274.476 603.227 275.383 601.68C276.289 600.107 277.503 598.88 279.023 598C280.569 597.12 282.303 596.68 284.223 596.68C286.116 596.68 287.823 597.12 289.343 598C290.889 598.88 292.103 600.107 292.983 601.68C293.889 603.227 294.343 605.027 294.343 607.08C294.343 609.133 293.889 610.947 292.983 612.52C292.103 614.067 290.889 615.28 289.343 616.16C287.796 617.04 286.076 617.48 284.183 617.48ZM284.183 613.04C285.516 613.04 286.676 612.547 287.663 611.56C288.649 610.547 289.143 609.053 289.143 607.08C289.143 605.107 288.649 603.627 287.663 602.64C286.676 601.627 285.529 601.12 284.223 601.12C282.863 601.12 281.689 601.627 280.703 602.64C279.743 603.627 279.263 605.107 279.263 607.08C279.263 609.053 279.743 610.547 280.703 611.56C281.689 612.547 282.849 613.04 284.183 613.04ZM310.68 617.48C309.187 617.48 307.88 617.2 306.76 616.64C305.64 616.08 304.734 615.293 304.04 614.28L303.48 617H298.92V588.2H304.04V600C304.68 599.12 305.52 598.347 306.56 597.68C307.627 597.013 309 596.68 310.68 596.68C312.547 596.68 314.214 597.133 315.68 598.04C317.147 598.947 318.307 600.187 319.16 601.76C320.014 603.333 320.44 605.12 320.44 607.12C320.44 609.12 320.014 610.907 319.16 612.48C318.307 614.027 317.147 615.253 315.68 616.16C314.214 617.04 312.547 617.48 310.68 617.48ZM309.6 613C311.227 613 312.574 612.453 313.64 611.36C314.707 610.267 315.24 608.853 315.24 607.12C315.24 605.387 314.707 603.96 313.64 602.84C312.574 601.72 311.227 601.16 309.6 601.16C307.947 601.16 306.587 601.72 305.52 602.84C304.48 603.933 303.96 605.347 303.96 607.08C303.96 608.813 304.48 610.24 305.52 611.36C306.587 612.453 307.947 613 309.6 613Z" fill="#087108"/>
<path d="M28 622H322.4V624H28V622Z" fill="#087108"/>
<path fill-rule="evenodd" clip-rule="evenodd" d="M164.364 190.983C205.359 192.524 246.183 198.612 277.836 224.59C312.813 253.296 344.608 292.448 342.937 337.541C341.298 381.769 305.682 416.371 269.763 442.456C239.447 464.472 201.76 470.337 164.364 467.225C130.463 464.403 97.2333 452.091 75.2309 426.264C54.6896 402.153 58.8152 368.772 53.8832 337.541C47.2666 295.643 16.4087 249.645 41.9816 215.722C67.954 181.268 121.121 189.357 164.364 190.983Z" fill="#62C584"/>
<path d="M224.161 237.394H222.856V201.669C222.856 198.953 222.322 196.265 221.283 193.756C220.244 191.247 218.721 188.968 216.801 187.047C214.881 185.127 212.601 183.604 210.093 182.565C207.584 181.526 204.895 180.991 202.18 180.991H126.49C121.006 180.991 115.747 183.169 111.869 187.047C107.992 190.924 105.813 196.184 105.813 201.668V397.662C105.813 403.146 107.992 408.405 111.869 412.283C115.747 416.16 121.006 418.339 126.49 418.339H202.18C207.664 418.339 212.923 416.16 216.801 412.283C220.679 408.405 222.857 403.146 222.857 397.662V262.824H224.162L224.161 237.394Z" fill="#3F3D56"/>
<path d="M218.456 201.813V397.518C218.456 401.613 216.829 405.541 213.933 408.437C211.037 411.333 207.109 412.96 203.014 412.96H126.961C122.866 412.96 118.938 411.333 116.042 408.437C113.146 405.541 111.519 401.613 111.519 397.518V201.813C111.52 197.718 113.147 193.79 116.042 190.895C118.938 187.999 122.866 186.372 126.961 186.372H136.187C135.734 187.486 135.561 188.695 135.685 189.891C135.808 191.087 136.223 192.235 136.894 193.233C137.565 194.232 138.471 195.05 139.533 195.616C140.594 196.181 141.778 196.478 142.981 196.479H186.342C187.545 196.478 188.729 196.181 189.79 195.615C190.852 195.05 191.758 194.232 192.429 193.233C193.1 192.235 193.515 191.087 193.638 189.891C193.761 188.694 193.589 187.486 193.135 186.372H203.014C207.109 186.372 211.037 187.999 213.933 190.895C216.829 193.791 218.456 197.719 218.456 201.814V201.813Z" fill="white"/>
<path d="M122.134 205.888C122.559 205.888 122.902 205.544 122.902 205.12C122.902 204.696 122.559 204.352 122.134 204.352C121.71 204.352 121.366 204.696 121.366 205.12C121.366 205.544 121.71 205.888 122.134 205.888Z" fill="#3F3D56"/>
<path d="M124.951 205.888C125.375 205.888 125.719 205.544 125.719 205.12C125.719 204.696 125.375 204.352 124.951 204.352C124.526 204.352 124.183 204.696 124.183 205.12C124.183 205.544 124.526 205.888 124.951 205.888Z" fill="#3F3D56"/>
<path d="M127.767 205.888C128.191 205.888 128.535 205.544 128.535 205.12C128.535 204.696 128.191 204.352 127.767 204.352C127.343 204.352 126.999 204.696 126.999 205.12C126.999 205.544 127.343 205.888 127.767 205.888Z" fill="#3F3D56"/>
<path d="M208.162 203.072H200.225V204.096H208.162V203.072Z" fill="#3F3D56"/>
<path d="M208.162 204.608H200.225V205.632H208.162V204.608Z" fill="#3F3D56"/>
<path d="M208.162 206.145H200.225V207.169H208.162V206.145Z" fill="#3F3D56"/>
<path d="M167.473 218.364H128.558C126.825 218.366 125.164 219.163 123.938 220.578C122.712 221.994 122.023 223.914 122.02 225.917V319.965H196.119V251.474C196.11 242.696 193.089 234.28 187.719 228.073C182.349 221.866 175.067 218.375 167.473 218.364Z" fill="white"/>
<path d="M183.293 311.498H134.846C134.428 311.498 134.026 311.701 133.73 312.062C133.434 312.423 133.267 312.912 133.267 313.423C133.267 313.933 133.434 314.423 133.73 314.783C134.026 315.144 134.428 315.347 134.846 315.347H183.293C183.712 315.347 184.113 315.144 184.409 314.783C184.706 314.423 184.872 313.933 184.872 313.423C184.872 312.912 184.706 312.423 184.409 312.062C184.113 311.701 183.712 311.498 183.293 311.498Z" fill="#E4E4E4"/>
<path d="M183.293 338.438H134.846C134.428 338.438 134.026 338.641 133.73 339.002C133.434 339.363 133.267 339.852 133.267 340.362C133.267 340.873 133.434 341.362 133.73 341.723C134.026 342.084 134.428 342.287 134.846 342.287H183.293C183.712 342.287 184.113 342.084 184.409 341.723C184.706 341.362 184.872 340.873 184.872 340.362C184.872 339.852 184.706 339.363 184.409 339.002C184.113 338.641 183.712 338.438 183.293 338.438Z" fill="#E4E4E4"/>
<path d="M183.293 369.226H134.846C134.428 369.226 134.026 369.429 133.73 369.79C133.434 370.151 133.267 370.64 133.267 371.15C133.267 371.661 133.434 372.15 133.73 372.511C134.026 372.872 134.428 373.075 134.846 373.075H183.293C183.712 373.075 184.113 372.872 184.409 372.511C184.706 372.15 184.872 371.661 184.872 371.15C184.872 370.64 184.706 370.151 184.409 369.79C184.113 369.429 183.712 369.226 183.293 369.226Z" fill="#E4E4E4"/>
<path d="M183.291 304.571H134.848C134.429 304.571 134.027 304.774 133.73 305.135C133.434 305.496 133.267 305.985 133.267 306.495C133.267 307.006 133.434 307.495 133.73 307.856C134.027 308.217 134.429 308.42 134.848 308.42H183.291C183.711 308.42 184.113 308.217 184.409 307.856C184.705 307.495 184.872 307.006 184.872 306.495C184.872 305.985 184.705 305.496 184.409 305.135C184.113 304.774 183.711 304.571 183.291 304.571Z" fill="#E4E4E4"/>
<path d="M183.291 331.511H134.848C134.429 331.511 134.027 331.713 133.73 332.074C133.434 332.435 133.267 332.925 133.267 333.435C133.267 333.945 133.434 334.435 133.73 334.796C134.027 335.156 134.429 335.359 134.848 335.359H183.291C183.711 335.359 184.113 335.156 184.409 334.796C184.705 334.435 184.872 333.945 184.872 333.435C184.872 332.925 184.705 332.435 184.409 332.074C184.113 331.713 183.711 331.511 183.291 331.511Z" fill="#E4E4E4"/>
<path d="M183.291 361.529H134.848C134.429 361.529 134.027 361.732 133.73 362.093C133.434 362.454 133.267 362.943 133.267 363.453C133.267 363.964 133.434 364.453 133.73 364.814C134.027 365.175 134.429 365.378 134.848 365.378H183.291C183.711 365.378 184.113 365.175 184.409 364.814C184.705 364.453 184.872 363.964 184.872 363.453C184.872 362.943 184.705 362.454 184.409 362.093C184.113 361.732 183.711 361.529 183.291 361.529Z" fill="#E4E4E4"/>
<path d="M156.146 296.874H134.867C134.443 296.874 134.036 297.077 133.736 297.438C133.436 297.799 133.267 298.288 133.267 298.798C133.267 299.309 133.436 299.798 133.736 300.159C134.036 300.52 134.443 300.723 134.867 300.723H156.146C156.571 300.723 156.978 300.52 157.278 300.159C157.578 299.798 157.746 299.309 157.746 298.798C157.746 298.288 157.578 297.799 157.278 297.438C156.978 297.077 156.571 296.874 156.146 296.874Z" fill="#E4E4E4"/>
<path d="M156.146 323.814H134.867C134.443 323.814 134.036 324.016 133.736 324.377C133.436 324.738 133.267 325.228 133.267 325.738C133.267 326.248 133.436 326.738 133.736 327.099C134.036 327.459 134.443 327.662 134.867 327.662H156.146C156.571 327.662 156.978 327.459 157.278 327.099C157.578 326.738 157.746 326.248 157.746 325.738C157.746 325.228 157.578 324.738 157.278 324.377C156.978 324.016 156.571 323.814 156.146 323.814Z" fill="#E4E4E4"/>
<path d="M156.146 354.602H134.867C134.443 354.602 134.036 354.804 133.736 355.165C133.436 355.526 133.267 356.016 133.267 356.526C133.267 357.036 133.436 357.526 133.736 357.887C134.036 358.248 134.443 358.45 134.867 358.45H156.146C156.571 358.45 156.978 358.248 157.278 357.887C157.578 357.526 157.746 357.036 157.746 356.526C157.746 356.016 157.578 355.526 157.278 355.165C156.978 354.804 156.571 354.602 156.146 354.602Z" fill="#E4E4E4"/>
<path d="M183.291 282.25H134.848C134.429 282.25 134.027 282.412 133.73 282.701C133.434 282.989 133.267 283.381 133.267 283.789C133.267 284.197 133.434 284.589 133.73 284.878C134.027 285.166 134.429 285.329 134.848 285.329H183.291C183.711 285.329 184.113 285.166 184.409 284.878C184.705 284.589 184.872 284.197 184.872 283.789C184.872 283.381 184.705 282.989 184.409 282.701C184.113 282.412 183.711 282.25 183.291 282.25Z" fill="#E4E4E4"/>
<path d="M183.293 275.322H134.846C134.428 275.322 134.026 275.485 133.73 275.773C133.434 276.062 133.267 276.454 133.267 276.862C133.267 277.27 133.434 277.662 133.73 277.95C134.026 278.239 134.428 278.401 134.846 278.401H183.293C183.712 278.401 184.113 278.239 184.409 277.95C184.706 277.662 184.872 277.27 184.872 276.862C184.872 276.454 184.706 276.062 184.409 275.773C184.113 275.485 183.712 275.322 183.293 275.322Z" fill="#E4E4E4"/>
<path d="M156.145 267.625H134.869C134.444 267.625 134.037 267.828 133.736 268.189C133.436 268.55 133.267 269.039 133.267 269.55C133.267 270.06 133.436 270.549 133.736 270.91C134.037 271.271 134.444 271.474 134.869 271.474H156.145C156.57 271.474 156.977 271.271 157.277 270.91C157.578 270.549 157.746 270.06 157.746 269.55C157.746 269.039 157.578 268.55 157.277 268.189C156.977 267.828 156.57 267.625 156.145 267.625Z" fill="#E4E4E4"/>
<path d="M183.291 252.231H134.848C134.429 252.231 134.027 252.434 133.73 252.795C133.434 253.156 133.267 253.645 133.267 254.156C133.267 254.666 133.434 255.155 133.73 255.516C134.027 255.877 134.429 256.08 134.848 256.08H183.291C183.711 256.08 184.113 255.877 184.409 255.516C184.705 255.155 184.872 254.666 184.872 254.156C184.872 253.645 184.705 253.156 184.409 252.795C184.113 252.434 183.711 252.231 183.291 252.231Z" fill="#087108"/>
<path d="M183.291 245.304H134.848C134.429 245.304 134.027 245.466 133.73 245.755C133.434 246.044 133.267 246.435 133.267 246.843C133.267 247.252 133.434 247.643 133.73 247.932C134.027 248.221 134.429 248.383 134.848 248.383H183.291C183.711 248.383 184.113 248.221 184.409 247.932C184.705 247.643 184.872 247.252 184.872 246.843C184.872 246.435 184.705 246.044 184.409 245.755C184.113 245.466 183.711 245.304 183.291 245.304Z" fill="#087108"/>
<path d="M156.145 237.607H134.869C134.444 237.607 134.037 237.81 133.736 238.171C133.436 238.531 133.267 239.021 133.267 239.531C133.267 240.042 133.436 240.531 133.736 240.892C134.037 241.253 134.444 241.455 134.869 241.455H156.145C156.57 241.455 156.977 241.253 157.277 240.892C157.578 240.531 157.746 240.042 157.746 239.531C157.746 239.021 157.578 238.531 157.277 238.171C156.977 237.81 156.57 237.607 156.145 237.607Z" fill="#087108"/>
<path d="M319.792 274.593L305.342 253.127L290.951 264.396L304.543 274.937L307.336 308.614C306.475 309.52 305.897 310.655 305.672 311.882C305.448 313.11 305.586 314.375 306.071 315.525C306.556 316.675 307.367 317.66 308.403 318.359C309.44 319.058 310.659 319.442 311.911 319.463C313.163 319.483 314.393 319.141 315.453 318.477C316.513 317.813 317.356 316.856 317.88 315.723C318.403 314.59 318.584 313.329 318.401 312.095C318.218 310.861 317.679 309.707 316.849 308.773L319.792 274.593Z" fill="#FFB6B6"/>
<path d="M285.389 233.341C293.033 231.916 308.19 255.458 308.19 255.458C306.389 255.497 320.285 269.445 318.805 270.119C314.6 272.035 304.574 273.531 303.02 276.117C302.13 277.596 293.268 267.53 293.268 267.53C293.268 267.53 287.73 262.279 280.739 255.384C278.726 253.471 277.231 251.082 276.394 248.439C275.558 245.795 275.406 242.984 275.953 240.267C275.953 240.267 277.744 234.766 285.389 233.341Z" fill="#087108"/>
<path d="M292.637 423.815L293.174 411.789C298.77 408.808 305.012 407.234 311.357 407.203C302.624 414.316 303.715 428.029 297.795 437.596C295.925 440.565 293.409 443.078 290.432 444.947C287.455 446.816 284.095 447.993 280.599 448.392L273.291 452.85C272.288 447.28 272.51 441.56 273.939 436.083C275.369 430.607 277.973 425.504 281.573 421.127C283.617 418.691 285.96 416.521 288.548 414.669C290.299 419.267 292.637 423.815 292.637 423.815Z" fill="#E6E1FF"/>
<path d="M273.807 446.662L267.189 446.661L264.041 421.23L273.808 421.23L273.807 446.662Z" fill="#FFB6B6"/>
<path d="M275.494 453.052L254.157 453.052V452.783C254.157 450.588 255.032 448.484 256.59 446.932C258.147 445.38 260.26 444.508 262.462 444.508H262.463L266.36 441.562L273.632 444.509L275.495 444.509L275.494 453.052Z" fill="#2F2E41"/>
<path d="M243.063 446.662L236.446 446.661L233.298 421.23L243.065 421.23L243.063 446.662Z" fill="#FFB6B6"/>
<path d="M244.751 453.052L223.414 453.052V452.783C223.414 450.588 224.289 448.484 225.846 446.932C227.404 445.38 229.516 444.508 231.719 444.508H231.719L235.617 441.562L242.889 444.509L244.751 444.509L244.751 453.052Z" fill="#2F2E41"/>
<path d="M240.199 307.627L283.242 308.7C291.416 313.123 291.541 322.698 288.862 334.066C288.862 334.066 289.766 340.823 287.958 342.625C286.149 344.427 285.245 344.427 286.149 347.58C287.054 350.733 282.276 355.883 282.857 356.462C283.437 357.04 284.793 360.193 284.793 360.193L280.272 385.869C280.272 385.869 277.107 430.464 276.203 431.365C275.299 432.266 274.395 431.365 275.299 433.618C276.203 435.87 277.107 434.969 276.203 435.87C275.402 436.73 274.647 437.632 273.942 438.573H263.012C263.012 438.573 262.188 434.068 262.188 433.618C262.188 433.167 261.283 430.464 261.283 430.014C261.283 429.563 262.083 428.767 262.083 428.767C262.359 427.851 262.545 426.911 262.64 425.96C262.64 425.059 265.352 390.374 265.352 390.374L259.927 345.328L246.816 389.473C246.816 389.473 246.816 428.212 245.912 429.113C245.007 430.014 245.007 429.563 245.46 431.365C245.912 433.167 247.72 432.717 246.364 434.068C245.007 435.419 244.555 433.167 245.007 435.419L245.46 437.672L231.896 437.865C231.896 437.865 230.088 434.068 230.992 432.717C231.896 431.365 231.842 431.734 230.739 429.523C229.636 427.311 229.184 426.861 229.636 426.41C230.088 425.96 230.088 423.564 230.088 423.564L232.348 380.464C232.348 380.464 232.8 334.967 232.8 333.616C232.835 332.921 232.706 332.227 232.425 331.589V329.755L234.157 323.255L240.199 307.627Z" fill="#69687F"/>
<path d="M266.055 218.454C273.441 218.454 279.429 212.488 279.429 205.129C279.429 197.77 273.441 191.804 266.055 191.804C258.669 191.804 252.682 197.77 252.682 205.129C252.682 212.488 258.669 218.454 266.055 218.454Z" fill="#FFB6B6"/>
<path d="M259.369 227.261C256.487 228.967 254.764 232.103 253.775 235.294C251.943 241.201 250.84 247.309 250.491 253.482L249.446 271.963L236.504 311.315C247.721 320.771 289.882 313.464 289.882 313.464C289.882 313.464 291.176 313.034 289.882 311.744C288.588 310.455 287.328 311.597 288.622 310.308C289.916 309.018 289.024 310.455 288.593 309.165C288.161 307.876 288.593 308.736 289.024 308.306C289.456 307.876 285.684 304.007 285.684 304.007L289.136 281.419L293.45 235.857C288.273 229.41 277.861 225.609 277.861 225.609L275.171 220.784L261.72 221.856L259.369 227.261Z" fill="#087108"/>
<path d="M257.534 197.309C258.052 197.313 258.567 197.38 259.068 197.51C260.055 197.746 261.058 197.914 262.069 198.011C265.165 198.301 268.075 199.617 270.332 201.748C272.59 203.878 274.066 206.701 274.524 209.766C275.301 209.091 277.069 207.849 278.519 209.003C278.541 209.021 278.554 209.031 278.605 209.007C279.567 208.552 281.276 202.952 281.328 198.021C281.355 195.404 280.941 192.062 278.817 191.004L278.705 190.948L278.676 190.827C278.534 190.239 276.948 189.234 274.192 188.452C269.184 187.03 261.718 184.262 257.515 188.336C257.196 189.71 256.161 192.65 255.116 192.983C253.958 193.352 252.958 193.67 252.8 195.085C252.669 197.099 252.678 199.119 252.829 201.131C253.221 199.9 253.991 198.822 255.031 198.05C255.77 197.554 256.643 197.296 257.534 197.309Z" fill="#2F2E41"/>
<path d="M232.642 270.934L254.488 256.994L243.485 242.421L232.62 255.737L198.767 257.806C197.877 256.929 196.75 256.329 195.523 256.079C194.297 255.83 193.023 255.941 191.859 256.4C190.695 256.859 189.69 257.645 188.966 258.663C188.243 259.681 187.832 260.887 187.785 262.133C187.737 263.38 188.055 264.613 188.699 265.683C189.343 266.753 190.285 267.613 191.411 268.158C192.537 268.704 193.798 268.911 195.04 268.755C196.282 268.599 197.452 268.086 198.406 267.279L232.642 270.934Z" fill="#FFB6B6"/>
<path d="M274.764 237.538C276.032 245.183 252.088 259.782 252.088 259.782C252.088 257.988 237.797 271.535 237.152 270.046C235.319 265.817 234.03 255.798 231.468 254.195C230.003 253.278 240.291 244.663 240.291 244.663C240.291 244.663 245.677 239.257 252.744 232.439C254.706 230.474 257.135 229.036 259.805 228.259C262.475 227.481 265.299 227.389 268.015 227.992C268.015 227.992 273.496 229.893 274.764 237.538Z" fill="#087108"/>
<path d="M323.483 453.159C323.484 453.242 323.467 453.326 323.435 453.403C323.403 453.481 323.356 453.551 323.296 453.61C323.237 453.67 323.166 453.717 323.088 453.748C323.011 453.78 322.927 453.797 322.843 453.797H172.037C171.867 453.797 171.705 453.729 171.585 453.61C171.464 453.49 171.397 453.328 171.397 453.159C171.397 452.989 171.464 452.827 171.585 452.707C171.705 452.588 171.867 452.521 172.037 452.521H322.843C322.927 452.52 323.011 452.537 323.088 452.569C323.166 452.601 323.237 452.648 323.296 452.707C323.356 452.766 323.403 452.837 323.435 452.914C323.467 452.992 323.484 453.075 323.483 453.159Z" fill="#087108"/>
<circle cx="100.206" cy="192.206" r="25.2056" fill="#087108"/>
<path d="M108.008 198.829L111.27 202.089C111.422 202.247 111.506 202.458 111.505 202.677C111.503 202.896 111.415 203.105 111.26 203.26C111.105 203.415 110.896 203.503 110.677 203.505C110.458 203.506 110.247 203.422 110.089 203.27L106.827 200.008C104.696 201.834 101.939 202.764 99.1369 202.602C96.3345 202.44 93.7037 201.199 91.7967 199.139C89.8896 197.079 88.8545 194.361 88.9085 191.554C88.9625 188.748 90.1015 186.071 92.0864 184.086C94.0713 182.101 96.7479 180.963 99.5545 180.909C102.361 180.854 105.079 181.89 107.139 183.797C109.199 185.704 110.44 188.334 110.602 191.137C110.764 193.939 109.834 196.696 108.008 198.827V198.829ZM99.7635 200.95C102.2 200.95 104.537 199.982 106.259 198.259C107.982 196.537 108.95 194.2 108.95 191.764C108.95 189.327 107.982 186.99 106.259 185.268C104.537 183.545 102.2 182.577 99.7635 182.577C97.3271 182.577 94.9904 183.545 93.2676 185.268C91.5448 186.99 90.5769 189.327 90.5769 191.764C90.5769 194.2 91.5448 196.537 93.2676 198.259C94.9904 199.982 97.3271 200.95 99.7635 200.95Z" fill="white"/>
<circle cx="319" cy="743" r="30" fill="#087108"/>
<path fill-rule="evenodd" clip-rule="evenodd" d="M304.882 742.853C304.879 742.512 304.977 742.183 305.155 741.94C305.333 741.697 305.576 741.559 305.831 741.557L328.518 741.326L322.382 733.294C322.199 733.054 322.094 732.727 322.09 732.386C322.087 732.044 322.185 731.716 322.363 731.472C322.541 731.229 322.785 731.091 323.04 731.088C323.296 731.085 323.542 731.219 323.725 731.458L331.525 741.671C331.616 741.79 331.688 741.931 331.738 742.087C331.788 742.243 331.815 742.41 331.817 742.579C331.818 742.748 331.795 742.916 331.748 743.073C331.701 743.23 331.632 743.372 331.543 743.493L323.953 753.862C323.775 754.106 323.531 754.244 323.276 754.246C323.02 754.249 322.774 754.116 322.591 753.876C322.408 753.636 322.303 753.31 322.299 752.968C322.296 752.627 322.394 752.298 322.572 752.055L328.544 743.899L305.857 744.13C305.602 744.132 305.356 743.999 305.173 743.76C304.99 743.52 304.886 743.194 304.882 742.853Z" fill="white"/>
<path d="M30.036 689V679.2H36.098V680.166H31.212V683.582H35.678V684.534H31.212V688.034H36.098V689H30.036ZM37.1683 689L39.5763 685.528L37.1683 682.056H38.4423L40.3883 684.926L42.3483 682.056H43.6083L41.2003 685.528L43.6083 689H42.3483L40.3883 686.13L38.4423 689H37.1683ZM44.841 692.08V682.056H45.905L46.017 683.204C46.241 682.868 46.5583 682.565 46.969 682.294C47.389 682.023 47.921 681.888 48.565 681.888C49.2557 681.888 49.8577 682.047 50.371 682.364C50.8843 682.681 51.281 683.115 51.561 683.666C51.8503 684.217 51.995 684.842 51.995 685.542C51.995 686.242 51.8503 686.867 51.561 687.418C51.281 687.959 50.8797 688.389 50.357 688.706C49.8437 689.014 49.2417 689.168 48.551 689.168C47.9817 689.168 47.473 689.051 47.025 688.818C46.5863 688.585 46.2503 688.258 46.017 687.838V692.08H44.841ZM48.425 688.146C48.8917 688.146 49.3023 688.039 49.657 687.824C50.0117 687.6 50.2917 687.292 50.497 686.9C50.7023 686.508 50.805 686.051 50.805 685.528C50.805 685.005 50.7023 684.548 50.497 684.156C50.2917 683.764 50.0117 683.461 49.657 683.246C49.3023 683.022 48.8917 682.91 48.425 682.91C47.9583 682.91 47.5477 683.022 47.193 683.246C46.8383 683.461 46.5583 683.764 46.353 684.156C46.1477 684.548 46.045 685.005 46.045 685.528C46.045 686.051 46.1477 686.508 46.353 686.9C46.5583 687.292 46.8383 687.6 47.193 687.824C47.5477 688.039 47.9583 688.146 48.425 688.146ZM53.632 689V678.92H54.808V689H53.632ZM59.8995 689.168C59.2462 689.168 58.6582 689.019 58.1355 688.72C57.6129 688.421 57.1975 688.001 56.8895 687.46C56.5909 686.909 56.4415 686.265 56.4415 685.528C56.4415 684.791 56.5955 684.151 56.9035 683.61C57.2115 683.059 57.6269 682.635 58.1495 682.336C58.6815 682.037 59.2742 681.888 59.9275 681.888C60.5809 681.888 61.1689 682.037 61.6915 682.336C62.2142 682.635 62.6249 683.059 62.9235 683.61C63.2315 684.151 63.3855 684.791 63.3855 685.528C63.3855 686.265 63.2315 686.909 62.9235 687.46C62.6155 688.001 62.1955 688.421 61.6635 688.72C61.1409 689.019 60.5529 689.168 59.8995 689.168ZM59.8995 688.16C60.3009 688.16 60.6742 688.062 61.0195 687.866C61.3649 687.67 61.6449 687.376 61.8595 686.984C62.0742 686.592 62.1815 686.107 62.1815 685.528C62.1815 684.949 62.0742 684.464 61.8595 684.072C61.6542 683.68 61.3789 683.386 61.0335 683.19C60.6882 682.994 60.3195 682.896 59.9275 682.896C59.5262 682.896 59.1529 682.994 58.8075 683.19C58.4622 683.386 58.1822 683.68 57.9675 684.072C57.7529 684.464 57.6455 684.949 57.6455 685.528C57.6455 686.107 57.7529 686.592 57.9675 686.984C58.1822 687.376 58.4575 687.67 58.7935 687.866C59.1389 688.062 59.5075 688.16 59.8995 688.16ZM65.0207 689V682.056H66.0847L66.1827 683.386C66.3974 682.929 66.724 682.565 67.1627 682.294C67.6014 682.023 68.1427 681.888 68.7867 681.888V683.12H68.4647C68.054 683.12 67.676 683.195 67.3307 683.344C66.9854 683.484 66.71 683.727 66.5047 684.072C66.2994 684.417 66.1967 684.893 66.1967 685.5V689H65.0207ZM72.9689 689.168C72.3062 689.168 71.7182 689.019 71.2049 688.72C70.6915 688.412 70.2855 687.987 69.9869 687.446C69.6975 686.905 69.5529 686.265 69.5529 685.528C69.5529 684.8 69.6975 684.165 69.9869 683.624C70.2762 683.073 70.6775 682.649 71.1909 682.35C71.7135 682.042 72.3155 681.888 72.9969 681.888C73.6689 681.888 74.2475 682.042 74.7329 682.35C75.2275 682.649 75.6055 683.045 75.8669 683.54C76.1282 684.035 76.2589 684.567 76.2589 685.136C76.2589 685.239 76.2542 685.341 76.2449 685.444C76.2449 685.547 76.2449 685.663 76.2449 685.794H70.7149C70.7429 686.326 70.8642 686.769 71.0789 687.124C71.3029 687.469 71.5782 687.731 71.9049 687.908C72.2409 688.085 72.5955 688.174 72.9689 688.174C73.4542 688.174 73.8602 688.062 74.1869 687.838C74.5135 687.614 74.7515 687.311 74.9009 686.928H76.0629C75.8762 687.572 75.5169 688.109 74.9849 688.538C74.4622 688.958 73.7902 689.168 72.9689 689.168ZM72.9689 682.882C72.4089 682.882 71.9095 683.055 71.4709 683.4C71.0415 683.736 70.7942 684.231 70.7289 684.884H75.0969C75.0689 684.259 74.8542 683.769 74.4529 683.414C74.0515 683.059 73.5569 682.882 72.9689 682.882ZM83.8326 689.168C83.254 689.168 82.7733 689.07 82.3906 688.874C82.008 688.678 81.7233 688.417 81.5366 688.09C81.35 687.763 81.2566 687.409 81.2566 687.026C81.2566 686.317 81.5273 685.771 82.0686 685.388C82.61 685.005 83.3473 684.814 84.2806 684.814H86.1566V684.73C86.1566 684.123 85.998 683.666 85.6806 683.358C85.3633 683.041 84.9386 682.882 84.4066 682.882C83.9493 682.882 83.5526 682.999 83.2166 683.232C82.89 683.456 82.6846 683.787 82.6006 684.226H81.3966C81.4433 683.722 81.6113 683.297 81.9006 682.952C82.1993 682.607 82.568 682.345 83.0066 682.168C83.4453 681.981 83.912 681.888 84.4066 681.888C85.3773 681.888 86.1053 682.149 86.5906 682.672C87.0853 683.185 87.3326 683.871 87.3326 684.73V689H86.2826L86.2126 687.754C86.0166 688.146 85.7273 688.482 85.3446 688.762C84.9713 689.033 84.4673 689.168 83.8326 689.168ZM84.0146 688.174C84.4626 688.174 84.8453 688.057 85.1626 687.824C85.4893 687.591 85.7366 687.287 85.9046 686.914C86.0726 686.541 86.1566 686.149 86.1566 685.738V685.724H84.3786C83.688 685.724 83.198 685.845 82.9086 686.088C82.6286 686.321 82.4886 686.615 82.4886 686.97C82.4886 687.334 82.6193 687.628 82.8806 687.852C83.1513 688.067 83.5293 688.174 84.0146 688.174ZM89.0969 689V678.92H90.2729V689H89.0969ZM92.2004 689V678.92H93.3764V689H92.2004ZM101.753 689C101.118 689 100.619 688.846 100.255 688.538C99.891 688.23 99.709 687.675 99.709 686.872V683.05H98.505V682.056H99.709L99.863 680.39H100.885V682.056H102.929V683.05H100.885V686.872C100.885 687.311 100.974 687.609 101.151 687.768C101.328 687.917 101.641 687.992 102.089 687.992H102.817V689H101.753ZM104.423 689V678.92H105.599V683.246C105.832 682.817 106.164 682.485 106.593 682.252C107.022 682.009 107.489 681.888 107.993 681.888C108.796 681.888 109.44 682.14 109.925 682.644C110.41 683.139 110.653 683.904 110.653 684.94V689H109.491V685.066C109.491 683.619 108.908 682.896 107.741 682.896C107.134 682.896 106.626 683.115 106.215 683.554C105.804 683.983 105.599 684.599 105.599 685.402V689H104.423ZM115.557 689.168C114.894 689.168 114.306 689.019 113.793 688.72C113.279 688.412 112.873 687.987 112.575 687.446C112.285 686.905 112.141 686.265 112.141 685.528C112.141 684.8 112.285 684.165 112.575 683.624C112.864 683.073 113.265 682.649 113.779 682.35C114.301 682.042 114.903 681.888 115.585 681.888C116.257 681.888 116.835 682.042 117.321 682.35C117.815 682.649 118.193 683.045 118.455 683.54C118.716 684.035 118.847 684.567 118.847 685.136C118.847 685.239 118.842 685.341 118.833 685.444C118.833 685.547 118.833 685.663 118.833 685.794H113.303C113.331 686.326 113.452 686.769 113.667 687.124C113.891 687.469 114.166 687.731 114.493 687.908C114.829 688.085 115.183 688.174 115.557 688.174C116.042 688.174 116.448 688.062 116.775 687.838C117.101 687.614 117.339 687.311 117.489 686.928H118.651C118.464 687.572 118.105 688.109 117.573 688.538C117.05 688.958 116.378 689.168 115.557 689.168ZM115.557 682.882C114.997 682.882 114.497 683.055 114.059 683.4C113.629 683.736 113.382 684.231 113.317 684.884H117.685C117.657 684.259 117.442 683.769 117.041 683.414C116.639 683.059 116.145 682.882 115.557 682.882ZM124.111 689V682.056H125.175L125.259 683.064C125.483 682.691 125.781 682.401 126.155 682.196C126.528 681.991 126.948 681.888 127.415 681.888C127.965 681.888 128.437 682 128.829 682.224C129.23 682.448 129.538 682.789 129.753 683.246C129.995 682.826 130.327 682.495 130.747 682.252C131.176 682.009 131.638 681.888 132.133 681.888C132.963 681.888 133.626 682.14 134.121 682.644C134.615 683.139 134.863 683.904 134.863 684.94V689H133.701V685.066C133.701 684.347 133.556 683.806 133.267 683.442C132.977 683.078 132.562 682.896 132.021 682.896C131.461 682.896 130.994 683.115 130.621 683.554C130.257 683.983 130.075 684.599 130.075 685.402V689H128.899V685.066C128.899 684.347 128.754 683.806 128.465 683.442C128.175 683.078 127.76 682.896 127.219 682.896C126.668 682.896 126.206 683.115 125.833 683.554C125.469 683.983 125.287 684.599 125.287 685.402V689H124.111ZM139.798 689.168C139.145 689.168 138.557 689.019 138.034 688.72C137.511 688.421 137.096 688.001 136.788 687.46C136.489 686.909 136.34 686.265 136.34 685.528C136.34 684.791 136.494 684.151 136.802 683.61C137.11 683.059 137.525 682.635 138.048 682.336C138.58 682.037 139.173 681.888 139.826 681.888C140.479 681.888 141.067 682.037 141.59 682.336C142.113 682.635 142.523 683.059 142.822 683.61C143.13 684.151 143.284 684.791 143.284 685.528C143.284 686.265 143.13 686.909 142.822 687.46C142.514 688.001 142.094 688.421 141.562 688.72C141.039 689.019 140.451 689.168 139.798 689.168ZM139.798 688.16C140.199 688.16 140.573 688.062 140.918 687.866C141.263 687.67 141.543 687.376 141.758 686.984C141.973 686.592 142.08 686.107 142.08 685.528C142.08 684.949 141.973 684.464 141.758 684.072C141.553 683.68 141.277 683.386 140.932 683.19C140.587 682.994 140.218 682.896 139.826 682.896C139.425 682.896 139.051 682.994 138.706 683.19C138.361 683.386 138.081 683.68 137.866 684.072C137.651 684.464 137.544 684.949 137.544 685.528C137.544 686.107 137.651 686.592 137.866 686.984C138.081 687.376 138.356 687.67 138.692 687.866C139.037 688.062 139.406 688.16 139.798 688.16ZM147.579 689.168C146.748 689.168 146.058 688.958 145.507 688.538C144.956 688.118 144.634 687.549 144.541 686.83H145.745C145.82 687.194 146.011 687.511 146.319 687.782C146.636 688.043 147.061 688.174 147.593 688.174C148.088 688.174 148.452 688.071 148.685 687.866C148.918 687.651 149.035 687.399 149.035 687.11C149.035 686.69 148.881 686.41 148.573 686.27C148.274 686.13 147.85 686.004 147.299 685.892C146.926 685.817 146.552 685.71 146.179 685.57C145.806 685.43 145.493 685.234 145.241 684.982C144.989 684.721 144.863 684.38 144.863 683.96C144.863 683.353 145.087 682.859 145.535 682.476C145.992 682.084 146.608 681.888 147.383 681.888C148.12 681.888 148.722 682.075 149.189 682.448C149.665 682.812 149.94 683.335 150.015 684.016H148.853C148.806 683.661 148.652 683.386 148.391 683.19C148.139 682.985 147.798 682.882 147.369 682.882C146.949 682.882 146.622 682.971 146.389 683.148C146.165 683.325 146.053 683.559 146.053 683.848C146.053 684.128 146.198 684.347 146.487 684.506C146.786 684.665 147.187 684.8 147.691 684.912C148.12 685.005 148.526 685.122 148.909 685.262C149.301 685.393 149.618 685.593 149.861 685.864C150.113 686.125 150.239 686.508 150.239 687.012C150.248 687.637 150.01 688.155 149.525 688.566C149.049 688.967 148.4 689.168 147.579 689.168ZM154.349 689C153.714 689 153.215 688.846 152.851 688.538C152.487 688.23 152.305 687.675 152.305 686.872V683.05H151.101V682.056H152.305L152.459 680.39H153.481V682.056H155.525V683.05H153.481V686.872C153.481 687.311 153.569 687.609 153.747 687.768C153.924 687.917 154.237 687.992 154.685 687.992H155.413V689H154.349ZM163.846 689.168C163.183 689.168 162.595 689.019 162.082 688.72C161.568 688.412 161.162 687.987 160.864 687.446C160.574 686.905 160.43 686.265 160.43 685.528C160.43 684.8 160.574 684.165 160.864 683.624C161.153 683.073 161.554 682.649 162.068 682.35C162.59 682.042 163.192 681.888 163.874 681.888C164.546 681.888 165.124 682.042 165.61 682.35C166.104 682.649 166.482 683.045 166.744 683.54C167.005 684.035 167.136 684.567 167.136 685.136C167.136 685.239 167.131 685.341 167.122 685.444C167.122 685.547 167.122 685.663 167.122 685.794H161.592C161.62 686.326 161.741 686.769 161.956 687.124C162.18 687.469 162.455 687.731 162.782 687.908C163.118 688.085 163.472 688.174 163.846 688.174C164.331 688.174 164.737 688.062 165.064 687.838C165.39 687.614 165.628 687.311 165.778 686.928H166.94C166.753 687.572 166.394 688.109 165.862 688.538C165.339 688.958 164.667 689.168 163.846 689.168ZM163.846 682.882C163.286 682.882 162.786 683.055 162.348 683.4C161.918 683.736 161.671 684.231 161.606 684.884H165.974C165.946 684.259 165.731 683.769 165.33 683.414C164.928 683.059 164.434 682.882 163.846 682.882ZM167.666 689L170.074 685.528L167.666 682.056H168.94L170.886 684.926L172.846 682.056H174.106L171.698 685.528L174.106 689H172.846L170.886 686.13L168.94 689H167.666ZM178.23 689.168C177.568 689.168 176.97 689.019 176.438 688.72C175.916 688.412 175.5 687.987 175.192 687.446C174.894 686.895 174.744 686.256 174.744 685.528C174.744 684.8 174.894 684.165 175.192 683.624C175.5 683.073 175.916 682.649 176.438 682.35C176.97 682.042 177.568 681.888 178.23 681.888C179.052 681.888 179.742 682.103 180.302 682.532C180.872 682.961 181.231 683.535 181.38 684.254H180.176C180.083 683.825 179.854 683.493 179.49 683.26C179.126 683.017 178.702 682.896 178.216 682.896C177.824 682.896 177.456 682.994 177.11 683.19C176.765 683.386 176.485 683.68 176.27 684.072C176.056 684.464 175.948 684.949 175.948 685.528C175.948 686.107 176.056 686.592 176.27 686.984C176.485 687.376 176.765 687.675 177.11 687.88C177.456 688.076 177.824 688.174 178.216 688.174C178.702 688.174 179.126 688.057 179.49 687.824C179.854 687.581 180.083 687.241 180.176 686.802H181.38C181.24 687.502 180.886 688.071 180.316 688.51C179.747 688.949 179.052 689.168 178.23 689.168ZM183.737 680.516C183.503 680.516 183.307 680.441 183.149 680.292C182.999 680.133 182.925 679.937 182.925 679.704C182.925 679.48 182.999 679.293 183.149 679.144C183.307 678.995 183.503 678.92 183.737 678.92C183.961 678.92 184.152 678.995 184.311 679.144C184.469 679.293 184.549 679.48 184.549 679.704C184.549 679.937 184.469 680.133 184.311 680.292C184.152 680.441 183.961 680.516 183.737 680.516ZM183.149 689V682.056H184.325V689H183.149ZM189.116 689C188.482 689 187.982 688.846 187.618 688.538C187.254 688.23 187.072 687.675 187.072 686.872V683.05H185.868V682.056H187.072L187.226 680.39H188.248V682.056H190.292V683.05H188.248V686.872C188.248 687.311 188.337 687.609 188.514 687.768C188.692 687.917 189.004 687.992 189.452 687.992H190.18V689H189.116ZM192.5 680.516C192.267 680.516 192.071 680.441 191.912 680.292C191.763 680.133 191.688 679.937 191.688 679.704C191.688 679.48 191.763 679.293 191.912 679.144C192.071 678.995 192.267 678.92 192.5 678.92C192.724 678.92 192.916 678.995 193.074 679.144C193.233 679.293 193.312 679.48 193.312 679.704C193.312 679.937 193.233 680.133 193.074 680.292C192.916 680.441 192.724 680.516 192.5 680.516ZM191.912 689V682.056H193.088V689H191.912ZM195.136 689V682.056H196.2L196.27 683.302C196.494 682.863 196.816 682.518 197.236 682.266C197.656 682.014 198.132 681.888 198.664 681.888C199.485 681.888 200.139 682.14 200.624 682.644C201.119 683.139 201.366 683.904 201.366 684.94V689H200.19V685.066C200.19 683.619 199.593 682.896 198.398 682.896C197.801 682.896 197.301 683.115 196.9 683.554C196.508 683.983 196.312 684.599 196.312 685.402V689H195.136ZM205.892 686.816C205.5 686.816 205.14 686.765 204.814 686.662L204.114 687.32C204.216 687.395 204.342 687.46 204.492 687.516C204.65 687.563 204.874 687.609 205.164 687.656C205.453 687.693 205.859 687.735 206.382 687.782C207.315 687.847 207.982 688.062 208.384 688.426C208.785 688.79 208.986 689.266 208.986 689.854C208.986 690.255 208.874 690.638 208.65 691.002C208.435 691.366 208.099 691.665 207.642 691.898C207.194 692.131 206.615 692.248 205.906 692.248C205.28 692.248 204.725 692.164 204.24 691.996C203.754 691.837 203.376 691.59 203.106 691.254C202.835 690.927 202.7 690.512 202.7 690.008C202.7 689.747 202.77 689.462 202.91 689.154C203.05 688.855 203.311 688.571 203.694 688.3C203.488 688.216 203.311 688.127 203.162 688.034C203.022 687.931 202.891 687.819 202.77 687.698V687.376L203.96 686.2C203.409 685.733 203.134 685.117 203.134 684.352C203.134 683.895 203.241 683.479 203.456 683.106C203.67 682.733 203.983 682.439 204.394 682.224C204.804 682 205.304 681.888 205.892 681.888C206.293 681.888 206.657 681.944 206.984 682.056H209.546V682.938L208.244 682.994C208.514 683.386 208.65 683.839 208.65 684.352C208.65 684.809 208.538 685.225 208.314 685.598C208.099 685.971 207.786 686.27 207.376 686.494C206.974 686.709 206.48 686.816 205.892 686.816ZM205.892 685.85C206.386 685.85 206.778 685.724 207.068 685.472C207.366 685.211 207.516 684.837 207.516 684.352C207.516 683.876 207.366 683.512 207.068 683.26C206.778 682.999 206.386 682.868 205.892 682.868C205.388 682.868 204.986 682.999 204.688 683.26C204.398 683.512 204.254 683.876 204.254 684.352C204.254 684.837 204.398 685.211 204.688 685.472C204.986 685.724 205.388 685.85 205.892 685.85ZM203.848 689.896C203.848 690.363 204.044 690.708 204.436 690.932C204.828 691.165 205.318 691.282 205.906 691.282C206.484 691.282 206.946 691.156 207.292 690.904C207.646 690.652 207.824 690.316 207.824 689.896C207.824 689.597 207.702 689.336 207.46 689.112C207.217 688.897 206.769 688.771 206.116 688.734C205.602 688.697 205.159 688.65 204.786 688.594C204.403 688.799 204.151 689.019 204.03 689.252C203.908 689.495 203.848 689.709 203.848 689.896ZM215.347 680.516C215.123 680.516 214.932 680.441 214.773 680.292C214.615 680.133 214.535 679.937 214.535 679.704C214.535 679.48 214.615 679.293 214.773 679.144C214.932 678.995 215.123 678.92 215.347 678.92C215.571 678.92 215.758 678.995 215.907 679.144C216.066 679.293 216.145 679.48 216.145 679.704C216.145 679.937 216.066 680.133 215.907 680.292C215.758 680.441 215.571 680.516 215.347 680.516ZM213.219 692.08V691.072H213.765C214.111 691.072 214.358 690.997 214.507 690.848C214.666 690.708 214.745 690.465 214.745 690.12V682.056H215.921V690.148C215.921 690.82 215.753 691.31 215.417 691.618C215.081 691.926 214.591 692.08 213.947 692.08H213.219ZM221.132 689.168C220.479 689.168 219.891 689.019 219.368 688.72C218.845 688.421 218.43 688.001 218.122 687.46C217.823 686.909 217.674 686.265 217.674 685.528C217.674 684.791 217.828 684.151 218.136 683.61C218.444 683.059 218.859 682.635 219.382 682.336C219.914 682.037 220.507 681.888 221.16 681.888C221.813 681.888 222.401 682.037 222.924 682.336C223.447 682.635 223.857 683.059 224.156 683.61C224.464 684.151 224.618 684.791 224.618 685.528C224.618 686.265 224.464 686.909 224.156 687.46C223.848 688.001 223.428 688.421 222.896 688.72C222.373 689.019 221.785 689.168 221.132 689.168ZM221.132 688.16C221.533 688.16 221.907 688.062 222.252 687.866C222.597 687.67 222.877 687.376 223.092 686.984C223.307 686.592 223.414 686.107 223.414 685.528C223.414 684.949 223.307 684.464 223.092 684.072C222.887 683.68 222.611 683.386 222.266 683.19C221.921 682.994 221.552 682.896 221.16 682.896C220.759 682.896 220.385 682.994 220.04 683.19C219.695 683.386 219.415 683.68 219.2 684.072C218.985 684.464 218.878 684.949 218.878 685.528C218.878 686.107 218.985 686.592 219.2 686.984C219.415 687.376 219.69 687.67 220.026 687.866C220.371 688.062 220.74 688.16 221.132 688.16ZM229.963 689.168C229.394 689.168 228.885 689.051 228.437 688.818C227.998 688.585 227.662 688.258 227.429 687.838L227.317 689H226.253V678.92H227.429V683.204C227.653 682.868 227.97 682.565 228.381 682.294C228.801 682.023 229.333 681.888 229.977 681.888C230.668 681.888 231.27 682.047 231.783 682.364C232.296 682.681 232.693 683.115 232.973 683.666C233.262 684.217 233.407 684.842 233.407 685.542C233.407 686.242 233.262 686.867 232.973 687.418C232.693 687.959 232.292 688.389 231.769 688.706C231.256 689.014 230.654 689.168 229.963 689.168ZM229.837 688.146C230.304 688.146 230.714 688.039 231.069 687.824C231.424 687.6 231.704 687.292 231.909 686.9C232.114 686.508 232.217 686.051 232.217 685.528C232.217 685.005 232.114 684.548 231.909 684.156C231.704 683.764 231.424 683.461 231.069 683.246C230.714 683.022 230.304 682.91 229.837 682.91C229.37 682.91 228.96 683.022 228.605 683.246C228.25 683.461 227.97 683.764 227.765 684.156C227.56 684.548 227.457 685.005 227.457 685.528C227.457 686.051 227.56 686.508 227.765 686.9C227.97 687.292 228.25 687.6 228.605 687.824C228.96 688.039 229.37 688.146 229.837 688.146ZM238.749 689V682.056H239.813L239.911 683.386C240.126 682.929 240.453 682.565 240.891 682.294C241.33 682.023 241.871 681.888 242.515 681.888V683.12H242.193C241.783 683.12 241.405 683.195 241.059 683.344C240.714 683.484 240.439 683.727 240.233 684.072C240.028 684.417 239.925 684.893 239.925 685.5V689H238.749ZM246.739 689.168C246.086 689.168 245.498 689.019 244.975 688.72C244.453 688.421 244.037 688.001 243.729 687.46C243.431 686.909 243.281 686.265 243.281 685.528C243.281 684.791 243.435 684.151 243.743 683.61C244.051 683.059 244.467 682.635 244.989 682.336C245.521 682.037 246.114 681.888 246.767 681.888C247.421 681.888 248.009 682.037 248.531 682.336C249.054 682.635 249.465 683.059 249.763 683.61C250.071 684.151 250.225 684.791 250.225 685.528C250.225 686.265 250.071 686.909 249.763 687.46C249.455 688.001 249.035 688.421 248.503 688.72C247.981 689.019 247.393 689.168 246.739 689.168ZM246.739 688.16C247.141 688.16 247.514 688.062 247.859 687.866C248.205 687.67 248.485 687.376 248.699 686.984C248.914 686.592 249.021 686.107 249.021 685.528C249.021 684.949 248.914 684.464 248.699 684.072C248.494 683.68 248.219 683.386 247.873 683.19C247.528 682.994 247.159 682.896 246.767 682.896C246.366 682.896 245.993 682.994 245.647 683.19C245.302 683.386 245.022 683.68 244.807 684.072C244.593 684.464 244.485 684.949 244.485 685.528C244.485 686.107 244.593 686.592 244.807 686.984C245.022 687.376 245.297 687.67 245.633 687.866C245.979 688.062 246.347 688.16 246.739 688.16ZM251.861 689V678.92H253.037V689H251.861ZM258.086 689.168C257.423 689.168 256.835 689.019 256.322 688.72C255.809 688.412 255.403 687.987 255.104 687.446C254.815 686.905 254.67 686.265 254.67 685.528C254.67 684.8 254.815 684.165 255.104 683.624C255.393 683.073 255.795 682.649 256.308 682.35C256.831 682.042 257.433 681.888 258.114 681.888C258.786 681.888 259.365 682.042 259.85 682.35C260.345 682.649 260.723 683.045 260.984 683.54C261.245 684.035 261.376 684.567 261.376 685.136C261.376 685.239 261.371 685.341 261.362 685.444C261.362 685.547 261.362 685.663 261.362 685.794H255.832C255.86 686.326 255.981 686.769 256.196 687.124C256.42 687.469 256.695 687.731 257.022 687.908C257.358 688.085 257.713 688.174 258.086 688.174C258.571 688.174 258.977 688.062 259.304 687.838C259.631 687.614 259.869 687.311 260.018 686.928H261.18C260.993 687.572 260.634 688.109 260.102 688.538C259.579 688.958 258.907 689.168 258.086 689.168ZM258.086 682.882C257.526 682.882 257.027 683.055 256.588 683.4C256.159 683.736 255.911 684.231 255.846 684.884H260.214C260.186 684.259 259.971 683.769 259.57 683.414C259.169 683.059 258.674 682.882 258.086 682.882ZM265.595 689.168C264.764 689.168 264.073 688.958 263.523 688.538C262.972 688.118 262.65 687.549 262.557 686.83H263.761C263.835 687.194 264.027 687.511 264.335 687.782C264.652 688.043 265.077 688.174 265.609 688.174C266.103 688.174 266.467 688.071 266.701 687.866C266.934 687.651 267.051 687.399 267.051 687.11C267.051 686.69 266.897 686.41 266.589 686.27C266.29 686.13 265.865 686.004 265.315 685.892C264.941 685.817 264.568 685.71 264.195 685.57C263.821 685.43 263.509 685.234 263.257 684.982C263.005 684.721 262.879 684.38 262.879 683.96C262.879 683.353 263.103 682.859 263.551 682.476C264.008 682.084 264.624 681.888 265.399 681.888C266.136 681.888 266.738 682.075 267.205 682.448C267.681 682.812 267.956 683.335 268.031 684.016H266.869C266.822 683.661 266.668 683.386 266.407 683.19C266.155 682.985 265.814 682.882 265.385 682.882C264.965 682.882 264.638 682.971 264.405 683.148C264.181 683.325 264.069 683.559 264.069 683.848C264.069 684.128 264.213 684.347 264.503 684.506C264.801 684.665 265.203 684.8 265.707 684.912C266.136 685.005 266.542 685.122 266.925 685.262C267.317 685.393 267.634 685.593 267.877 685.864C268.129 686.125 268.255 686.508 268.255 687.012C268.264 687.637 268.026 688.155 267.541 688.566C267.065 688.967 266.416 689.168 265.595 689.168ZM277.35 689.168C276.78 689.168 276.272 689.051 275.824 688.818C275.385 688.585 275.049 688.258 274.816 687.838L274.704 689H273.64V678.92H274.816V683.204C275.04 682.868 275.357 682.565 275.768 682.294C276.188 682.023 276.72 681.888 277.364 681.888C278.054 681.888 278.656 682.047 279.17 682.364C279.683 682.681 280.08 683.115 280.36 683.666C280.649 684.217 280.794 684.842 280.794 685.542C280.794 686.242 280.649 686.867 280.36 687.418C280.08 687.959 279.678 688.389 279.156 688.706C278.642 689.014 278.04 689.168 277.35 689.168ZM277.224 688.146C277.69 688.146 278.101 688.039 278.456 687.824C278.81 687.6 279.09 687.292 279.296 686.9C279.501 686.508 279.604 686.051 279.604 685.528C279.604 685.005 279.501 684.548 279.296 684.156C279.09 683.764 278.81 683.461 278.456 683.246C278.101 683.022 277.69 682.91 277.224 682.91C276.757 682.91 276.346 683.022 275.992 683.246C275.637 683.461 275.357 683.764 275.152 684.156C274.946 684.548 274.844 685.005 274.844 685.528C274.844 686.051 274.946 686.508 275.152 686.9C275.357 687.292 275.637 687.6 275.992 687.824C276.346 688.039 276.757 688.146 277.224 688.146ZM284.741 689.168C284.162 689.168 283.682 689.07 283.299 688.874C282.916 688.678 282.632 688.417 282.445 688.09C282.258 687.763 282.165 687.409 282.165 687.026C282.165 686.317 282.436 685.771 282.977 685.388C283.518 685.005 284.256 684.814 285.189 684.814H287.065V684.73C287.065 684.123 286.906 683.666 286.589 683.358C286.272 683.041 285.847 682.882 285.315 682.882C284.858 682.882 284.461 682.999 284.125 683.232C283.798 683.456 283.593 683.787 283.509 684.226H282.305C282.352 683.722 282.52 683.297 282.809 682.952C283.108 682.607 283.476 682.345 283.915 682.168C284.354 681.981 284.82 681.888 285.315 681.888C286.286 681.888 287.014 682.149 287.499 682.672C287.994 683.185 288.241 683.871 288.241 684.73V689H287.191L287.121 687.754C286.925 688.146 286.636 688.482 286.253 688.762C285.88 689.033 285.376 689.168 284.741 689.168ZM284.923 688.174C285.371 688.174 285.754 688.057 286.071 687.824C286.398 687.591 286.645 687.287 286.813 686.914C286.981 686.541 287.065 686.149 287.065 685.738V685.724H285.287C284.596 685.724 284.106 685.845 283.817 686.088C283.537 686.321 283.397 686.615 283.397 686.97C283.397 687.334 283.528 687.628 283.789 687.852C284.06 688.067 284.438 688.174 284.923 688.174ZM292.665 689.168C291.834 689.168 291.144 688.958 290.593 688.538C290.042 688.118 289.72 687.549 289.627 686.83H290.831C290.906 687.194 291.097 687.511 291.405 687.782C291.722 688.043 292.147 688.174 292.679 688.174C293.174 688.174 293.538 688.071 293.771 687.866C294.004 687.651 294.121 687.399 294.121 687.11C294.121 686.69 293.967 686.41 293.659 686.27C293.36 686.13 292.936 686.004 292.385 685.892C292.012 685.817 291.638 685.71 291.265 685.57C290.892 685.43 290.579 685.234 290.327 684.982C290.075 684.721 289.949 684.38 289.949 683.96C289.949 683.353 290.173 682.859 290.621 682.476C291.078 682.084 291.694 681.888 292.469 681.888C293.206 681.888 293.808 682.075 294.275 682.448C294.751 682.812 295.026 683.335 295.101 684.016H293.939C293.892 683.661 293.738 683.386 293.477 683.19C293.225 682.985 292.884 682.882 292.455 682.882C292.035 682.882 291.708 682.971 291.475 683.148C291.251 683.325 291.139 683.559 291.139 683.848C291.139 684.128 291.284 684.347 291.573 684.506C291.872 684.665 292.273 684.8 292.777 684.912C293.206 685.005 293.612 685.122 293.995 685.262C294.387 685.393 294.704 685.593 294.947 685.864C295.199 686.125 295.325 686.508 295.325 687.012C295.334 687.637 295.096 688.155 294.611 688.566C294.135 688.967 293.486 689.168 292.665 689.168ZM300.127 689.168C299.464 689.168 298.876 689.019 298.363 688.72C297.85 688.412 297.444 687.987 297.145 687.446C296.856 686.905 296.711 686.265 296.711 685.528C296.711 684.8 296.856 684.165 297.145 683.624C297.434 683.073 297.836 682.649 298.349 682.35C298.872 682.042 299.474 681.888 300.155 681.888C300.827 681.888 301.406 682.042 301.891 682.35C302.386 682.649 302.764 683.045 303.025 683.54C303.286 684.035 303.417 684.567 303.417 685.136C303.417 685.239 303.412 685.341 303.403 685.444C303.403 685.547 303.403 685.663 303.403 685.794H297.873C297.901 686.326 298.022 686.769 298.237 687.124C298.461 687.469 298.736 687.731 299.063 687.908C299.399 688.085 299.754 688.174 300.127 688.174C300.612 688.174 301.018 688.062 301.345 687.838C301.672 687.614 301.91 687.311 302.059 686.928H303.221C303.034 687.572 302.675 688.109 302.143 688.538C301.62 688.958 300.948 689.168 300.127 689.168ZM300.127 682.882C299.567 682.882 299.068 683.055 298.629 683.4C298.2 683.736 297.952 684.231 297.887 684.884H302.255C302.227 684.259 302.012 683.769 301.611 683.414C301.21 683.059 300.715 682.882 300.127 682.882ZM308.126 689.168C307.435 689.168 306.828 689.009 306.306 688.692C305.792 688.375 305.391 687.941 305.102 687.39C304.822 686.839 304.682 686.214 304.682 685.514C304.682 684.814 304.826 684.193 305.116 683.652C305.405 683.101 305.806 682.672 306.32 682.364C306.833 682.047 307.44 681.888 308.14 681.888C308.709 681.888 309.213 682.005 309.652 682.238C310.09 682.471 310.431 682.798 310.674 683.218V678.92H311.85V689H310.786L310.674 687.852C310.45 688.188 310.128 688.491 309.708 688.762C309.288 689.033 308.76 689.168 308.126 689.168ZM308.252 688.146C308.718 688.146 309.129 688.039 309.484 687.824C309.848 687.6 310.128 687.292 310.324 686.9C310.529 686.508 310.632 686.051 310.632 685.528C310.632 685.005 310.529 684.548 310.324 684.156C310.128 683.764 309.848 683.461 309.484 683.246C309.129 683.022 308.718 682.91 308.252 682.91C307.794 682.91 307.384 683.022 307.02 683.246C306.665 683.461 306.385 683.764 306.18 684.156C305.984 684.548 305.886 685.005 305.886 685.528C305.886 686.051 305.984 686.508 306.18 686.9C306.385 687.292 306.665 687.6 307.02 687.824C307.384 688.039 307.794 688.146 308.252 688.146ZM33.13 707.168C32.4767 707.168 31.8887 707.019 31.366 706.72C30.8433 706.421 30.428 706.001 30.12 705.46C29.8213 704.909 29.672 704.265 29.672 703.528C29.672 702.791 29.826 702.151 30.134 701.61C30.442 701.059 30.8573 700.635 31.38 700.336C31.912 700.037 32.5047 699.888 33.158 699.888C33.8113 699.888 34.3993 700.037 34.922 700.336C35.4447 700.635 35.8553 701.059 36.154 701.61C36.462 702.151 36.616 702.791 36.616 703.528C36.616 704.265 36.462 704.909 36.154 705.46C35.846 706.001 35.426 706.421 34.894 706.72C34.3713 707.019 33.7833 707.168 33.13 707.168ZM33.13 706.16C33.5313 706.16 33.9047 706.062 34.25 705.866C34.5953 705.67 34.8753 705.376 35.09 704.984C35.3047 704.592 35.412 704.107 35.412 703.528C35.412 702.949 35.3047 702.464 35.09 702.072C34.8847 701.68 34.6093 701.386 34.264 701.19C33.9187 700.994 33.55 700.896 33.158 700.896C32.7567 700.896 32.3833 700.994 32.038 701.19C31.6927 701.386 31.4127 701.68 31.198 702.072C30.9833 702.464 30.876 702.949 30.876 703.528C30.876 704.107 30.9833 704.592 31.198 704.984C31.4127 705.376 31.688 705.67 32.024 705.866C32.3693 706.062 32.738 706.16 33.13 706.16ZM38.2512 707V700.056H39.3152L39.3852 701.302C39.6092 700.863 39.9312 700.518 40.3512 700.266C40.7712 700.014 41.2472 699.888 41.7792 699.888C42.6005 699.888 43.2538 700.14 43.7392 700.644C44.2338 701.139 44.4812 701.904 44.4812 702.94V707H43.3052V703.066C43.3052 701.619 42.7078 700.896 41.5132 700.896C40.9158 700.896 40.4165 701.115 40.0152 701.554C39.6232 701.983 39.4272 702.599 39.4272 703.402V707H38.2512ZM50.724 710.08L52.446 706.328H52.04L49.282 700.056H50.556L52.852 705.46L55.288 700.056H56.506L51.956 710.08H50.724ZM60.255 707.168C59.6017 707.168 59.0137 707.019 58.491 706.72C57.9683 706.421 57.553 706.001 57.245 705.46C56.9463 704.909 56.797 704.265 56.797 703.528C56.797 702.791 56.951 702.151 57.259 701.61C57.567 701.059 57.9823 700.635 58.505 700.336C59.037 700.037 59.6297 699.888 60.283 699.888C60.9363 699.888 61.5243 700.037 62.047 700.336C62.5697 700.635 62.9803 701.059 63.279 701.61C63.587 702.151 63.741 702.791 63.741 703.528C63.741 704.265 63.587 704.909 63.279 705.46C62.971 706.001 62.551 706.421 62.019 706.72C61.4963 707.019 60.9083 707.168 60.255 707.168ZM60.255 706.16C60.6563 706.16 61.0297 706.062 61.375 705.866C61.7203 705.67 62.0003 705.376 62.215 704.984C62.4297 704.592 62.537 704.107 62.537 703.528C62.537 702.949 62.4297 702.464 62.215 702.072C62.0097 701.68 61.7343 701.386 61.389 701.19C61.0437 700.994 60.675 700.896 60.283 700.896C59.8817 700.896 59.5083 700.994 59.163 701.19C58.8177 701.386 58.5377 701.68 58.323 702.072C58.1083 702.464 58.001 702.949 58.001 703.528C58.001 704.107 58.1083 704.592 58.323 704.984C58.5377 705.376 58.813 705.67 59.149 705.866C59.4943 706.062 59.863 706.16 60.255 706.16ZM67.9102 707.168C67.0888 707.168 66.4355 706.921 65.9502 706.426C65.4648 705.922 65.2222 705.152 65.2222 704.116V700.056H66.3982V703.99C66.3982 705.437 66.9908 706.16 68.1762 706.16C68.7828 706.16 69.2822 705.945 69.6742 705.516C70.0755 705.077 70.2762 704.457 70.2762 703.654V700.056H71.4522V707H70.3882L70.3042 705.754C70.0895 706.193 69.7675 706.538 69.3382 706.79C68.9182 707.042 68.4422 707.168 67.9102 707.168ZM73.3879 707V700.056H74.4519L74.5499 701.386C74.7645 700.929 75.0912 700.565 75.5299 700.294C75.9685 700.023 76.5099 699.888 77.1539 699.888V701.12H76.8319C76.4212 701.12 76.0432 701.195 75.6979 701.344C75.3525 701.484 75.0772 701.727 74.8719 702.072C74.6665 702.417 74.5639 702.893 74.5639 703.5V707H73.3879ZM82.8929 698.516C82.6596 698.516 82.4636 698.441 82.3049 698.292C82.1556 698.133 82.0809 697.937 82.0809 697.704C82.0809 697.48 82.1556 697.293 82.3049 697.144C82.4636 696.995 82.6596 696.92 82.8929 696.92C83.1169 696.92 83.3082 696.995 83.4669 697.144C83.6256 697.293 83.7049 697.48 83.7049 697.704C83.7049 697.937 83.6256 698.133 83.4669 698.292C83.3082 698.441 83.1169 698.516 82.8929 698.516ZM82.3049 707V700.056H83.4809V707H82.3049ZM85.5285 707V700.056H86.5925L86.6625 701.302C86.8865 700.863 87.2085 700.518 87.6285 700.266C88.0485 700.014 88.5245 699.888 89.0565 699.888C89.8778 699.888 90.5312 700.14 91.0165 700.644C91.5112 701.139 91.7585 701.904 91.7585 702.94V707H90.5825V703.066C90.5825 701.619 89.9852 700.896 88.7905 700.896C88.1932 700.896 87.6938 701.115 87.2925 701.554C86.9005 701.983 86.7045 702.599 86.7045 703.402V707H85.5285ZM96.2842 707C95.6496 707 95.1502 706.846 94.7862 706.538C94.4222 706.23 94.2402 705.675 94.2402 704.872V701.05H93.0362V700.056H94.2402L94.3942 698.39H95.4162V700.056H97.4602V701.05H95.4162V704.872C95.4162 705.311 95.5049 705.609 95.6822 705.768C95.8596 705.917 96.1722 705.992 96.6202 705.992H97.3482V707H96.2842ZM101.885 707.168C101.222 707.168 100.634 707.019 100.121 706.72C99.6075 706.412 99.2015 705.987 98.9029 705.446C98.6135 704.905 98.4689 704.265 98.4689 703.528C98.4689 702.8 98.6135 702.165 98.9029 701.624C99.1922 701.073 99.5935 700.649 100.107 700.35C100.63 700.042 101.232 699.888 101.913 699.888C102.585 699.888 103.164 700.042 103.649 700.35C104.144 700.649 104.522 701.045 104.783 701.54C105.044 702.035 105.175 702.567 105.175 703.136C105.175 703.239 105.17 703.341 105.161 703.444C105.161 703.547 105.161 703.663 105.161 703.794H99.6309C99.6589 704.326 99.7802 704.769 99.9949 705.124C100.219 705.469 100.494 705.731 100.821 705.908C101.157 706.085 101.512 706.174 101.885 706.174C102.37 706.174 102.776 706.062 103.103 705.838C103.43 705.614 103.668 705.311 103.817 704.928H104.979C104.792 705.572 104.433 706.109 103.901 706.538C103.378 706.958 102.706 707.168 101.885 707.168ZM101.885 700.882C101.325 700.882 100.826 701.055 100.387 701.4C99.9575 701.736 99.7102 702.231 99.6449 702.884H104.013C103.985 702.259 103.77 701.769 103.369 701.414C102.968 701.059 102.473 700.882 101.885 700.882ZM106.734 707V700.056H107.798L107.896 701.386C108.11 700.929 108.437 700.565 108.876 700.294C109.314 700.023 109.856 699.888 110.5 699.888V701.12H110.178C109.767 701.12 109.389 701.195 109.044 701.344C108.698 701.484 108.423 701.727 108.218 702.072C108.012 702.417 107.91 702.893 107.91 703.5V707H106.734ZM114.682 707.168C114.019 707.168 113.431 707.019 112.918 706.72C112.404 706.412 111.998 705.987 111.7 705.446C111.41 704.905 111.266 704.265 111.266 703.528C111.266 702.8 111.41 702.165 111.7 701.624C111.989 701.073 112.39 700.649 112.904 700.35C113.426 700.042 114.028 699.888 114.71 699.888C115.382 699.888 115.96 700.042 116.446 700.35C116.94 700.649 117.318 701.045 117.58 701.54C117.841 702.035 117.972 702.567 117.972 703.136C117.972 703.239 117.967 703.341 117.958 703.444C117.958 703.547 117.958 703.663 117.958 703.794H112.428C112.456 704.326 112.577 704.769 112.792 705.124C113.016 705.469 113.291 705.731 113.618 705.908C113.954 706.085 114.308 706.174 114.682 706.174C115.167 706.174 115.573 706.062 115.9 705.838C116.226 705.614 116.464 705.311 116.614 704.928H117.776C117.589 705.572 117.23 706.109 116.698 706.538C116.175 706.958 115.503 707.168 114.682 707.168ZM114.682 700.882C114.122 700.882 113.622 701.055 113.184 701.4C112.754 701.736 112.507 702.231 112.442 702.884H116.81C116.782 702.259 116.567 701.769 116.166 701.414C115.764 701.059 115.27 700.882 114.682 700.882ZM122.19 707.168C121.36 707.168 120.669 706.958 120.118 706.538C119.568 706.118 119.246 705.549 119.152 704.83H120.356C120.431 705.194 120.622 705.511 120.93 705.782C121.248 706.043 121.672 706.174 122.204 706.174C122.699 706.174 123.063 706.071 123.296 705.866C123.53 705.651 123.646 705.399 123.646 705.11C123.646 704.69 123.492 704.41 123.184 704.27C122.886 704.13 122.461 704.004 121.91 703.892C121.537 703.817 121.164 703.71 120.79 703.57C120.417 703.43 120.104 703.234 119.852 702.982C119.6 702.721 119.474 702.38 119.474 701.96C119.474 701.353 119.698 700.859 120.146 700.476C120.604 700.084 121.22 699.888 121.994 699.888C122.732 699.888 123.334 700.075 123.8 700.448C124.276 700.812 124.552 701.335 124.626 702.016H123.464C123.418 701.661 123.264 701.386 123.002 701.19C122.75 700.985 122.41 700.882 121.98 700.882C121.56 700.882 121.234 700.971 121 701.148C120.776 701.325 120.664 701.559 120.664 701.848C120.664 702.128 120.809 702.347 121.098 702.506C121.397 702.665 121.798 702.8 122.302 702.912C122.732 703.005 123.138 703.122 123.52 703.262C123.912 703.393 124.23 703.593 124.472 703.864C124.724 704.125 124.85 704.508 124.85 705.012C124.86 705.637 124.622 706.155 124.136 706.566C123.66 706.967 123.012 707.168 122.19 707.168ZM128.96 707C128.325 707 127.826 706.846 127.462 706.538C127.098 706.23 126.916 705.675 126.916 704.872V701.05H125.712V700.056H126.916L127.07 698.39H128.092V700.056H130.136V701.05H128.092V704.872C128.092 705.311 128.181 705.609 128.358 705.768C128.535 705.917 128.848 705.992 129.296 705.992H130.024V707H128.96ZM137.645 707.168C137.066 707.168 136.586 707.07 136.203 706.874C135.82 706.678 135.536 706.417 135.349 706.09C135.162 705.763 135.069 705.409 135.069 705.026C135.069 704.317 135.34 703.771 135.881 703.388C136.422 703.005 137.16 702.814 138.093 702.814H139.969V702.73C139.969 702.123 139.81 701.666 139.493 701.358C139.176 701.041 138.751 700.882 138.219 700.882C137.762 700.882 137.365 700.999 137.029 701.232C136.702 701.456 136.497 701.787 136.413 702.226H135.209C135.256 701.722 135.424 701.297 135.713 700.952C136.012 700.607 136.38 700.345 136.819 700.168C137.258 699.981 137.724 699.888 138.219 699.888C139.19 699.888 139.918 700.149 140.403 700.672C140.898 701.185 141.145 701.871 141.145 702.73V707H140.095L140.025 705.754C139.829 706.146 139.54 706.482 139.157 706.762C138.784 707.033 138.28 707.168 137.645 707.168ZM137.827 706.174C138.275 706.174 138.658 706.057 138.975 705.824C139.302 705.591 139.549 705.287 139.717 704.914C139.885 704.541 139.969 704.149 139.969 703.738V703.724H138.191C137.5 703.724 137.01 703.845 136.721 704.088C136.441 704.321 136.301 704.615 136.301 704.97C136.301 705.334 136.432 705.628 136.693 705.852C136.964 706.067 137.342 706.174 137.827 706.174ZM142.909 707V700.056H143.973L144.043 701.302C144.267 700.863 144.589 700.518 145.009 700.266C145.429 700.014 145.905 699.888 146.437 699.888C147.259 699.888 147.912 700.14 148.397 700.644C148.892 701.139 149.139 701.904 149.139 702.94V707H147.963V703.066C147.963 701.619 147.366 700.896 146.171 700.896C145.574 700.896 145.075 701.115 144.673 701.554C144.281 701.983 144.085 702.599 144.085 703.402V707H142.909ZM154.071 707.168C153.38 707.168 152.774 707.009 152.251 706.692C151.738 706.375 151.336 705.941 151.047 705.39C150.767 704.839 150.627 704.214 150.627 703.514C150.627 702.814 150.772 702.193 151.061 701.652C151.35 701.101 151.752 700.672 152.265 700.364C152.778 700.047 153.385 699.888 154.085 699.888C154.654 699.888 155.158 700.005 155.597 700.238C156.036 700.471 156.376 700.798 156.619 701.218V696.92H157.795V707H156.731L156.619 705.852C156.395 706.188 156.073 706.491 155.653 706.762C155.233 707.033 154.706 707.168 154.071 707.168ZM154.197 706.146C154.664 706.146 155.074 706.039 155.429 705.824C155.793 705.6 156.073 705.292 156.269 704.9C156.474 704.508 156.577 704.051 156.577 703.528C156.577 703.005 156.474 702.548 156.269 702.156C156.073 701.764 155.793 701.461 155.429 701.246C155.074 701.022 154.664 700.91 154.197 700.91C153.74 700.91 153.329 701.022 152.965 701.246C152.61 701.461 152.33 701.764 152.125 702.156C151.929 702.548 151.831 703.005 151.831 703.528C151.831 704.051 151.929 704.508 152.125 704.9C152.33 705.292 152.61 705.6 152.965 705.824C153.329 706.039 153.74 706.146 154.197 706.146ZM166.077 707.168C165.247 707.168 164.556 706.958 164.005 706.538C163.455 706.118 163.133 705.549 163.039 704.83H164.243C164.318 705.194 164.509 705.511 164.817 705.782C165.135 706.043 165.559 706.174 166.091 706.174C166.586 706.174 166.95 706.071 167.183 705.866C167.417 705.651 167.533 705.399 167.533 705.11C167.533 704.69 167.379 704.41 167.071 704.27C166.773 704.13 166.348 704.004 165.797 703.892C165.424 703.817 165.051 703.71 164.677 703.57C164.304 703.43 163.991 703.234 163.739 702.982C163.487 702.721 163.361 702.38 163.361 701.96C163.361 701.353 163.585 700.859 164.033 700.476C164.491 700.084 165.107 699.888 165.881 699.888C166.619 699.888 167.221 700.075 167.687 700.448C168.163 700.812 168.439 701.335 168.513 702.016H167.351C167.305 701.661 167.151 701.386 166.889 701.19C166.637 700.985 166.297 700.882 165.867 700.882C165.447 700.882 165.121 700.971 164.887 701.148C164.663 701.325 164.551 701.559 164.551 701.848C164.551 702.128 164.696 702.347 164.985 702.506C165.284 702.665 165.685 702.8 166.189 702.912C166.619 703.005 167.025 703.122 167.407 703.262C167.799 703.393 168.117 703.593 168.359 703.864C168.611 704.125 168.737 704.508 168.737 705.012C168.747 705.637 168.509 706.155 168.023 706.566C167.547 706.967 166.899 707.168 166.077 707.168ZM172.847 707C172.212 707 171.713 706.846 171.349 706.538C170.985 706.23 170.803 705.675 170.803 704.872V701.05H169.599V700.056H170.803L170.957 698.39H171.979V700.056H174.023V701.05H171.979V704.872C171.979 705.311 172.067 705.609 172.245 705.768C172.422 705.917 172.735 705.992 173.183 705.992H173.911V707H172.847ZM178.051 707.168C177.229 707.168 176.576 706.921 176.091 706.426C175.605 705.922 175.363 705.152 175.363 704.116V700.056H176.539V703.99C176.539 705.437 177.131 706.16 178.317 706.16C178.923 706.16 179.423 705.945 179.815 705.516C180.216 705.077 180.417 704.457 180.417 703.654V700.056H181.593V707H180.529L180.445 705.754C180.23 706.193 179.908 706.538 179.479 706.79C179.059 707.042 178.583 707.168 178.051 707.168ZM186.678 707.168C185.988 707.168 185.381 707.009 184.859 706.692C184.345 706.375 183.944 705.941 183.655 705.39C183.375 704.839 183.235 704.214 183.235 703.514C183.235 702.814 183.379 702.193 183.669 701.652C183.958 701.101 184.359 700.672 184.873 700.364C185.386 700.047 185.993 699.888 186.693 699.888C187.262 699.888 187.766 700.005 188.205 700.238C188.643 700.471 188.984 700.798 189.227 701.218V696.92H190.403V707H189.339L189.227 705.852C189.003 706.188 188.681 706.491 188.261 706.762C187.841 707.033 187.313 707.168 186.678 707.168ZM186.805 706.146C187.271 706.146 187.682 706.039 188.037 705.824C188.401 705.6 188.681 705.292 188.877 704.9C189.082 704.508 189.185 704.051 189.185 703.528C189.185 703.005 189.082 702.548 188.877 702.156C188.681 701.764 188.401 701.461 188.037 701.246C187.682 701.022 187.271 700.91 186.805 700.91C186.347 700.91 185.937 701.022 185.573 701.246C185.218 701.461 184.938 701.764 184.733 702.156C184.537 702.548 184.439 703.005 184.439 703.528C184.439 704.051 184.537 704.508 184.733 704.9C184.938 705.292 185.218 705.6 185.573 705.824C185.937 706.039 186.347 706.146 186.805 706.146ZM193.076 710.08L194.798 706.328H194.392L191.634 700.056H192.908L195.204 705.46L197.64 700.056H198.858L194.308 710.08H193.076ZM203.804 707V700.056H204.868L204.952 701.064C205.176 700.691 205.475 700.401 205.848 700.196C206.221 699.991 206.641 699.888 207.108 699.888C207.659 699.888 208.13 700 208.522 700.224C208.923 700.448 209.231 700.789 209.446 701.246C209.689 700.826 210.02 700.495 210.44 700.252C210.869 700.009 211.331 699.888 211.826 699.888C212.657 699.888 213.319 700.14 213.814 700.644C214.309 701.139 214.556 701.904 214.556 702.94V707H213.394V703.066C213.394 702.347 213.249 701.806 212.96 701.442C212.671 701.078 212.255 700.896 211.714 700.896C211.154 700.896 210.687 701.115 210.314 701.554C209.95 701.983 209.768 702.599 209.768 703.402V707H208.592V703.066C208.592 702.347 208.447 701.806 208.158 701.442C207.869 701.078 207.453 700.896 206.912 700.896C206.361 700.896 205.899 701.115 205.526 701.554C205.162 701.983 204.98 702.599 204.98 703.402V707H203.804ZM218.637 707.168C218.059 707.168 217.578 707.07 217.195 706.874C216.813 706.678 216.528 706.417 216.341 706.09C216.155 705.763 216.061 705.409 216.061 705.026C216.061 704.317 216.332 703.771 216.873 703.388C217.415 703.005 218.152 702.814 219.085 702.814H220.961V702.73C220.961 702.123 220.803 701.666 220.485 701.358C220.168 701.041 219.743 700.882 219.211 700.882C218.754 700.882 218.357 700.999 218.021 701.232C217.695 701.456 217.489 701.787 217.405 702.226H216.201C216.248 701.722 216.416 701.297 216.705 700.952C217.004 700.607 217.373 700.345 217.811 700.168C218.25 699.981 218.717 699.888 219.211 699.888C220.182 699.888 220.91 700.149 221.395 700.672C221.89 701.185 222.137 701.871 222.137 702.73V707H221.087L221.017 705.754C220.821 706.146 220.532 706.482 220.149 706.762C219.776 707.033 219.272 707.168 218.637 707.168ZM218.819 706.174C219.267 706.174 219.65 706.057 219.967 705.824C220.294 705.591 220.541 705.287 220.709 704.914C220.877 704.541 220.961 704.149 220.961 703.738V703.724H219.183C218.493 703.724 218.003 703.845 217.713 704.088C217.433 704.321 217.293 704.615 217.293 704.97C217.293 705.334 217.424 705.628 217.685 705.852C217.956 706.067 218.334 706.174 218.819 706.174ZM224.672 698.516C224.448 698.516 224.256 698.441 224.098 698.292C223.939 698.133 223.86 697.937 223.86 697.704C223.86 697.48 223.939 697.293 224.098 697.144C224.256 696.995 224.448 696.92 224.672 696.92C224.896 696.92 225.082 696.995 225.232 697.144C225.39 697.293 225.47 697.48 225.47 697.704C225.47 697.937 225.39 698.133 225.232 698.292C225.082 698.441 224.896 698.516 224.672 698.516ZM222.544 710.08V709.072H223.09C223.435 709.072 223.682 708.997 223.832 708.848C223.99 708.708 224.07 708.465 224.07 708.12V700.056H225.246V708.148C225.246 708.82 225.078 709.31 224.742 709.618C224.406 709.926 223.916 710.08 223.272 710.08H222.544ZM230.456 707.168C229.803 707.168 229.215 707.019 228.692 706.72C228.17 706.421 227.754 706.001 227.446 705.46C227.148 704.909 226.998 704.265 226.998 703.528C226.998 702.791 227.152 702.151 227.46 701.61C227.768 701.059 228.184 700.635 228.706 700.336C229.238 700.037 229.831 699.888 230.484 699.888C231.138 699.888 231.726 700.037 232.248 700.336C232.771 700.635 233.182 701.059 233.48 701.61C233.788 702.151 233.942 702.791 233.942 703.528C233.942 704.265 233.788 704.909 233.48 705.46C233.172 706.001 232.752 706.421 232.22 706.72C231.698 707.019 231.11 707.168 230.456 707.168ZM230.456 706.16C230.858 706.16 231.231 706.062 231.576 705.866C231.922 705.67 232.202 705.376 232.416 704.984C232.631 704.592 232.738 704.107 232.738 703.528C232.738 702.949 232.631 702.464 232.416 702.072C232.211 701.68 231.936 701.386 231.59 701.19C231.245 700.994 230.876 700.896 230.484 700.896C230.083 700.896 229.71 700.994 229.364 701.19C229.019 701.386 228.739 701.68 228.524 702.072C228.31 702.464 228.202 702.949 228.202 703.528C228.202 704.107 228.31 704.592 228.524 704.984C228.739 705.376 229.014 705.67 229.35 705.866C229.696 706.062 230.064 706.16 230.456 706.16ZM235.577 707V700.056H236.641L236.739 701.386C236.954 700.929 237.281 700.565 237.719 700.294C238.158 700.023 238.699 699.888 239.343 699.888V701.12H239.021C238.611 701.12 238.233 701.195 237.887 701.344C237.542 701.484 237.267 701.727 237.061 702.072C236.856 702.417 236.753 702.893 236.753 703.5V707H235.577ZM240.509 707.07C240.275 707.07 240.079 706.995 239.921 706.846C239.771 706.687 239.697 706.496 239.697 706.272C239.697 706.048 239.771 705.861 239.921 705.712C240.079 705.553 240.275 705.474 240.509 705.474C240.733 705.474 240.919 705.553 241.069 705.712C241.227 705.861 241.307 706.048 241.307 706.272C241.307 706.496 241.227 706.687 241.069 706.846C240.919 706.995 240.733 707.07 240.509 707.07Z" fill="#087108"/>
</svg>
