<svg width="375" height="812" viewBox="0 0 375 812" fill="none" xmlns="http://www.w3.org/2000/svg">
<g clip-path="url(#clip0_6_2064)">
<rect width="375" height="812" fill="#F9F9F9"/>
<g filter="url(#filter0_d_6_2064)">
<rect x="81" y="671" width="213" height="50" rx="6" fill="#087108"/>
</g>
<path d="M167.732 701.168C167.013 701.168 166.365 701.028 165.786 700.748C165.207 700.459 164.745 700.025 164.4 699.446C164.064 698.867 163.896 698.135 163.896 697.248V691.2H165.688V697.262C165.688 698.027 165.87 698.597 166.234 698.97C166.607 699.343 167.121 699.53 167.774 699.53C168.418 699.53 168.927 699.343 169.3 698.97C169.673 698.597 169.86 698.027 169.86 697.262V691.2H171.652V697.248C171.652 698.135 171.475 698.867 171.12 699.446C170.765 700.025 170.289 700.459 169.692 700.748C169.104 701.028 168.451 701.168 167.732 701.168ZM174.321 701V691.2H177.947C178.731 691.2 179.38 691.331 179.893 691.592C180.407 691.853 180.789 692.213 181.041 692.67C181.293 693.127 181.419 693.641 181.419 694.21C181.419 694.751 181.298 695.251 181.055 695.708C180.813 696.156 180.435 696.52 179.921 696.8C179.408 697.071 178.75 697.206 177.947 697.206H176.113V701H174.321ZM176.113 695.75H177.835C178.461 695.75 178.909 695.615 179.179 695.344C179.459 695.064 179.599 694.686 179.599 694.21C179.599 693.725 179.459 693.347 179.179 693.076C178.909 692.796 178.461 692.656 177.835 692.656H176.113V695.75ZM183.665 701V691.2H187.011C188.159 691.2 189.102 691.405 189.839 691.816C190.586 692.217 191.137 692.787 191.491 693.524C191.855 694.252 192.037 695.111 192.037 696.1C192.037 697.089 191.855 697.953 191.491 698.69C191.137 699.418 190.586 699.987 189.839 700.398C189.102 700.799 188.159 701 187.011 701H183.665ZM185.457 699.46H186.927C187.749 699.46 188.397 699.329 188.873 699.068C189.349 698.797 189.69 698.415 189.895 697.92C190.101 697.416 190.203 696.809 190.203 696.1C190.203 695.4 190.101 694.798 189.895 694.294C189.69 693.79 189.349 693.403 188.873 693.132C188.397 692.861 187.749 692.726 186.927 692.726H185.457V699.46ZM193.199 701L196.783 691.2H198.799L202.383 701H200.479L199.695 698.732H195.873L195.075 701H193.199ZM196.363 697.332H199.205L197.777 693.258L196.363 697.332ZM205.729 701V692.642H202.873V691.2H210.391V692.642H207.521V701H205.729ZM212.558 701V691.2H218.956V692.642H214.35V695.33H218.536V696.73H214.35V699.558H218.956V701H212.558Z" fill="white"/>
<path d="M41 42.75C41.4142 42.75 41.75 42.4142 41.75 42C41.75 41.5858 41.4142 41.25 41 41.25V42.75ZM22.2605 41.4697C21.9676 41.7626 21.9676 42.2374 22.2605 42.5303L27.0335 47.3033C27.3264 47.5962 27.8013 47.5962 28.0942 47.3033C28.3871 47.0104 28.3871 46.5355 28.0942 46.2426L23.8515 42L28.0942 37.7574C28.3871 37.4645 28.3871 36.9896 28.0942 36.6967C27.8013 36.4038 27.3264 36.4038 27.0335 36.6967L22.2605 41.4697ZM41 41.25H22.7909V42.75H41V41.25Z" fill="#087108"/>
<g filter="url(#filter1_d_6_2064)">
<path d="M20 177C20 171.477 24.4772 167 30 167H345C350.523 167 355 171.477 355 177V197C355 202.523 350.523 207 345 207H30C24.4771 207 20 202.523 20 197V177Z" fill="white"/>
</g>
<path d="M319.25 186.25C319.25 184.179 320.929 182.5 323 182.5C325.071 182.5 326.75 184.179 326.75 186.25C326.75 188.321 325.071 190 323 190C320.929 190 319.25 188.321 319.25 186.25Z" stroke="#60778C" stroke-width="1.5"/>
<mask id="path-6-inside-1_6_2064" fill="white">
<path fill-rule="evenodd" clip-rule="evenodd" d="M334.128 186.25C332.348 190.648 328.036 193.75 323 193.75C317.964 193.75 313.652 190.648 311.872 186.25C313.652 181.852 317.964 178.75 323 178.75C328.036 178.75 332.348 181.852 334.128 186.25Z"/>
</mask>
<path d="M334.128 186.25L335.518 186.813L335.746 186.25L335.518 185.687L334.128 186.25ZM311.872 186.25L310.482 185.687L310.254 186.25L310.482 186.813L311.872 186.25ZM332.737 185.687C331.179 189.538 327.404 192.25 323 192.25V195.25C328.668 195.25 333.517 191.758 335.518 186.813L332.737 185.687ZM323 192.25C318.596 192.25 314.821 189.538 313.263 185.687L310.482 186.813C312.483 191.758 317.332 195.25 323 195.25V192.25ZM313.263 186.813C314.821 182.962 318.596 180.25 323 180.25V177.25C317.332 177.25 312.483 180.742 310.482 185.687L313.263 186.813ZM323 180.25C327.404 180.25 331.179 182.962 332.737 186.813L335.518 185.687C333.517 180.742 328.668 177.25 323 177.25V180.25Z" fill="#60778C" mask="url(#path-6-inside-1_6_2064)"/>
<path d="M326.75 176.5L319.25 196.75" stroke="#60778C" stroke-width="1.5" stroke-linecap="round"/>
<path d="M327.946 176.5L320.446 196.75" stroke="white" stroke-width="1.5" stroke-linecap="round"/>
<circle cx="42.5" cy="187.5" r="2.5" fill="#087108"/>
<circle cx="53.5" cy="187.5" r="2.5" fill="#087108"/>
<circle cx="64.5" cy="187.5" r="2.5" fill="#087108"/>
<circle cx="75.5" cy="187.5" r="2.5" fill="#087108"/>
<circle cx="86.5" cy="187.5" r="2.5" fill="#087108"/>
<circle cx="97.5" cy="187.5" r="2.5" fill="#087108"/>
<circle cx="108.5" cy="187.5" r="2.5" fill="#087108"/>
<circle cx="119.5" cy="187.5" r="2.5" fill="#087108"/>
<circle cx="130.5" cy="187.5" r="2.5" fill="#087108"/>
<circle cx="141.5" cy="187.5" r="2.5" fill="#087108"/>
<path d="M24.728 153.144C23.896 153.144 23.168 152.96 22.544 152.592C21.92 152.224 21.432 151.716 21.08 151.068C20.728 150.412 20.552 149.656 20.552 148.8C20.552 147.944 20.728 147.192 21.08 146.544C21.432 145.888 21.92 145.376 22.544 145.008C23.168 144.64 23.896 144.456 24.728 144.456C25.56 144.456 26.288 144.64 26.912 145.008C27.536 145.376 28.02 145.888 28.364 146.544C28.716 147.192 28.892 147.944 28.892 148.8C28.892 149.656 28.716 150.412 28.364 151.068C28.02 151.716 27.536 152.224 26.912 152.592C26.288 152.96 25.56 153.144 24.728 153.144ZM24.728 152.004C25.304 152.004 25.804 151.876 26.228 151.62C26.66 151.364 26.996 150.996 27.236 150.516C27.476 150.036 27.596 149.464 27.596 148.8C27.596 148.136 27.476 147.564 27.236 147.084C26.996 146.604 26.66 146.236 26.228 145.98C25.804 145.724 25.304 145.596 24.728 145.596C24.152 145.596 23.648 145.724 23.216 145.98C22.784 146.236 22.448 146.604 22.208 147.084C21.976 147.564 21.86 148.136 21.86 148.8C21.86 149.464 21.976 150.036 22.208 150.516C22.448 150.996 22.784 151.364 23.216 151.62C23.648 151.876 24.152 152.004 24.728 152.004ZM30.261 153V144.36H31.533V153H30.261ZM35.8558 153.144C35.2798 153.144 34.7718 153.008 34.3318 152.736C33.8918 152.464 33.5478 152.092 33.2998 151.62C33.0518 151.148 32.9278 150.612 32.9278 150.012C32.9278 149.412 33.0518 148.88 33.2998 148.416C33.5478 147.944 33.8918 147.576 34.3318 147.312C34.7798 147.04 35.2918 146.904 35.8678 146.904C36.3398 146.904 36.7518 146.996 37.1038 147.18C37.4638 147.364 37.7438 147.624 37.9438 147.96V144.36H39.2158V153H38.0758L37.9438 152.076C37.7518 152.356 37.4878 152.604 37.1518 152.82C36.8158 153.036 36.3838 153.144 35.8558 153.144ZM36.0838 152.04C36.6278 152.04 37.0718 151.852 37.4158 151.476C37.7678 151.1 37.9438 150.616 37.9438 150.024C37.9438 149.424 37.7678 148.94 37.4158 148.572C37.0718 148.196 36.6278 148.008 36.0838 148.008C35.5398 148.008 35.0918 148.196 34.7398 148.572C34.3878 148.94 34.2118 149.424 34.2118 150.024C34.2118 150.416 34.2918 150.764 34.4518 151.068C34.6118 151.372 34.8318 151.612 35.1118 151.788C35.3998 151.956 35.7238 152.04 36.0838 152.04ZM43.8911 153V144.6H46.8311C47.4871 144.6 48.0311 144.712 48.4631 144.936C48.8951 145.152 49.2151 145.452 49.4231 145.836C49.6391 146.212 49.7471 146.64 49.7471 147.12C49.7471 147.576 49.6431 147.996 49.4351 148.38C49.2351 148.756 48.9191 149.056 48.4871 149.28C48.0551 149.504 47.5031 149.616 46.8311 149.616H45.1631V153H43.8911ZM45.1631 148.572H46.7711C47.3711 148.572 47.7991 148.444 48.0551 148.188C48.3191 147.924 48.4511 147.568 48.4511 147.12C48.4511 146.656 48.3191 146.296 48.0551 146.04C47.7991 145.776 47.3711 145.644 46.7711 145.644H45.1631V148.572ZM52.6442 153.144C52.1402 153.144 51.7242 153.06 51.3962 152.892C51.0682 152.724 50.8242 152.504 50.6642 152.232C50.5042 151.952 50.4242 151.648 50.4242 151.32C50.4242 150.744 50.6482 150.288 51.0962 149.952C51.5442 149.616 52.1842 149.448 53.0162 149.448H54.5762V149.34C54.5762 148.876 54.4482 148.528 54.1922 148.296C53.9442 148.064 53.6202 147.948 53.2202 147.948C52.8682 147.948 52.5602 148.036 52.2962 148.212C52.0402 148.38 51.8842 148.632 51.8282 148.968H50.5562C50.5962 148.536 50.7402 148.168 50.9882 147.864C51.2442 147.552 51.5642 147.316 51.9482 147.156C52.3402 146.988 52.7682 146.904 53.2322 146.904C54.0642 146.904 54.7082 147.124 55.1642 147.564C55.6202 147.996 55.8482 148.588 55.8482 149.34V153H54.7442L54.6362 151.98C54.4682 152.308 54.2242 152.584 53.9042 152.808C53.5842 153.032 53.1642 153.144 52.6442 153.144ZM52.8962 152.112C53.2402 152.112 53.5282 152.032 53.7602 151.872C54.0002 151.704 54.1842 151.484 54.3122 151.212C54.4482 150.94 54.5322 150.64 54.5642 150.312H53.1482C52.6442 150.312 52.2842 150.4 52.0682 150.576C51.8602 150.752 51.7562 150.972 51.7562 151.236C51.7562 151.508 51.8562 151.724 52.0562 151.884C52.2642 152.036 52.5442 152.112 52.8962 152.112ZM59.7073 153.144C58.9553 153.144 58.3353 152.96 57.8473 152.592C57.3593 152.224 57.0793 151.736 57.0073 151.128H58.2913C58.3553 151.4 58.5073 151.636 58.7473 151.836C58.9873 152.028 59.3033 152.124 59.6953 152.124C60.0793 152.124 60.3593 152.044 60.5353 151.884C60.7113 151.724 60.7993 151.54 60.7993 151.332C60.7993 151.028 60.6753 150.824 60.4273 150.72C60.1873 150.608 59.8513 150.508 59.4193 150.42C59.0833 150.348 58.7473 150.252 58.4113 150.132C58.0833 150.012 57.8073 149.844 57.5833 149.628C57.3673 149.404 57.2593 149.104 57.2593 148.728C57.2593 148.208 57.4593 147.776 57.8593 147.432C58.2593 147.08 58.8193 146.904 59.5393 146.904C60.2033 146.904 60.7393 147.064 61.1473 147.384C61.5633 147.704 61.8073 148.156 61.8793 148.74H60.6553C60.6153 148.484 60.4953 148.284 60.2953 148.14C60.1033 147.996 59.8433 147.924 59.5153 147.924C59.1953 147.924 58.9473 147.992 58.7713 148.128C58.5953 148.256 58.5073 148.424 58.5073 148.632C58.5073 148.84 58.6273 149.004 58.8673 149.124C59.1153 149.244 59.4393 149.352 59.8393 149.448C60.2393 149.536 60.6073 149.64 60.9433 149.76C61.2873 149.872 61.5633 150.04 61.7713 150.264C61.9793 150.488 62.0833 150.816 62.0833 151.248C62.0913 151.792 61.8793 152.244 61.4473 152.604C61.0233 152.964 60.4433 153.144 59.7073 153.144ZM65.848 153.144C65.096 153.144 64.476 152.96 63.988 152.592C63.5 152.224 63.22 151.736 63.148 151.128H64.432C64.496 151.4 64.648 151.636 64.888 151.836C65.128 152.028 65.444 152.124 65.836 152.124C66.22 152.124 66.5 152.044 66.676 151.884C66.852 151.724 66.94 151.54 66.94 151.332C66.94 151.028 66.816 150.824 66.568 150.72C66.328 150.608 65.992 150.508 65.56 150.42C65.224 150.348 64.888 150.252 64.552 150.132C64.224 150.012 63.948 149.844 63.724 149.628C63.508 149.404 63.4 149.104 63.4 148.728C63.4 148.208 63.6 147.776 64 147.432C64.4 147.08 64.96 146.904 65.68 146.904C66.344 146.904 66.88 147.064 67.288 147.384C67.704 147.704 67.948 148.156 68.02 148.74H66.796C66.756 148.484 66.636 148.284 66.436 148.14C66.244 147.996 65.984 147.924 65.656 147.924C65.336 147.924 65.088 147.992 64.912 148.128C64.736 148.256 64.648 148.424 64.648 148.632C64.648 148.84 64.768 149.004 65.008 149.124C65.256 149.244 65.58 149.352 65.98 149.448C66.38 149.536 66.748 149.64 67.084 149.76C67.428 149.872 67.704 150.04 67.912 150.264C68.12 150.488 68.224 150.816 68.224 151.248C68.232 151.792 68.02 152.244 67.588 152.604C67.164 152.964 66.584 153.144 65.848 153.144ZM70.6014 153L68.8494 147.048H70.1214L71.2734 151.536L72.5694 147.048H73.9854L75.2814 151.536L76.4334 147.048H77.7054L75.9534 153H74.6454L73.2774 148.32L71.9094 153H70.6014ZM81.3146 153.144C80.7466 153.144 80.2346 153.016 79.7786 152.76C79.3306 152.496 78.9746 152.132 78.7106 151.668C78.4466 151.196 78.3146 150.648 78.3146 150.024C78.3146 149.4 78.4466 148.856 78.7106 148.392C78.9826 147.92 79.3466 147.556 79.8026 147.3C80.2586 147.036 80.7666 146.904 81.3266 146.904C81.8946 146.904 82.4026 147.036 82.8506 147.3C83.3066 147.556 83.6666 147.92 83.9306 148.392C84.2026 148.856 84.3386 149.4 84.3386 150.024C84.3386 150.648 84.2026 151.196 83.9306 151.668C83.6666 152.132 83.3066 152.496 82.8506 152.76C82.3946 153.016 81.8826 153.144 81.3146 153.144ZM81.3146 152.052C81.6186 152.052 81.8986 151.976 82.1546 151.824C82.4186 151.672 82.6306 151.448 82.7906 151.152C82.9506 150.848 83.0306 150.472 83.0306 150.024C83.0306 149.576 82.9506 149.204 82.7906 148.908C82.6386 148.604 82.4306 148.376 82.1666 148.224C81.9106 148.072 81.6306 147.996 81.3266 147.996C81.0226 147.996 80.7386 148.072 80.4746 148.224C80.2186 148.376 80.0106 148.604 79.8506 148.908C79.6906 149.204 79.6106 149.576 79.6106 150.024C79.6106 150.472 79.6906 150.848 79.8506 151.152C80.0106 151.448 80.2186 151.672 80.4746 151.824C80.7306 151.976 81.0106 152.052 81.3146 152.052ZM85.7142 153V147.048H86.8542L86.9622 148.176C87.1702 147.784 87.4582 147.476 87.8262 147.252C88.2022 147.02 88.6542 146.904 89.1822 146.904V148.236H88.8342C88.4822 148.236 88.1662 148.296 87.8862 148.416C87.6142 148.528 87.3942 148.724 87.2262 149.004C87.0662 149.276 86.9862 149.656 86.9862 150.144V153H85.7142ZM92.8207 153.144C92.2447 153.144 91.7367 153.008 91.2967 152.736C90.8567 152.464 90.5127 152.092 90.2647 151.62C90.0167 151.148 89.8927 150.612 89.8927 150.012C89.8927 149.412 90.0167 148.88 90.2647 148.416C90.5127 147.944 90.8567 147.576 91.2967 147.312C91.7447 147.04 92.2567 146.904 92.8327 146.904C93.3047 146.904 93.7167 146.996 94.0687 147.18C94.4287 147.364 94.7087 147.624 94.9087 147.96V144.36H96.1807V153H95.0407L94.9087 152.076C94.7167 152.356 94.4527 152.604 94.1167 152.82C93.7807 153.036 93.3487 153.144 92.8207 153.144ZM93.0487 152.04C93.5927 152.04 94.0367 151.852 94.3807 151.476C94.7327 151.1 94.9087 150.616 94.9087 150.024C94.9087 149.424 94.7327 148.94 94.3807 148.572C94.0367 148.196 93.5927 148.008 93.0487 148.008C92.5047 148.008 92.0567 148.196 91.7047 148.572C91.3527 148.94 91.1767 149.424 91.1767 150.024C91.1767 150.416 91.2567 150.764 91.4167 151.068C91.5767 151.372 91.7967 151.612 92.0767 151.788C92.3647 151.956 92.6887 152.04 93.0487 152.04Z" fill="#087108"/>
<g filter="url(#filter2_d_6_2064)">
<path d="M20 258C20 252.477 24.4772 248 30 248H345C350.523 248 355 252.477 355 258V278C355 283.523 350.523 288 345 288H30C24.4771 288 20 283.523 20 278V258Z" fill="white"/>
</g>
<path d="M319.25 267.25C319.25 265.179 320.929 263.5 323 263.5C325.071 263.5 326.75 265.179 326.75 267.25C326.75 269.321 325.071 271 323 271C320.929 271 319.25 269.321 319.25 267.25Z" stroke="#60778C" stroke-width="1.5"/>
<mask id="path-23-inside-2_6_2064" fill="white">
<path fill-rule="evenodd" clip-rule="evenodd" d="M334.128 267.25C332.348 271.648 328.036 274.75 323 274.75C317.964 274.75 313.652 271.648 311.872 267.25C313.652 262.852 317.964 259.75 323 259.75C328.036 259.75 332.348 262.852 334.128 267.25Z"/>
</mask>
<path d="M334.128 267.25L335.518 267.813L335.746 267.25L335.518 266.687L334.128 267.25ZM311.872 267.25L310.482 266.687L310.254 267.25L310.482 267.813L311.872 267.25ZM332.737 266.687C331.179 270.538 327.404 273.25 323 273.25V276.25C328.668 276.25 333.517 272.758 335.518 267.813L332.737 266.687ZM323 273.25C318.596 273.25 314.821 270.538 313.263 266.687L310.482 267.813C312.483 272.758 317.332 276.25 323 276.25V273.25ZM313.263 267.813C314.821 263.962 318.596 261.25 323 261.25V258.25C317.332 258.25 312.483 261.742 310.482 266.687L313.263 267.813ZM323 261.25C327.404 261.25 331.179 263.962 332.737 267.813L335.518 266.687C333.517 261.742 328.668 258.25 323 258.25V261.25Z" fill="#60778C" mask="url(#path-23-inside-2_6_2064)"/>
<path d="M326.75 257.5L319.25 277.75" stroke="#60778C" stroke-width="1.5" stroke-linecap="round"/>
<path d="M327.946 257.5L320.446 277.75" stroke="white" stroke-width="1.5" stroke-linecap="round"/>
<circle cx="42.5" cy="268.5" r="2.5" fill="#087108"/>
<circle cx="53.5" cy="268.5" r="2.5" fill="#087108"/>
<circle cx="64.5" cy="268.5" r="2.5" fill="#087108"/>
<circle cx="75.5" cy="268.5" r="2.5" fill="#087108"/>
<circle cx="86.5" cy="268.5" r="2.5" fill="#087108"/>
<circle cx="97.5" cy="268.5" r="2.5" fill="#087108"/>
<circle cx="108.5" cy="268.5" r="2.5" fill="#087108"/>
<circle cx="119.5" cy="268.5" r="2.5" fill="#087108"/>
<circle cx="130.5" cy="268.5" r="2.5" fill="#087108"/>
<circle cx="141.5" cy="268.5" r="2.5" fill="#087108"/>
<path d="M20.852 234V225.6H22.124L26.336 231.924V225.6H27.608V234H26.336L22.124 227.676V234H20.852ZM32.0489 234.144C31.4649 234.144 30.9449 234.016 30.4889 233.76C30.0409 233.496 29.6889 233.132 29.4329 232.668C29.1769 232.204 29.0489 231.664 29.0489 231.048C29.0489 230.424 29.1729 229.876 29.4209 229.404C29.6769 228.932 30.0289 228.564 30.4769 228.3C30.9329 228.036 31.4609 227.904 32.0609 227.904C32.6449 227.904 33.1529 228.036 33.5849 228.3C34.0169 228.556 34.3529 228.9 34.5929 229.332C34.8329 229.764 34.9529 230.24 34.9529 230.76C34.9529 230.84 34.9489 230.928 34.9409 231.024C34.9409 231.112 34.9369 231.212 34.9289 231.324H30.2969C30.3369 231.9 30.5249 232.34 30.8609 232.644C31.2049 232.94 31.6009 233.088 32.0489 233.088C32.4089 233.088 32.7089 233.008 32.9489 232.848C33.1969 232.68 33.3809 232.456 33.5009 232.176H34.7729C34.6129 232.736 34.2929 233.204 33.8129 233.58C33.3409 233.956 32.7529 234.144 32.0489 234.144ZM32.0489 228.948C31.6249 228.948 31.2489 229.076 30.9209 229.332C30.5929 229.58 30.3929 229.956 30.3209 230.46H33.6809C33.6569 229.996 33.4929 229.628 33.1889 229.356C32.8849 229.084 32.5049 228.948 32.0489 228.948ZM37.2264 234L35.4744 228.048H36.7464L37.8984 232.536L39.1944 228.048H40.6104L41.9064 232.536L43.0584 228.048H44.3304L42.5784 234H41.2704L39.9024 229.32L38.5344 234H37.2264ZM48.4497 234V225.6H51.3897C52.0457 225.6 52.5897 225.712 53.0217 225.936C53.4537 226.152 53.7737 226.452 53.9817 226.836C54.1977 227.212 54.3057 227.64 54.3057 228.12C54.3057 228.576 54.2017 228.996 53.9937 229.38C53.7937 229.756 53.4777 230.056 53.0457 230.28C52.6137 230.504 52.0617 230.616 51.3897 230.616H49.7217V234H48.4497ZM49.7217 229.572H51.3297C51.9297 229.572 52.3577 229.444 52.6137 229.188C52.8777 228.924 53.0097 228.568 53.0097 228.12C53.0097 227.656 52.8777 227.296 52.6137 227.04C52.3577 226.776 51.9297 226.644 51.3297 226.644H49.7217V229.572ZM57.2028 234.144C56.6988 234.144 56.2828 234.06 55.9548 233.892C55.6268 233.724 55.3828 233.504 55.2228 233.232C55.0628 232.952 54.9828 232.648 54.9828 232.32C54.9828 231.744 55.2068 231.288 55.6548 230.952C56.1028 230.616 56.7428 230.448 57.5748 230.448H59.1348V230.34C59.1348 229.876 59.0068 229.528 58.7508 229.296C58.5028 229.064 58.1788 228.948 57.7788 228.948C57.4268 228.948 57.1188 229.036 56.8548 229.212C56.5988 229.38 56.4428 229.632 56.3868 229.968H55.1148C55.1548 229.536 55.2988 229.168 55.5468 228.864C55.8028 228.552 56.1228 228.316 56.5068 228.156C56.8988 227.988 57.3268 227.904 57.7908 227.904C58.6228 227.904 59.2668 228.124 59.7228 228.564C60.1788 228.996 60.4068 229.588 60.4068 230.34V234H59.3028L59.1948 232.98C59.0268 233.308 58.7828 233.584 58.4628 233.808C58.1428 234.032 57.7228 234.144 57.2028 234.144ZM57.4548 233.112C57.7988 233.112 58.0868 233.032 58.3188 232.872C58.5588 232.704 58.7428 232.484 58.8708 232.212C59.0068 231.94 59.0908 231.64 59.1228 231.312H57.7068C57.2028 231.312 56.8428 231.4 56.6268 231.576C56.4188 231.752 56.3148 231.972 56.3148 232.236C56.3148 232.508 56.4148 232.724 56.6148 232.884C56.8228 233.036 57.1028 233.112 57.4548 233.112ZM64.2659 234.144C63.5139 234.144 62.8939 233.96 62.4059 233.592C61.9179 233.224 61.6379 232.736 61.5659 232.128H62.8499C62.9139 232.4 63.0659 232.636 63.3059 232.836C63.5459 233.028 63.8619 233.124 64.2539 233.124C64.6379 233.124 64.9179 233.044 65.0939 232.884C65.2699 232.724 65.3579 232.54 65.3579 232.332C65.3579 232.028 65.2339 231.824 64.9859 231.72C64.7459 231.608 64.4099 231.508 63.9779 231.42C63.6419 231.348 63.3059 231.252 62.9699 231.132C62.6419 231.012 62.3659 230.844 62.1419 230.628C61.9259 230.404 61.8179 230.104 61.8179 229.728C61.8179 229.208 62.0179 228.776 62.4179 228.432C62.8179 228.08 63.3779 227.904 64.0979 227.904C64.7619 227.904 65.2979 228.064 65.7059 228.384C66.1219 228.704 66.3659 229.156 66.4379 229.74H65.2139C65.1739 229.484 65.0539 229.284 64.8539 229.14C64.6619 228.996 64.4019 228.924 64.0739 228.924C63.7539 228.924 63.5059 228.992 63.3299 229.128C63.1539 229.256 63.0659 229.424 63.0659 229.632C63.0659 229.84 63.1859 230.004 63.4259 230.124C63.6739 230.244 63.9979 230.352 64.3979 230.448C64.7979 230.536 65.1659 230.64 65.5019 230.76C65.8459 230.872 66.1219 231.04 66.3299 231.264C66.5379 231.488 66.6419 231.816 66.6419 232.248C66.6499 232.792 66.4379 233.244 66.0059 233.604C65.5819 233.964 65.0019 234.144 64.2659 234.144ZM70.4066 234.144C69.6546 234.144 69.0346 233.96 68.5466 233.592C68.0586 233.224 67.7786 232.736 67.7066 232.128H68.9906C69.0546 232.4 69.2066 232.636 69.4466 232.836C69.6866 233.028 70.0026 233.124 70.3946 233.124C70.7786 233.124 71.0586 233.044 71.2346 232.884C71.4106 232.724 71.4986 232.54 71.4986 232.332C71.4986 232.028 71.3746 231.824 71.1266 231.72C70.8866 231.608 70.5506 231.508 70.1186 231.42C69.7826 231.348 69.4466 231.252 69.1106 231.132C68.7826 231.012 68.5066 230.844 68.2826 230.628C68.0666 230.404 67.9586 230.104 67.9586 229.728C67.9586 229.208 68.1586 228.776 68.5586 228.432C68.9586 228.08 69.5186 227.904 70.2386 227.904C70.9026 227.904 71.4386 228.064 71.8466 228.384C72.2626 228.704 72.5066 229.156 72.5786 229.74H71.3546C71.3146 229.484 71.1946 229.284 70.9946 229.14C70.8026 228.996 70.5426 228.924 70.2146 228.924C69.8946 228.924 69.6466 228.992 69.4706 229.128C69.2946 229.256 69.2066 229.424 69.2066 229.632C69.2066 229.84 69.3266 230.004 69.5666 230.124C69.8146 230.244 70.1386 230.352 70.5386 230.448C70.9386 230.536 71.3066 230.64 71.6426 230.76C71.9866 230.872 72.2626 231.04 72.4706 231.264C72.6786 231.488 72.7826 231.816 72.7826 232.248C72.7906 232.792 72.5786 233.244 72.1466 233.604C71.7226 233.964 71.1426 234.144 70.4066 234.144ZM75.16 234L73.408 228.048H74.68L75.832 232.536L77.128 228.048H78.544L79.84 232.536L80.992 228.048H82.264L80.512 234H79.204L77.836 229.32L76.468 234H75.16ZM85.8732 234.144C85.3052 234.144 84.7932 234.016 84.3372 233.76C83.8892 233.496 83.5332 233.132 83.2692 232.668C83.0052 232.196 82.8732 231.648 82.8732 231.024C82.8732 230.4 83.0052 229.856 83.2692 229.392C83.5412 228.92 83.9052 228.556 84.3612 228.3C84.8172 228.036 85.3252 227.904 85.8852 227.904C86.4532 227.904 86.9612 228.036 87.4092 228.3C87.8652 228.556 88.2252 228.92 88.4892 229.392C88.7612 229.856 88.8972 230.4 88.8972 231.024C88.8972 231.648 88.7612 232.196 88.4892 232.668C88.2252 233.132 87.8652 233.496 87.4092 233.76C86.9532 234.016 86.4412 234.144 85.8732 234.144ZM85.8732 233.052C86.1772 233.052 86.4572 232.976 86.7132 232.824C86.9772 232.672 87.1892 232.448 87.3492 232.152C87.5092 231.848 87.5892 231.472 87.5892 231.024C87.5892 230.576 87.5092 230.204 87.3492 229.908C87.1972 229.604 86.9892 229.376 86.7252 229.224C86.4692 229.072 86.1892 228.996 85.8852 228.996C85.5812 228.996 85.2972 229.072 85.0332 229.224C84.7772 229.376 84.5692 229.604 84.4092 229.908C84.2492 230.204 84.1692 230.576 84.1692 231.024C84.1692 231.472 84.2492 231.848 84.4092 232.152C84.5692 232.448 84.7772 232.672 85.0332 232.824C85.2892 232.976 85.5692 233.052 85.8732 233.052ZM90.2728 234V228.048H91.4128L91.5208 229.176C91.7288 228.784 92.0168 228.476 92.3848 228.252C92.7608 228.02 93.2128 227.904 93.7408 227.904V229.236H93.3928C93.0408 229.236 92.7248 229.296 92.4448 229.416C92.1728 229.528 91.9528 229.724 91.7848 230.004C91.6248 230.276 91.5448 230.656 91.5448 231.144V234H90.2728ZM97.3793 234.144C96.8033 234.144 96.2953 234.008 95.8553 233.736C95.4153 233.464 95.0713 233.092 94.8233 232.62C94.5753 232.148 94.4513 231.612 94.4513 231.012C94.4513 230.412 94.5753 229.88 94.8233 229.416C95.0713 228.944 95.4153 228.576 95.8553 228.312C96.3033 228.04 96.8153 227.904 97.3913 227.904C97.8633 227.904 98.2753 227.996 98.6273 228.18C98.9873 228.364 99.2673 228.624 99.4673 228.96V225.36H100.739V234H99.5993L99.4673 233.076C99.2753 233.356 99.0113 233.604 98.6753 233.82C98.3393 234.036 97.9073 234.144 97.3793 234.144ZM97.6073 233.04C98.1513 233.04 98.5953 232.852 98.9393 232.476C99.2913 232.1 99.4673 231.616 99.4673 231.024C99.4673 230.424 99.2913 229.94 98.9393 229.572C98.5953 229.196 98.1513 229.008 97.6073 229.008C97.0633 229.008 96.6153 229.196 96.2633 229.572C95.9113 229.94 95.7353 230.424 95.7353 231.024C95.7353 231.416 95.8153 231.764 95.9753 232.068C96.1353 232.372 96.3553 232.612 96.6353 232.788C96.9233 232.956 97.2473 233.04 97.6073 233.04Z" fill="#087108"/>
<g filter="url(#filter3_d_6_2064)">
<path d="M20 339C20 333.477 24.4772 329 30 329H345C350.523 329 355 333.477 355 339V359C355 364.523 350.523 369 345 369H30C24.4771 369 20 364.523 20 359V339Z" fill="white"/>
</g>
<path d="M319.25 348.25C319.25 346.179 320.929 344.5 323 344.5C325.071 344.5 326.75 346.179 326.75 348.25C326.75 350.321 325.071 352 323 352C320.929 352 319.25 350.321 319.25 348.25Z" stroke="#60778C" stroke-width="1.5"/>
<mask id="path-40-inside-3_6_2064" fill="white">
<path fill-rule="evenodd" clip-rule="evenodd" d="M334.128 348.25C332.348 352.648 328.036 355.75 323 355.75C317.964 355.75 313.652 352.648 311.872 348.25C313.652 343.852 317.964 340.75 323 340.75C328.036 340.75 332.348 343.852 334.128 348.25Z"/>
</mask>
<path d="M334.128 348.25L335.518 348.813L335.746 348.25L335.518 347.687L334.128 348.25ZM311.872 348.25L310.482 347.687L310.254 348.25L310.482 348.813L311.872 348.25ZM332.737 347.687C331.179 351.538 327.404 354.25 323 354.25V357.25C328.668 357.25 333.517 353.758 335.518 348.813L332.737 347.687ZM323 354.25C318.596 354.25 314.821 351.538 313.263 347.687L310.482 348.813C312.483 353.758 317.332 357.25 323 357.25V354.25ZM313.263 348.813C314.821 344.962 318.596 342.25 323 342.25V339.25C317.332 339.25 312.483 342.742 310.482 347.687L313.263 348.813ZM323 342.25C327.404 342.25 331.179 344.962 332.737 348.813L335.518 347.687C333.517 342.742 328.668 339.25 323 339.25V342.25Z" fill="#60778C" mask="url(#path-40-inside-3_6_2064)"/>
<path d="M326.75 338.5L319.25 358.75" stroke="#60778C" stroke-width="1.5" stroke-linecap="round"/>
<path d="M327.946 338.5L320.446 358.75" stroke="white" stroke-width="1.5" stroke-linecap="round"/>
<circle cx="42.5" cy="349.5" r="2.5" fill="#087108"/>
<circle cx="53.5" cy="349.5" r="2.5" fill="#087108"/>
<circle cx="64.5" cy="349.5" r="2.5" fill="#087108"/>
<circle cx="75.5" cy="349.5" r="2.5" fill="#087108"/>
<circle cx="86.5" cy="349.5" r="2.5" fill="#087108"/>
<circle cx="97.5" cy="349.5" r="2.5" fill="#087108"/>
<circle cx="108.5" cy="349.5" r="2.5" fill="#087108"/>
<circle cx="119.5" cy="349.5" r="2.5" fill="#087108"/>
<circle cx="130.5" cy="349.5" r="2.5" fill="#087108"/>
<circle cx="141.5" cy="349.5" r="2.5" fill="#087108"/>
<path d="M24.596 315.144C23.764 315.144 23.044 314.964 22.436 314.604C21.836 314.236 21.372 313.728 21.044 313.08C20.716 312.424 20.552 311.668 20.552 310.812C20.552 309.948 20.716 309.192 21.044 308.544C21.372 307.888 21.836 307.376 22.436 307.008C23.044 306.64 23.764 306.456 24.596 306.456C25.58 306.456 26.384 306.696 27.008 307.176C27.632 307.656 28.028 308.328 28.196 309.192H26.78C26.668 308.704 26.428 308.316 26.06 308.028C25.692 307.74 25.2 307.596 24.584 307.596C23.744 307.596 23.08 307.884 22.592 308.46C22.104 309.028 21.86 309.812 21.86 310.812C21.86 311.804 22.104 312.584 22.592 313.152C23.08 313.72 23.744 314.004 24.584 314.004C25.2 314.004 25.692 313.868 26.06 313.596C26.428 313.324 26.668 312.952 26.78 312.48H28.196C28.028 313.312 27.632 313.964 27.008 314.436C26.384 314.908 25.58 315.144 24.596 315.144ZM32.3302 315.144C31.7622 315.144 31.2502 315.016 30.7942 314.76C30.3462 314.496 29.9902 314.132 29.7262 313.668C29.4622 313.196 29.3302 312.648 29.3302 312.024C29.3302 311.4 29.4622 310.856 29.7262 310.392C29.9982 309.92 30.3622 309.556 30.8182 309.3C31.2742 309.036 31.7822 308.904 32.3422 308.904C32.9102 308.904 33.4182 309.036 33.8662 309.3C34.3222 309.556 34.6822 309.92 34.9462 310.392C35.2182 310.856 35.3542 311.4 35.3542 312.024C35.3542 312.648 35.2182 313.196 34.9462 313.668C34.6822 314.132 34.3222 314.496 33.8662 314.76C33.4102 315.016 32.8982 315.144 32.3302 315.144ZM32.3302 314.052C32.6342 314.052 32.9142 313.976 33.1702 313.824C33.4342 313.672 33.6462 313.448 33.8062 313.152C33.9662 312.848 34.0462 312.472 34.0462 312.024C34.0462 311.576 33.9662 311.204 33.8062 310.908C33.6542 310.604 33.4462 310.376 33.1822 310.224C32.9262 310.072 32.6462 309.996 32.3422 309.996C32.0382 309.996 31.7542 310.072 31.4902 310.224C31.2342 310.376 31.0262 310.604 30.8662 310.908C30.7062 311.204 30.6262 311.576 30.6262 312.024C30.6262 312.472 30.7062 312.848 30.8662 313.152C31.0262 313.448 31.2342 313.672 31.4902 313.824C31.7462 313.976 32.0262 314.052 32.3302 314.052ZM36.7298 315V309.048H37.8578L37.9538 310.092C38.1378 309.724 38.4058 309.436 38.7578 309.228C39.1178 309.012 39.5298 308.904 39.9938 308.904C40.7138 308.904 41.2778 309.128 41.6858 309.576C42.1018 310.024 42.3098 310.692 42.3098 311.58V315H41.0498V311.712C41.0498 310.56 40.5778 309.984 39.6338 309.984C39.1618 309.984 38.7698 310.152 38.4578 310.488C38.1538 310.824 38.0018 311.304 38.0018 311.928V315H36.7298ZM44.1079 315V310.116H43.2559V309.048H44.1079V308.184C44.1079 307.536 44.2679 307.072 44.5879 306.792C44.9159 306.504 45.3759 306.36 45.9679 306.36H46.5919V307.44H46.1599C45.8799 307.44 45.6799 307.5 45.5599 307.62C45.4399 307.732 45.3799 307.924 45.3799 308.196V309.048H49.1479V315H47.8759V310.116H45.3799V315H44.1079ZM48.5239 308.052C48.2839 308.052 48.0839 307.98 47.9239 307.836C47.7719 307.684 47.6959 307.492 47.6959 307.26C47.6959 307.036 47.7719 306.852 47.9239 306.708C48.0839 306.564 48.2839 306.492 48.5239 306.492C48.7639 306.492 48.9599 306.564 49.1119 306.708C49.2719 306.852 49.3519 307.036 49.3519 307.26C49.3519 307.492 49.2719 307.684 49.1119 307.836C48.9599 307.98 48.7639 308.052 48.5239 308.052ZM50.8392 315V309.048H51.9792L52.0872 310.176C52.2952 309.784 52.5832 309.476 52.9512 309.252C53.3272 309.02 53.7792 308.904 54.3072 308.904V310.236H53.9592C53.6072 310.236 53.2912 310.296 53.0112 310.416C52.7392 310.528 52.5192 310.724 52.3512 311.004C52.1912 311.276 52.1112 311.656 52.1112 312.144V315H50.8392ZM55.3978 315V309.048H56.5258L56.6338 309.888C56.8258 309.584 57.0778 309.344 57.3898 309.168C57.7098 308.992 58.0778 308.904 58.4938 308.904C59.4378 308.904 60.0938 309.276 60.4618 310.02C60.6778 309.676 60.9658 309.404 61.3258 309.204C61.6938 309.004 62.0898 308.904 62.5138 308.904C63.2578 308.904 63.8418 309.128 64.2658 309.576C64.6898 310.024 64.9018 310.692 64.9018 311.58V315H63.6298V311.712C63.6298 310.56 63.1898 309.984 62.3098 309.984C61.8618 309.984 61.4938 310.152 61.2057 310.488C60.9258 310.824 60.7858 311.304 60.7858 311.928V315H59.5138V311.712C59.5138 310.56 59.0698 309.984 58.1818 309.984C57.7418 309.984 57.3778 310.152 57.0898 310.488C56.8098 310.824 56.6698 311.304 56.6698 311.928V315H55.3978ZM69.4614 315V306.6H72.4014C73.0574 306.6 73.6014 306.712 74.0334 306.936C74.4654 307.152 74.7854 307.452 74.9934 307.836C75.2094 308.212 75.3174 308.64 75.3174 309.12C75.3174 309.576 75.2134 309.996 75.0054 310.38C74.8054 310.756 74.4894 311.056 74.0574 311.28C73.6254 311.504 73.0734 311.616 72.4014 311.616H70.7334V315H69.4614ZM70.7334 310.572H72.3414C72.9414 310.572 73.3694 310.444 73.6254 310.188C73.8894 309.924 74.0214 309.568 74.0214 309.12C74.0214 308.656 73.8894 308.296 73.6254 308.04C73.3694 307.776 72.9414 307.644 72.3414 307.644H70.7334V310.572ZM78.2145 315.144C77.7105 315.144 77.2945 315.06 76.9665 314.892C76.6385 314.724 76.3945 314.504 76.2345 314.232C76.0745 313.952 75.9945 313.648 75.9945 313.32C75.9945 312.744 76.2185 312.288 76.6665 311.952C77.1145 311.616 77.7545 311.448 78.5865 311.448H80.1465V311.34C80.1465 310.876 80.0185 310.528 79.7625 310.296C79.5145 310.064 79.1905 309.948 78.7905 309.948C78.4385 309.948 78.1305 310.036 77.8665 310.212C77.6105 310.38 77.4545 310.632 77.3985 310.968H76.1265C76.1665 310.536 76.3105 310.168 76.5585 309.864C76.8145 309.552 77.1345 309.316 77.5185 309.156C77.9105 308.988 78.3385 308.904 78.8025 308.904C79.6345 308.904 80.2785 309.124 80.7345 309.564C81.1905 309.996 81.4185 310.588 81.4185 311.34V315H80.3145L80.2065 313.98C80.0385 314.308 79.7945 314.584 79.4745 314.808C79.1545 315.032 78.7345 315.144 78.2145 315.144ZM78.4665 314.112C78.8105 314.112 79.0985 314.032 79.3305 313.872C79.5705 313.704 79.7545 313.484 79.8825 313.212C80.0185 312.94 80.1025 312.64 80.1345 312.312H78.7185C78.2145 312.312 77.8545 312.4 77.6385 312.576C77.4305 312.752 77.3265 312.972 77.3265 313.236C77.3265 313.508 77.4265 313.724 77.6265 313.884C77.8345 314.036 78.1145 314.112 78.4665 314.112ZM85.2777 315.144C84.5257 315.144 83.9057 314.96 83.4177 314.592C82.9297 314.224 82.6497 313.736 82.5777 313.128H83.8617C83.9257 313.4 84.0777 313.636 84.3177 313.836C84.5577 314.028 84.8737 314.124 85.2657 314.124C85.6497 314.124 85.9297 314.044 86.1057 313.884C86.2817 313.724 86.3697 313.54 86.3697 313.332C86.3697 313.028 86.2457 312.824 85.9977 312.72C85.7577 312.608 85.4217 312.508 84.9897 312.42C84.6537 312.348 84.3177 312.252 83.9817 312.132C83.6537 312.012 83.3777 311.844 83.1537 311.628C82.9377 311.404 82.8297 311.104 82.8297 310.728C82.8297 310.208 83.0297 309.776 83.4297 309.432C83.8297 309.08 84.3897 308.904 85.1097 308.904C85.7737 308.904 86.3097 309.064 86.7177 309.384C87.1337 309.704 87.3777 310.156 87.4497 310.74H86.2257C86.1857 310.484 86.0657 310.284 85.8657 310.14C85.6737 309.996 85.4137 309.924 85.0857 309.924C84.7657 309.924 84.5177 309.992 84.3417 310.128C84.1657 310.256 84.0777 310.424 84.0777 310.632C84.0777 310.84 84.1977 311.004 84.4377 311.124C84.6857 311.244 85.0097 311.352 85.4097 311.448C85.8097 311.536 86.1777 311.64 86.5137 311.76C86.8577 311.872 87.1337 312.04 87.3417 312.264C87.5497 312.488 87.6537 312.816 87.6537 313.248C87.6617 313.792 87.4497 314.244 87.0177 314.604C86.5937 314.964 86.0137 315.144 85.2777 315.144ZM91.4183 315.144C90.6663 315.144 90.0463 314.96 89.5583 314.592C89.0703 314.224 88.7903 313.736 88.7183 313.128H90.0023C90.0663 313.4 90.2183 313.636 90.4583 313.836C90.6983 314.028 91.0143 314.124 91.4063 314.124C91.7903 314.124 92.0703 314.044 92.2463 313.884C92.4223 313.724 92.5103 313.54 92.5103 313.332C92.5103 313.028 92.3863 312.824 92.1383 312.72C91.8983 312.608 91.5623 312.508 91.1303 312.42C90.7943 312.348 90.4583 312.252 90.1223 312.132C89.7943 312.012 89.5183 311.844 89.2943 311.628C89.0783 311.404 88.9703 311.104 88.9703 310.728C88.9703 310.208 89.1703 309.776 89.5703 309.432C89.9703 309.08 90.5303 308.904 91.2503 308.904C91.9143 308.904 92.4503 309.064 92.8583 309.384C93.2743 309.704 93.5183 310.156 93.5903 310.74H92.3663C92.3263 310.484 92.2063 310.284 92.0063 310.14C91.8143 309.996 91.5543 309.924 91.2263 309.924C90.9063 309.924 90.6583 309.992 90.4823 310.128C90.3063 310.256 90.2183 310.424 90.2183 310.632C90.2183 310.84 90.3383 311.004 90.5783 311.124C90.8263 311.244 91.1503 311.352 91.5503 311.448C91.9503 311.536 92.3183 311.64 92.6543 311.76C92.9983 311.872 93.2743 312.04 93.4823 312.264C93.6903 312.488 93.7943 312.816 93.7943 313.248C93.8023 313.792 93.5903 314.244 93.1583 314.604C92.7343 314.964 92.1543 315.144 91.4183 315.144ZM96.1717 315L94.4197 309.048H95.6917L96.8437 313.536L98.1397 309.048H99.5557L100.852 313.536L102.004 309.048H103.276L101.524 315H100.216L98.8477 310.32L97.4797 315H96.1717ZM106.885 315.144C106.317 315.144 105.805 315.016 105.349 314.76C104.901 314.496 104.545 314.132 104.281 313.668C104.017 313.196 103.885 312.648 103.885 312.024C103.885 311.4 104.017 310.856 104.281 310.392C104.553 309.92 104.917 309.556 105.373 309.3C105.829 309.036 106.337 308.904 106.897 308.904C107.465 308.904 107.973 309.036 108.421 309.3C108.877 309.556 109.237 309.92 109.501 310.392C109.773 310.856 109.909 311.4 109.909 312.024C109.909 312.648 109.773 313.196 109.501 313.668C109.237 314.132 108.877 314.496 108.421 314.76C107.965 315.016 107.453 315.144 106.885 315.144ZM106.885 314.052C107.189 314.052 107.469 313.976 107.725 313.824C107.989 313.672 108.201 313.448 108.361 313.152C108.521 312.848 108.601 312.472 108.601 312.024C108.601 311.576 108.521 311.204 108.361 310.908C108.209 310.604 108.001 310.376 107.737 310.224C107.481 310.072 107.201 309.996 106.897 309.996C106.593 309.996 106.309 310.072 106.045 310.224C105.789 310.376 105.581 310.604 105.421 310.908C105.261 311.204 105.181 311.576 105.181 312.024C105.181 312.472 105.261 312.848 105.421 313.152C105.581 313.448 105.789 313.672 106.045 313.824C106.301 313.976 106.581 314.052 106.885 314.052ZM111.284 315V309.048H112.424L112.532 310.176C112.74 309.784 113.028 309.476 113.396 309.252C113.772 309.02 114.224 308.904 114.752 308.904V310.236H114.404C114.052 310.236 113.736 310.296 113.456 310.416C113.184 310.528 112.964 310.724 112.796 311.004C112.636 311.276 112.556 311.656 112.556 312.144V315H111.284ZM118.391 315.144C117.815 315.144 117.307 315.008 116.867 314.736C116.427 314.464 116.083 314.092 115.835 313.62C115.587 313.148 115.463 312.612 115.463 312.012C115.463 311.412 115.587 310.88 115.835 310.416C116.083 309.944 116.427 309.576 116.867 309.312C117.315 309.04 117.827 308.904 118.403 308.904C118.875 308.904 119.287 308.996 119.639 309.18C119.999 309.364 120.279 309.624 120.479 309.96V306.36H121.751V315H120.611L120.479 314.076C120.287 314.356 120.023 314.604 119.687 314.82C119.351 315.036 118.919 315.144 118.391 315.144ZM118.619 314.04C119.163 314.04 119.607 313.852 119.951 313.476C120.303 313.1 120.479 312.616 120.479 312.024C120.479 311.424 120.303 310.94 119.951 310.572C119.607 310.196 119.163 310.008 118.619 310.008C118.075 310.008 117.627 310.196 117.275 310.572C116.923 310.94 116.747 311.424 116.747 312.024C116.747 312.416 116.827 312.764 116.987 313.068C117.147 313.372 117.367 313.612 117.647 313.788C117.935 313.956 118.259 314.04 118.619 314.04Z" fill="#087108"/>
<path d="M25.328 110.192C24.528 110.192 23.8027 110.037 23.152 109.728C22.512 109.408 22 108.923 21.616 108.272C21.2427 107.621 21.056 106.795 21.056 105.792V98.8H22.752V105.808C22.752 106.789 22.9867 107.509 23.456 107.968C23.9253 108.427 24.56 108.656 25.36 108.656C26.1493 108.656 26.7787 108.427 27.248 107.968C27.7173 107.509 27.952 106.789 27.952 105.808V98.8H29.648V105.792C29.648 106.795 29.4507 107.621 29.056 108.272C28.672 108.923 28.1493 109.408 27.488 109.728C26.8373 110.037 26.1173 110.192 25.328 110.192ZM31.7595 113.52V102.064H33.2795L33.4555 103.296C33.7115 102.923 34.0635 102.592 34.5115 102.304C34.9595 102.016 35.5355 101.872 36.2395 101.872C37.0075 101.872 37.6848 102.053 38.2715 102.416C38.8582 102.779 39.3168 103.275 39.6475 103.904C39.9888 104.533 40.1595 105.248 40.1595 106.048C40.1595 106.848 39.9888 107.563 39.6475 108.192C39.3168 108.811 38.8582 109.301 38.2715 109.664C37.6848 110.016 37.0022 110.192 36.2235 110.192C35.6048 110.192 35.0555 110.069 34.5755 109.824C34.1062 109.579 33.7328 109.232 33.4555 108.784V113.52H31.7595ZM35.9355 108.72C36.6608 108.72 37.2582 108.475 37.7275 107.984C38.1968 107.483 38.4315 106.832 38.4315 106.032C38.4315 105.509 38.3248 105.045 38.1115 104.64C37.8982 104.235 37.6048 103.92 37.2315 103.696C36.8582 103.461 36.4262 103.344 35.9355 103.344C35.2102 103.344 34.6128 103.595 34.1435 104.096C33.6848 104.597 33.4555 105.243 33.4555 106.032C33.4555 106.832 33.6848 107.483 34.1435 107.984C34.6128 108.475 35.2102 108.72 35.9355 108.72ZM45.6099 110.192C44.8419 110.192 44.1645 110.011 43.5779 109.648C42.9912 109.285 42.5325 108.789 42.2019 108.16C41.8712 107.531 41.7059 106.816 41.7059 106.016C41.7059 105.216 41.8712 104.507 42.2019 103.888C42.5325 103.259 42.9912 102.768 43.5779 102.416C44.1752 102.053 44.8579 101.872 45.6259 101.872C46.2552 101.872 46.8045 101.995 47.2739 102.24C47.7539 102.485 48.1272 102.832 48.3939 103.28V98.48H50.0899V110H48.5699L48.3939 108.768C48.1379 109.141 47.7859 109.472 47.3379 109.76C46.8899 110.048 46.3139 110.192 45.6099 110.192ZM45.9139 108.72C46.6392 108.72 47.2312 108.469 47.6899 107.968C48.1592 107.467 48.3939 106.821 48.3939 106.032C48.3939 105.232 48.1592 104.587 47.6899 104.096C47.2312 103.595 46.6392 103.344 45.9139 103.344C45.1885 103.344 44.5912 103.595 44.1219 104.096C43.6525 104.587 43.4179 105.232 43.4179 106.032C43.4179 106.555 43.5245 107.019 43.7379 107.424C43.9512 107.829 44.2445 108.149 44.6179 108.384C45.0019 108.608 45.4339 108.72 45.9139 108.72ZM54.9163 110.192C54.2443 110.192 53.6896 110.08 53.2523 109.856C52.8149 109.632 52.4896 109.339 52.2763 108.976C52.0629 108.603 51.9563 108.197 51.9563 107.76C51.9563 106.992 52.2549 106.384 52.8523 105.936C53.4496 105.488 54.3029 105.264 55.4123 105.264H57.4923V105.12C57.4923 104.501 57.3216 104.037 56.9803 103.728C56.6496 103.419 56.2176 103.264 55.6843 103.264C55.2149 103.264 54.8043 103.381 54.4523 103.616C54.1109 103.84 53.9029 104.176 53.8283 104.624H52.1323C52.1856 104.048 52.3776 103.557 52.7083 103.152C53.0496 102.736 53.4763 102.421 53.9883 102.208C54.5109 101.984 55.0816 101.872 55.7003 101.872C56.8096 101.872 57.6683 102.165 58.2763 102.752C58.8843 103.328 59.1883 104.117 59.1883 105.12V110H57.7163L57.5723 108.64C57.3483 109.077 57.0229 109.445 56.5963 109.744C56.1696 110.043 55.6096 110.192 54.9163 110.192ZM55.2523 108.816C55.7109 108.816 56.0949 108.709 56.4043 108.496C56.7243 108.272 56.9696 107.979 57.1403 107.616C57.3216 107.253 57.4336 106.853 57.4763 106.416H55.5883C54.9163 106.416 54.4363 106.533 54.1483 106.768C53.8709 107.003 53.7323 107.296 53.7323 107.648C53.7323 108.011 53.8656 108.299 54.1323 108.512C54.4096 108.715 54.7829 108.816 55.2523 108.816ZM64.3375 110C63.5588 110 62.9402 109.813 62.4815 109.44C62.0228 109.056 61.7935 108.379 61.7935 107.408V103.488H60.4335V102.064H61.7935L62.0015 100.048H63.4895V102.064H65.7295V103.488H63.4895V107.408C63.4895 107.845 63.5802 108.149 63.7615 108.32C63.9535 108.48 64.2788 108.56 64.7375 108.56H65.6495V110H64.3375ZM70.9871 110.192C70.2085 110.192 69.5151 110.021 68.9071 109.68C68.3098 109.328 67.8405 108.843 67.4991 108.224C67.1578 107.605 66.9871 106.885 66.9871 106.064C66.9871 105.232 67.1525 104.501 67.4831 103.872C67.8245 103.243 68.2938 102.752 68.8911 102.4C69.4991 102.048 70.2031 101.872 71.0031 101.872C71.7818 101.872 72.4591 102.048 73.0351 102.4C73.6111 102.741 74.0591 103.2 74.3791 103.776C74.6991 104.352 74.8591 104.987 74.8591 105.68C74.8591 105.787 74.8538 105.904 74.8431 106.032C74.8431 106.149 74.8378 106.283 74.8271 106.432H68.6511C68.7045 107.2 68.9551 107.787 69.4031 108.192C69.8618 108.587 70.3898 108.784 70.9871 108.784C71.4671 108.784 71.8671 108.677 72.1871 108.464C72.5178 108.24 72.7631 107.941 72.9231 107.568H74.6191C74.4058 108.315 73.9791 108.939 73.3391 109.44C72.7098 109.941 71.9258 110.192 70.9871 110.192ZM70.9871 103.264C70.4218 103.264 69.9205 103.435 69.4831 103.776C69.0458 104.107 68.7791 104.608 68.6831 105.28H73.1631C73.1311 104.661 72.9125 104.171 72.5071 103.808C72.1018 103.445 71.5951 103.264 70.9871 103.264ZM80.7141 110V98.8H84.6341C85.5088 98.8 86.2341 98.9493 86.8101 99.248C87.3861 99.536 87.8128 99.936 88.0901 100.448C88.3781 100.949 88.5221 101.52 88.5221 102.16C88.5221 102.768 88.3835 103.328 88.1061 103.84C87.8395 104.341 87.4181 104.741 86.8421 105.04C86.2661 105.339 85.5301 105.488 84.6341 105.488H82.4101V110H80.7141ZM82.4101 104.096H84.5541C85.3541 104.096 85.9248 103.925 86.2661 103.584C86.6181 103.232 86.7941 102.757 86.7941 102.16C86.7941 101.541 86.6181 101.061 86.2661 100.72C85.9248 100.368 85.3541 100.192 84.5541 100.192H82.4101V104.096ZM92.385 110.192C91.713 110.192 91.1583 110.08 90.721 109.856C90.2837 109.632 89.9583 109.339 89.745 108.976C89.5317 108.603 89.425 108.197 89.425 107.76C89.425 106.992 89.7237 106.384 90.321 105.936C90.9183 105.488 91.7717 105.264 92.881 105.264H94.961V105.12C94.961 104.501 94.7903 104.037 94.449 103.728C94.1183 103.419 93.6863 103.264 93.153 103.264C92.6837 103.264 92.273 103.381 91.921 103.616C91.5797 103.84 91.3717 104.176 91.297 104.624H89.601C89.6543 104.048 89.8463 103.557 90.177 103.152C90.5183 102.736 90.945 102.421 91.457 102.208C91.9797 101.984 92.5503 101.872 93.169 101.872C94.2783 101.872 95.137 102.165 95.745 102.752C96.353 103.328 96.657 104.117 96.657 105.12V110H95.185L95.041 108.64C94.817 109.077 94.4917 109.445 94.065 109.744C93.6383 110.043 93.0783 110.192 92.385 110.192ZM92.721 108.816C93.1797 108.816 93.5637 108.709 93.873 108.496C94.193 108.272 94.4383 107.979 94.609 107.616C94.7903 107.253 94.9023 106.853 94.945 106.416H93.057C92.385 106.416 91.905 106.533 91.617 106.768C91.3397 107.003 91.201 107.296 91.201 107.648C91.201 108.011 91.3343 108.299 91.601 108.512C91.8783 108.715 92.2517 108.816 92.721 108.816ZM101.803 110.192C100.8 110.192 99.9732 109.947 99.3225 109.456C98.6718 108.965 98.2985 108.315 98.2025 107.504H99.9145C99.9998 107.867 100.203 108.181 100.523 108.448C100.843 108.704 101.264 108.832 101.786 108.832C102.299 108.832 102.672 108.725 102.907 108.512C103.141 108.299 103.259 108.053 103.259 107.776C103.259 107.371 103.093 107.099 102.763 106.96C102.443 106.811 101.995 106.677 101.419 106.56C100.971 106.464 100.523 106.336 100.075 106.176C99.6372 106.016 99.2692 105.792 98.9705 105.504C98.6825 105.205 98.5385 104.805 98.5385 104.304C98.5385 103.611 98.8052 103.035 99.3385 102.576C99.8718 102.107 100.619 101.872 101.579 101.872C102.464 101.872 103.179 102.085 103.723 102.512C104.277 102.939 104.603 103.541 104.699 104.32H103.067C103.013 103.979 102.853 103.712 102.587 103.52C102.331 103.328 101.984 103.232 101.547 103.232C101.12 103.232 100.789 103.323 100.555 103.504C100.32 103.675 100.203 103.899 100.203 104.176C100.203 104.453 100.363 104.672 100.683 104.832C101.013 104.992 101.445 105.136 101.979 105.264C102.512 105.381 103.003 105.52 103.451 105.68C103.909 105.829 104.277 106.053 104.555 106.352C104.832 106.651 104.971 107.088 104.971 107.664C104.981 108.389 104.699 108.992 104.123 109.472C103.557 109.952 102.784 110.192 101.803 110.192ZM109.99 110.192C108.987 110.192 108.161 109.947 107.51 109.456C106.859 108.965 106.486 108.315 106.39 107.504H108.102C108.187 107.867 108.39 108.181 108.71 108.448C109.03 108.704 109.451 108.832 109.974 108.832C110.486 108.832 110.859 108.725 111.094 108.512C111.329 108.299 111.446 108.053 111.446 107.776C111.446 107.371 111.281 107.099 110.95 106.96C110.63 106.811 110.182 106.677 109.606 106.56C109.158 106.464 108.71 106.336 108.262 106.176C107.825 106.016 107.457 105.792 107.158 105.504C106.87 105.205 106.726 104.805 106.726 104.304C106.726 103.611 106.993 103.035 107.526 102.576C108.059 102.107 108.806 101.872 109.766 101.872C110.651 101.872 111.366 102.085 111.91 102.512C112.465 102.939 112.79 103.541 112.886 104.32H111.254C111.201 103.979 111.041 103.712 110.774 103.52C110.518 103.328 110.171 103.232 109.734 103.232C109.307 103.232 108.977 103.323 108.742 103.504C108.507 103.675 108.39 103.899 108.39 104.176C108.39 104.453 108.55 104.672 108.87 104.832C109.201 104.992 109.633 105.136 110.166 105.264C110.699 105.381 111.19 105.52 111.638 105.68C112.097 105.829 112.465 106.053 112.742 106.352C113.019 106.651 113.158 107.088 113.158 107.664C113.169 108.389 112.886 108.992 112.31 109.472C111.745 109.952 110.971 110.192 109.99 110.192ZM116.328 110L113.992 102.064H115.688L117.224 108.048L118.952 102.064H120.84L122.568 108.048L124.104 102.064H125.8L123.464 110H121.72L119.896 103.76L118.072 110H116.328ZM130.612 110.192C129.855 110.192 129.172 110.021 128.564 109.68C127.967 109.328 127.492 108.843 127.14 108.224C126.788 107.595 126.612 106.864 126.612 106.032C126.612 105.2 126.788 104.475 127.14 103.856C127.503 103.227 127.988 102.741 128.596 102.4C129.204 102.048 129.881 101.872 130.628 101.872C131.385 101.872 132.063 102.048 132.66 102.4C133.268 102.741 133.748 103.227 134.1 103.856C134.463 104.475 134.644 105.2 134.644 106.032C134.644 106.864 134.463 107.595 134.1 108.224C133.748 108.843 133.268 109.328 132.66 109.68C132.052 110.021 131.369 110.192 130.612 110.192ZM130.612 108.736C131.017 108.736 131.391 108.635 131.732 108.432C132.084 108.229 132.367 107.931 132.58 107.536C132.793 107.131 132.9 106.629 132.9 106.032C132.9 105.435 132.793 104.939 132.58 104.544C132.377 104.139 132.1 103.835 131.748 103.632C131.407 103.429 131.033 103.328 130.628 103.328C130.223 103.328 129.844 103.429 129.492 103.632C129.151 103.835 128.873 104.139 128.66 104.544C128.447 104.939 128.34 105.435 128.34 106.032C128.34 106.629 128.447 107.131 128.66 107.536C128.873 107.931 129.151 108.229 129.492 108.432C129.833 108.635 130.207 108.736 130.612 108.736ZM136.478 110V102.064H137.998L138.142 103.568C138.42 103.045 138.804 102.635 139.294 102.336C139.796 102.027 140.398 101.872 141.102 101.872V103.648H140.638C140.169 103.648 139.748 103.728 139.374 103.888C139.012 104.037 138.718 104.299 138.494 104.672C138.281 105.035 138.174 105.541 138.174 106.192V110H136.478ZM145.954 110.192C145.186 110.192 144.508 110.011 143.922 109.648C143.335 109.285 142.876 108.789 142.546 108.16C142.215 107.531 142.05 106.816 142.05 106.016C142.05 105.216 142.215 104.507 142.546 103.888C142.876 103.259 143.335 102.768 143.922 102.416C144.519 102.053 145.202 101.872 145.97 101.872C146.599 101.872 147.148 101.995 147.618 102.24C148.098 102.485 148.471 102.832 148.738 103.28V98.48H150.434V110H148.914L148.738 108.768C148.482 109.141 148.13 109.472 147.682 109.76C147.234 110.048 146.658 110.192 145.954 110.192ZM146.258 108.72C146.983 108.72 147.575 108.469 148.034 107.968C148.503 107.467 148.738 106.821 148.738 106.032C148.738 105.232 148.503 104.587 148.034 104.096C147.575 103.595 146.983 103.344 146.258 103.344C145.532 103.344 144.935 103.595 144.466 104.096C143.996 104.587 143.762 105.232 143.762 106.032C143.762 106.555 143.868 107.019 144.082 107.424C144.295 107.829 144.588 108.149 144.962 108.384C145.346 108.608 145.778 108.72 146.258 108.72Z" fill="#087108"/>
</g>
<defs>
<filter id="filter0_d_6_2064" x="19" y="613" width="337" height="174" filterUnits="userSpaceOnUse" color-interpolation-filters="sRGB">
<feFlood flood-opacity="0" result="BackgroundImageFix"/>
<feColorMatrix in="SourceAlpha" type="matrix" values="0 0 0 0 0 0 0 0 0 0 0 0 0 0 0 0 0 0 127 0" result="hardAlpha"/>
<feOffset dy="4"/>
<feGaussianBlur stdDeviation="31"/>
<feComposite in2="hardAlpha" operator="out"/>
<feColorMatrix type="matrix" values="0 0 0 0 0.600625 0 0 0 0 0.670375 0 0 0 0 0.775 0 0 0 0.18 0"/>
<feBlend mode="normal" in2="BackgroundImageFix" result="effect1_dropShadow_6_2064"/>
<feBlend mode="normal" in="SourceGraphic" in2="effect1_dropShadow_6_2064" result="shape"/>
</filter>
<filter id="filter1_d_6_2064" x="-42" y="109" width="459" height="164" filterUnits="userSpaceOnUse" color-interpolation-filters="sRGB">
<feFlood flood-opacity="0" result="BackgroundImageFix"/>
<feColorMatrix in="SourceAlpha" type="matrix" values="0 0 0 0 0 0 0 0 0 0 0 0 0 0 0 0 0 0 127 0" result="hardAlpha"/>
<feOffset dy="4"/>
<feGaussianBlur stdDeviation="31"/>
<feComposite in2="hardAlpha" operator="out"/>
<feColorMatrix type="matrix" values="0 0 0 0 0.600625 0 0 0 0 0.670375 0 0 0 0 0.775 0 0 0 0.18 0"/>
<feBlend mode="normal" in2="BackgroundImageFix" result="effect1_dropShadow_6_2064"/>
<feBlend mode="normal" in="SourceGraphic" in2="effect1_dropShadow_6_2064" result="shape"/>
</filter>
<filter id="filter2_d_6_2064" x="-42" y="190" width="459" height="164" filterUnits="userSpaceOnUse" color-interpolation-filters="sRGB">
<feFlood flood-opacity="0" result="BackgroundImageFix"/>
<feColorMatrix in="SourceAlpha" type="matrix" values="0 0 0 0 0 0 0 0 0 0 0 0 0 0 0 0 0 0 127 0" result="hardAlpha"/>
<feOffset dy="4"/>
<feGaussianBlur stdDeviation="31"/>
<feComposite in2="hardAlpha" operator="out"/>
<feColorMatrix type="matrix" values="0 0 0 0 0.600625 0 0 0 0 0.670375 0 0 0 0 0.775 0 0 0 0.18 0"/>
<feBlend mode="normal" in2="BackgroundImageFix" result="effect1_dropShadow_6_2064"/>
<feBlend mode="normal" in="SourceGraphic" in2="effect1_dropShadow_6_2064" result="shape"/>
</filter>
<filter id="filter3_d_6_2064" x="-42" y="271" width="459" height="164" filterUnits="userSpaceOnUse" color-interpolation-filters="sRGB">
<feFlood flood-opacity="0" result="BackgroundImageFix"/>
<feColorMatrix in="SourceAlpha" type="matrix" values="0 0 0 0 0 0 0 0 0 0 0 0 0 0 0 0 0 0 127 0" result="hardAlpha"/>
<feOffset dy="4"/>
<feGaussianBlur stdDeviation="31"/>
<feComposite in2="hardAlpha" operator="out"/>
<feColorMatrix type="matrix" values="0 0 0 0 0.600625 0 0 0 0 0.670375 0 0 0 0 0.775 0 0 0 0.18 0"/>
<feBlend mode="normal" in2="BackgroundImageFix" result="effect1_dropShadow_6_2064"/>
<feBlend mode="normal" in="SourceGraphic" in2="effect1_dropShadow_6_2064" result="shape"/>
</filter>
<clipPath id="clip0_6_2064">
<rect width="375" height="812" fill="white"/>
</clipPath>
</defs>
</svg>
